G04*
G04 #@! TF.GenerationSoftware,Altium Limited,Altium Designer,24.2.2 (26)*
G04*
G04 Layer_Color=8388736*
%FSLAX44Y44*%
%MOMM*%
G71*
G04*
G04 #@! TF.SameCoordinates,EC8B54CE-386E-4826-8866-03C4CD91BE24*
G04*
G04*
G04 #@! TF.FilePolarity,Negative*
G04*
G01*
G75*
%ADD18R,1.5000X2.4000*%
%ADD19R,1.5000X1.0500*%
%ADD20R,2.2832X1.3732*%
%ADD21R,2.9032X3.3032*%
%ADD22R,1.0532X0.5032*%
%ADD23R,1.7000X1.7000*%
%ADD24C,1.7000*%
%ADD25R,1.3000X1.3000*%
%ADD26C,1.3000*%
%ADD27R,1.4032X1.4032*%
%ADD28C,1.4032*%
%ADD29R,1.3000X1.3000*%
%ADD30C,1.2000*%
%ADD31R,1.2000X1.2000*%
%ADD32C,1.7032*%
%ADD33R,1.3232X1.3232*%
%ADD34C,1.3232*%
%ADD35C,1.4732*%
D18*
X1083310Y1215000D02*
D03*
D19*
Y1191250D02*
D03*
D20*
X794900Y1118470D02*
D03*
Y1093470D02*
D03*
Y1068470D02*
D03*
X678300D02*
D03*
Y1093470D02*
D03*
Y1118470D02*
D03*
D21*
X469900Y1088390D02*
D03*
D22*
X489400Y1100890D02*
D03*
Y1095890D02*
D03*
Y1090890D02*
D03*
Y1085890D02*
D03*
Y1080890D02*
D03*
Y1075890D02*
D03*
X450400D02*
D03*
Y1080890D02*
D03*
Y1085890D02*
D03*
Y1090890D02*
D03*
Y1095890D02*
D03*
Y1100890D02*
D03*
D23*
X1296670Y1184350D02*
D03*
Y1062430D02*
D03*
X297180Y1235000D02*
D03*
D24*
X1296670Y1235150D02*
D03*
Y1113230D02*
D03*
X297180Y1184200D02*
D03*
D25*
X1234440Y1255570D02*
D03*
X938530Y1261460D02*
D03*
X901700Y1165050D02*
D03*
X604520Y1163320D02*
D03*
D26*
X1234440Y1159970D02*
D03*
X938530Y1165860D02*
D03*
X901700Y1260650D02*
D03*
X604520Y1258920D02*
D03*
X471630Y1183640D02*
D03*
X450390Y1184910D02*
D03*
X521970Y1028700D02*
D03*
D27*
X1128560Y1211580D02*
D03*
X1124750Y1073150D02*
D03*
X986320Y1215390D02*
D03*
X1009650Y1078230D02*
D03*
X894880D02*
D03*
X786930Y1212850D02*
D03*
X668820Y1215390D02*
D03*
X601980Y1101090D02*
D03*
X278930Y1079500D02*
D03*
D28*
X1178560Y1211580D02*
D03*
X1174750Y1073150D02*
D03*
X1036320Y1215390D02*
D03*
X1059650Y1078230D02*
D03*
X944880D02*
D03*
X836930Y1212850D02*
D03*
X718820Y1215390D02*
D03*
X551980Y1101090D02*
D03*
X328930Y1079500D02*
D03*
D29*
X567230Y1183640D02*
D03*
X354790Y1184910D02*
D03*
X617570Y1028700D02*
D03*
D30*
X506980Y1240640D02*
D03*
X419350D02*
D03*
D31*
X442980Y1253640D02*
D03*
X355350D02*
D03*
D32*
X407470Y1096010D02*
D03*
X382470D02*
D03*
D33*
X551500Y1240790D02*
D03*
D34*
X571500D02*
D03*
D35*
X647700Y1029970D02*
D03*
X537859Y1106730D02*
D03*
X603250Y1047750D02*
D03*
X624840Y1135380D02*
D03*
X511810Y1085850D02*
D03*
Y1103590D02*
D03*
X509310Y1121370D02*
D03*
X458470Y1122680D02*
D03*
M02*
