G04*
G04 #@! TF.GenerationSoftware,Altium Limited,Altium Designer,24.2.2 (26)*
G04*
G04 Layer_Physical_Order=1*
G04 Layer_Color=255*
%FSLAX44Y44*%
%MOMM*%
G71*
G04*
G04 #@! TF.SameCoordinates,EC8B54CE-386E-4826-8866-03C4CD91BE24*
G04*
G04*
G04 #@! TF.FilePolarity,Positive*
G04*
G01*
G75*
%ADD10C,0.2540*%
%ADD15R,2.0800X1.1700*%
%ADD16R,2.7000X3.1000*%
%ADD17R,0.8500X0.3000*%
%ADD18R,1.5000X2.4000*%
%ADD19R,1.5000X1.0500*%
%ADD23R,1.7000X1.7000*%
%ADD24C,1.7000*%
%ADD25R,1.3000X1.3000*%
%ADD26C,1.3000*%
%ADD29R,1.3000X1.3000*%
%ADD30C,1.2000*%
%ADD31R,1.2000X1.2000*%
%ADD36C,1.5000*%
%ADD37R,1.1200X1.1200*%
%ADD38C,1.1200*%
%ADD39C,1.2700*%
D10*
X279400Y1098550D02*
Y1166420D01*
X278930Y1079500D02*
Y1098080D01*
X279400Y1098550D01*
X637663Y1040007D02*
Y1065407D01*
Y1040007D02*
X647700Y1029970D01*
X669290Y1033780D02*
X973872D01*
X655320Y1047750D02*
Y1116330D01*
Y1047750D02*
X669290Y1033780D01*
X669072Y1042670D02*
Y1053231D01*
X670560Y1041182D02*
X951012D01*
X669072Y1042670D02*
X670560Y1041182D01*
X951012D02*
X961390Y1051560D01*
X975360Y1035268D02*
Y1102360D01*
X973872Y1033780D02*
X975360Y1035268D01*
X601980Y1101090D02*
X637663Y1065407D01*
X1009650Y1062990D02*
Y1078230D01*
Y1062990D02*
X1016000Y1056640D01*
X1108240D01*
X1124750Y1073150D01*
X673750Y1068470D02*
X678300D01*
X669170Y1063890D02*
X673750Y1068470D01*
X669170Y1053329D02*
Y1063890D01*
X669072Y1053231D02*
X669170Y1053329D01*
X961390Y1051560D02*
Y1140460D01*
X1036320Y1215390D01*
X657460Y1118470D02*
X678300D01*
X655320Y1116330D02*
X657460Y1118470D01*
X975360Y1102360D02*
X1064250Y1191250D01*
X1083310D01*
X1105780Y1215000D02*
X1123950Y1233170D01*
X1083310Y1215000D02*
X1105780D01*
X1123950Y1233170D02*
X1156970D01*
X1178560Y1211580D01*
Y1079520D02*
Y1211580D01*
X1174750Y1075710D02*
X1178560Y1079520D01*
X1174750Y1073150D02*
Y1075710D01*
X1190450Y1211580D02*
X1234440Y1255570D01*
X1178560Y1211580D02*
X1190450D01*
X920750Y1102360D02*
X944880Y1078230D01*
X920750Y1102360D02*
Y1241600D01*
X901700Y1260650D02*
X920750Y1241600D01*
X514748Y1074420D02*
X536898Y1096570D01*
X496530Y1080810D02*
X502920Y1074420D01*
X514748D01*
X489400Y1080810D02*
X496530D01*
X536898Y1096570D02*
Y1105768D01*
X537859Y1106730D01*
X580390Y1070610D02*
Y1122680D01*
Y1070610D02*
X603250Y1047750D01*
X580390Y1122680D02*
X605790Y1148080D01*
X722160D01*
X786930Y1212850D01*
X807720Y1148080D02*
X825500D01*
X803692Y1229360D02*
X805180Y1227872D01*
X732790Y1229360D02*
X803692D01*
X805180Y1150620D02*
Y1227872D01*
Y1150620D02*
X807720Y1148080D01*
X718820Y1215390D02*
X732790Y1229360D01*
X790350Y1118470D02*
X794900D01*
X773440Y1135380D02*
X790350Y1118470D01*
X624840Y1135380D02*
X773440D01*
X825500Y1148080D02*
X833120Y1140460D01*
Y1080770D02*
Y1140460D01*
X820820Y1068470D02*
X833120Y1080770D01*
X794900Y1068470D02*
X820820D01*
X499230Y1090970D02*
X511810Y1103550D01*
Y1103590D01*
X492150Y1100890D02*
X507366Y1116106D01*
Y1119426D01*
X509310Y1121370D01*
X489400Y1100890D02*
X492150D01*
X489400Y1090970D02*
X499230D01*
X531035Y1147445D02*
X567230Y1183640D01*
X454660Y1111250D02*
X469900D01*
Y1130300D02*
X487045Y1147445D01*
X531035D01*
X469900Y1111250D02*
Y1130300D01*
X511770Y1085890D02*
X511810Y1085850D01*
X489400Y1085890D02*
X511770D01*
X279400Y1166420D02*
X297180Y1184200D01*
X445417Y1096553D02*
Y1098657D01*
Y1096553D02*
X445770Y1096200D01*
X445417Y1098657D02*
X447638Y1100878D01*
X448092D02*
X448310Y1100660D01*
X447638Y1100878D02*
X448092D01*
X448540Y1100890D02*
X450400D01*
X448310Y1100660D02*
X448540Y1100890D01*
X447892Y1104482D02*
X454660Y1111250D01*
X447892Y1101120D02*
Y1104482D01*
X439420Y1073150D02*
X441850Y1075580D01*
X439420Y1068070D02*
Y1073150D01*
X441850Y1075580D02*
X448092D01*
X439420Y1068070D02*
X448310Y1059180D01*
X510070D01*
X551980Y1101090D01*
X437138Y1080810D02*
X450400D01*
X434340Y1078012D02*
X437138Y1080810D01*
X434340Y1062990D02*
Y1078012D01*
Y1062990D02*
X448310Y1049020D01*
X566202D02*
X567690Y1050508D01*
Y1126490D01*
X448310Y1049020D02*
X566202D01*
X567690Y1126490D02*
X604520Y1163320D01*
X471170Y1183640D02*
X471630D01*
X447040Y1159510D02*
X471170Y1183640D01*
X380190Y1159510D02*
X447040D01*
X354790Y1184910D02*
X380190Y1159510D01*
X442138Y1090970D02*
X450400D01*
X439420Y1093688D02*
X442138Y1090970D01*
X439420Y1093688D02*
Y1112520D01*
X448310Y1121410D01*
X457200D02*
X458470Y1122680D01*
X448310Y1121410D02*
X457200D01*
X471630Y1154890D02*
Y1183640D01*
X433070Y1088608D02*
X435788Y1085890D01*
X450400D01*
X433070Y1088608D02*
Y1116330D01*
X471630Y1154890D01*
X567230Y1183640D02*
Y1225060D01*
X551500Y1240790D02*
X567230Y1225060D01*
X442980Y1253640D02*
X538650D01*
X551500Y1240790D01*
X355350Y1253640D02*
X442980D01*
X297180Y1184200D02*
X355350Y1242370D01*
Y1253640D01*
D15*
X794900Y1118470D02*
D03*
Y1093470D02*
D03*
Y1068470D02*
D03*
X678300D02*
D03*
Y1093470D02*
D03*
Y1118470D02*
D03*
D16*
X469900Y1088390D02*
D03*
D17*
X489400Y1100890D02*
D03*
Y1095890D02*
D03*
Y1090890D02*
D03*
Y1085890D02*
D03*
Y1080890D02*
D03*
Y1075890D02*
D03*
X450400D02*
D03*
Y1080890D02*
D03*
Y1085890D02*
D03*
Y1090890D02*
D03*
Y1095890D02*
D03*
Y1100890D02*
D03*
D18*
X1083310Y1215000D02*
D03*
D19*
Y1191250D02*
D03*
D23*
X1296670Y1184350D02*
D03*
Y1062430D02*
D03*
X297180Y1235000D02*
D03*
D24*
X1296670Y1235150D02*
D03*
Y1113230D02*
D03*
X297180Y1184200D02*
D03*
D25*
X1234440Y1255570D02*
D03*
X938530Y1261460D02*
D03*
X901700Y1165050D02*
D03*
X604520Y1163320D02*
D03*
D26*
X1234440Y1159970D02*
D03*
X938530Y1165860D02*
D03*
X901700Y1260650D02*
D03*
X604520Y1258920D02*
D03*
X471630Y1183640D02*
D03*
X450390Y1184910D02*
D03*
X521970Y1028700D02*
D03*
D29*
X567230Y1183640D02*
D03*
X354790Y1184910D02*
D03*
X617570Y1028700D02*
D03*
D30*
X1178560Y1211580D02*
D03*
X1174750Y1073150D02*
D03*
X1036320Y1215390D02*
D03*
X1059650Y1078230D02*
D03*
X944880D02*
D03*
X506980Y1240640D02*
D03*
X419350D02*
D03*
X836930Y1212850D02*
D03*
X718820Y1215390D02*
D03*
X551980Y1101090D02*
D03*
X328930Y1079500D02*
D03*
D31*
X1128560Y1211580D02*
D03*
X1124750Y1073150D02*
D03*
X986320Y1215390D02*
D03*
X1009650Y1078230D02*
D03*
X894880D02*
D03*
X442980Y1253640D02*
D03*
X355350D02*
D03*
X786930Y1212850D02*
D03*
X668820Y1215390D02*
D03*
X601980Y1101090D02*
D03*
X278930Y1079500D02*
D03*
D36*
X407470Y1096010D02*
D03*
X382470D02*
D03*
D37*
X551500Y1240790D02*
D03*
D38*
X571500D02*
D03*
D39*
X647700Y1029970D02*
D03*
X537859Y1106730D02*
D03*
X603250Y1047750D02*
D03*
X624840Y1135380D02*
D03*
X511810Y1085850D02*
D03*
Y1103590D02*
D03*
X509310Y1121370D02*
D03*
X458470Y1122680D02*
D03*
M02*
