G04*
G04 #@! TF.GenerationSoftware,Altium Limited,Altium Designer,24.2.2 (26)*
G04*
G04 Layer_Physical_Order=2*
G04 Layer_Color=16711680*
%FSLAX44Y44*%
%MOMM*%
G71*
G04*
G04 #@! TF.SameCoordinates,EC8B54CE-386E-4826-8866-03C4CD91BE24*
G04*
G04*
G04 #@! TF.FilePolarity,Positive*
G04*
G01*
G75*
%ADD10C,0.2540*%
%ADD23R,1.7000X1.7000*%
%ADD24C,1.7000*%
%ADD25R,1.3000X1.3000*%
%ADD26C,1.3000*%
%ADD29R,1.3000X1.3000*%
%ADD30C,1.2000*%
%ADD31R,1.2000X1.2000*%
%ADD36C,1.5000*%
%ADD37R,1.1200X1.1200*%
%ADD38C,1.1200*%
%ADD39C,1.2700*%
D10*
X344640Y1079500D02*
X380200Y1043940D01*
X328930Y1079500D02*
X344640D01*
X647700Y1029970D02*
X846620D01*
X894880Y1078230D01*
X948840Y1132190D02*
Y1189055D01*
X894880Y1078230D02*
X948840Y1132190D01*
X938530Y1199365D02*
X948840Y1189055D01*
X938530Y1199365D02*
Y1261460D01*
X894880Y1078230D02*
X899160Y1073950D01*
X900648Y1066800D02*
X998220D01*
X899160Y1068288D02*
Y1073950D01*
Y1068288D02*
X900648Y1066800D01*
X998220D02*
X1009650Y1078230D01*
X944880D02*
X957580Y1090930D01*
X1047750D01*
Y1090130D02*
Y1090930D01*
Y1090130D02*
X1059650Y1078230D01*
Y1065060D02*
Y1078230D01*
Y1065060D02*
X1078230Y1046480D01*
X1169670D01*
X1236420Y1113230D01*
X1296670D01*
X1120020Y1077880D02*
Y1084700D01*
X1084580Y1120140D02*
X1120020Y1084700D01*
Y1077880D02*
X1124750Y1073150D01*
X1081570Y1120140D02*
X1084580D01*
X986320Y1215390D02*
X1081570Y1120140D01*
X1128560Y1076960D02*
Y1211580D01*
X1124750Y1073150D02*
X1128560Y1076960D01*
Y1211580D02*
X1180170Y1159970D01*
X1234440D01*
X1263650Y1189180D01*
Y1202130D01*
X1296670Y1235150D01*
Y1062430D02*
X1315160D01*
X1323340Y1070610D02*
Y1145540D01*
X1315160Y1062430D02*
X1323340Y1070610D01*
X1296670Y1172210D02*
X1323340Y1145540D01*
X1296670Y1172210D02*
Y1184350D01*
X734060Y1230630D02*
X804962D01*
X806450Y1229142D01*
Y1216660D02*
X820420Y1202690D01*
X806450Y1216660D02*
Y1229142D01*
X718820Y1215390D02*
X734060Y1230630D01*
X820420Y1202690D02*
X846872D01*
X848360Y1204178D02*
Y1207310D01*
X846872Y1202690D02*
X848360Y1204178D01*
Y1207310D02*
X901700Y1260650D01*
X981590Y1220120D02*
X986320Y1215390D01*
X938530Y1261460D02*
X979870Y1220120D01*
X981590D01*
X786930Y1212850D02*
X834730Y1165050D01*
X901700D01*
X902510Y1165860D02*
X938530D01*
X901700Y1165050D02*
X902510Y1165860D01*
X537859Y1090281D02*
X580390Y1047750D01*
X603250D01*
X537859Y1090281D02*
Y1106730D01*
X624840Y1133334D02*
Y1135380D01*
X618679Y1127173D02*
X624840Y1133334D01*
X614462Y1085850D02*
X618679Y1090067D01*
X590550Y1085850D02*
X614462D01*
X618679Y1090067D02*
Y1127173D01*
X555030Y1121370D02*
X590550Y1085850D01*
X509310Y1121370D02*
X555030D01*
X497840Y1065748D02*
Y1089580D01*
X511810Y1103550D01*
X496352Y1064260D02*
X497840Y1065748D01*
X821690Y1236980D02*
X821908Y1237198D01*
X836446Y1213334D02*
X836930Y1212850D01*
X836446Y1213334D02*
Y1222660D01*
X821908Y1237198D02*
X836446Y1222660D01*
X690410Y1236980D02*
X821690D01*
X668820Y1215390D02*
X690410Y1236980D01*
X635000Y1181570D02*
X668820Y1215390D01*
X617570Y1028700D02*
X635000Y1046130D01*
Y1181570D01*
X521970Y1028700D02*
X523240Y1027430D01*
X521970Y1028700D02*
Y1117600D01*
X511810Y1103550D02*
Y1103590D01*
X510580Y1120100D02*
X519470D01*
X509310Y1121370D02*
X510580Y1120100D01*
X519470D02*
X521970Y1117600D01*
X499190Y1111250D02*
X509310Y1121370D01*
X397710Y1111250D02*
X499190D01*
X382470Y1096010D02*
X397710Y1111250D01*
X439220Y1064260D02*
X496352D01*
X407470Y1096010D02*
X439220Y1064260D01*
X495082Y1043940D02*
X511810Y1060668D01*
Y1085850D01*
X380200Y1043940D02*
X495082D01*
X587220Y1162232D02*
X601980Y1147472D01*
Y1101090D02*
Y1147472D01*
X587220Y1162232D02*
Y1163650D01*
X567230Y1183640D02*
X587220Y1163650D01*
X450390Y1130760D02*
Y1184910D01*
Y1130760D02*
X458470Y1122680D01*
X419350Y1240640D02*
X450390Y1209600D01*
Y1184910D02*
Y1209600D01*
X571500Y1240790D02*
X586390D01*
X604520Y1258920D01*
X558800Y1228090D02*
X571500Y1240790D01*
X539750Y1228090D02*
X558800D01*
X506980Y1240640D02*
X527200D01*
X539750Y1228090D01*
X419350Y1240640D02*
X506980D01*
X411150Y1235000D02*
X416790Y1240640D01*
X297180Y1235000D02*
X411150D01*
X416790Y1240640D02*
X419350D01*
D23*
X1296670Y1184350D02*
D03*
Y1062430D02*
D03*
X297180Y1235000D02*
D03*
D24*
X1296670Y1235150D02*
D03*
Y1113230D02*
D03*
X297180Y1184200D02*
D03*
D25*
X1234440Y1255570D02*
D03*
X938530Y1261460D02*
D03*
X901700Y1165050D02*
D03*
X604520Y1163320D02*
D03*
D26*
X1234440Y1159970D02*
D03*
X938530Y1165860D02*
D03*
X901700Y1260650D02*
D03*
X604520Y1258920D02*
D03*
X471630Y1183640D02*
D03*
X450390Y1184910D02*
D03*
X521970Y1028700D02*
D03*
D29*
X567230Y1183640D02*
D03*
X354790Y1184910D02*
D03*
X617570Y1028700D02*
D03*
D30*
X1178560Y1211580D02*
D03*
X1174750Y1073150D02*
D03*
X1036320Y1215390D02*
D03*
X1059650Y1078230D02*
D03*
X944880D02*
D03*
X506980Y1240640D02*
D03*
X419350D02*
D03*
X836930Y1212850D02*
D03*
X718820Y1215390D02*
D03*
X551980Y1101090D02*
D03*
X328930Y1079500D02*
D03*
D31*
X1128560Y1211580D02*
D03*
X1124750Y1073150D02*
D03*
X986320Y1215390D02*
D03*
X1009650Y1078230D02*
D03*
X894880D02*
D03*
X442980Y1253640D02*
D03*
X355350D02*
D03*
X786930Y1212850D02*
D03*
X668820Y1215390D02*
D03*
X601980Y1101090D02*
D03*
X278930Y1079500D02*
D03*
D36*
X407470Y1096010D02*
D03*
X382470D02*
D03*
D37*
X551500Y1240790D02*
D03*
D38*
X571500D02*
D03*
D39*
X647700Y1029970D02*
D03*
X537859Y1106730D02*
D03*
X603250Y1047750D02*
D03*
X624840Y1135380D02*
D03*
X511810Y1085850D02*
D03*
Y1103590D02*
D03*
X509310Y1121370D02*
D03*
X458470Y1122680D02*
D03*
M02*
