G04*
G04 #@! TF.GenerationSoftware,Altium Limited,Altium Designer,24.2.2 (26)*
G04*
G04 Layer_Color=32768*
%FSLAX44Y44*%
%MOMM*%
G71*
G04*
G04 #@! TF.SameCoordinates,EC8B54CE-386E-4826-8866-03C4CD91BE24*
G04*
G04*
G04 #@! TF.FilePolarity,Positive*
G04*
G01*
G75*
%ADD12C,0.2000*%
%ADD14C,0.1000*%
%ADD41C,0.0500*%
D12*
X1253170Y1150200D02*
Y1262800D01*
X1340170D01*
Y1150200D02*
Y1262800D01*
X1253170Y1150200D02*
X1340170D01*
X1248440Y1152470D02*
Y1263070D01*
X1220440Y1152470D02*
X1248440D01*
X1220440D02*
Y1263070D01*
X1248440D01*
X1253170Y1028280D02*
Y1140880D01*
X1340170D01*
Y1028280D02*
Y1140880D01*
X1253170Y1028280D02*
X1340170D01*
X952530Y1158360D02*
Y1268960D01*
X924530Y1158360D02*
X952530D01*
X924530D02*
Y1268960D01*
X952530D01*
X887700Y1157550D02*
Y1268150D01*
X915700D01*
Y1157550D02*
Y1268150D01*
X887700Y1157550D02*
X915700D01*
X678300Y1043470D02*
X794900D01*
X678300D02*
Y1143470D01*
X794900D01*
Y1043470D02*
Y1143470D01*
X590520Y1155820D02*
Y1266420D01*
X618520D01*
Y1155820D02*
Y1266420D01*
X590520Y1155820D02*
X618520D01*
X464130Y1169640D02*
X574730D01*
X464130D02*
Y1197640D01*
X574730D01*
Y1169640D02*
Y1197640D01*
X347290Y1198910D02*
X457890D01*
Y1170910D02*
Y1198910D01*
X347290Y1170910D02*
X457890D01*
X347290D02*
Y1198910D01*
X435980Y1226140D02*
Y1268140D01*
Y1226140D02*
X513980D01*
Y1268140D01*
X435980D02*
X513980D01*
X348350Y1226140D02*
Y1268140D01*
Y1226140D02*
X426350D01*
Y1268140D01*
X348350D02*
X426350D01*
X376970Y1084510D02*
Y1107510D01*
Y1084510D02*
X412970D01*
Y1107510D01*
X376970D02*
X412970D01*
X625070Y1014700D02*
Y1042700D01*
X514470D02*
X625070D01*
X514470Y1014700D02*
Y1042700D01*
Y1014700D02*
X625070D01*
X253680Y1269150D02*
X340680D01*
X253680Y1156550D02*
Y1269150D01*
Y1156550D02*
X340680D01*
Y1269150D01*
X1072660Y1185000D02*
X1093960D01*
Y1228000D01*
X1072660D02*
X1093960D01*
X1072660Y1185000D02*
Y1228000D01*
D14*
X1203560Y1211580D02*
G03*
X1203560Y1211580I-50000J0D01*
G01*
X1199750Y1073150D02*
G03*
X1199750Y1073150I-50000J0D01*
G01*
X1061320Y1215390D02*
G03*
X1061320Y1215390I-50000J0D01*
G01*
X1084650Y1078230D02*
G03*
X1084650Y1078230I-50000J0D01*
G01*
X969880D02*
G03*
X969880Y1078230I-50000J0D01*
G01*
X861930Y1212850D02*
G03*
X861930Y1212850I-50000J0D01*
G01*
X743820Y1215390D02*
G03*
X743820Y1215390I-50000J0D01*
G01*
X626980Y1101090D02*
G03*
X626980Y1101090I-50000J0D01*
G01*
X353930Y1079500D02*
G03*
X353930Y1079500I-50000J0D01*
G01*
X1296670Y1201500D02*
Y1211500D01*
X1291670Y1206500D02*
X1301670D01*
X1234440Y1203570D02*
Y1211970D01*
X1230240Y1207770D02*
X1238640D01*
X1296670Y1079580D02*
Y1089580D01*
X1291670Y1084580D02*
X1301670D01*
X938530Y1209460D02*
Y1217860D01*
X934330Y1213660D02*
X942730D01*
X901700Y1208650D02*
Y1217050D01*
X897500Y1212850D02*
X905900D01*
X604520Y1206920D02*
Y1215320D01*
X600320Y1211120D02*
X608720D01*
X515230Y1183640D02*
X523630D01*
X519430Y1179440D02*
Y1187840D01*
X398390Y1184910D02*
X406790D01*
X402590Y1180710D02*
Y1189110D01*
X474980Y1242140D02*
Y1252140D01*
X469980Y1247140D02*
X479980D01*
X387350Y1242140D02*
Y1252140D01*
X382350Y1247140D02*
X392350D01*
X569770Y1024500D02*
Y1032900D01*
X565570Y1028700D02*
X573970D01*
X449900Y1098390D02*
X459900Y1108390D01*
X449900Y1068390D02*
Y1108390D01*
Y1068390D02*
X489900D01*
Y1108390D01*
X449900D02*
X489900D01*
X292180Y1212850D02*
X302180D01*
X297180Y1207850D02*
Y1217850D01*
X1083310Y1203305D02*
Y1209695D01*
X1080115Y1206500D02*
X1086505D01*
D41*
X589000Y1240790D02*
G03*
X589000Y1240790I-27500J0D01*
G01*
M02*
