M48
;Layer_Color=9474304
;FILE_FORMAT=4:4
METRIC,LZ
;TYPE=PLATED
T01F00S00C0.7000
T02F00S00C0.7112
T03F00S00C0.7200
T04F00S00C0.8000
T05F00S00C1.0000
T06F00S00C1.1000
%
T01
X0041935Y0124064
X0044298Y0125364
X0050698Y0124064
X0035535Y0125364
T02
X0045847Y0112268
X0050931Y0112137
X0051181Y0110359
Y0108585
X00537859Y0110673
X0062484Y0113538
X0060325Y0104775
X006477Y0102997
T03
X005515Y0124079
X005715
T04
X0027893Y010795
X0032893
X0035479Y0118491
X0045039
X0047163Y0118364
X0056723
X0060452Y0116332
X0060198Y0110109
X0055198
X0052197Y010287
X0061757
X0089488Y0107823
X0094488
X0100965
X0105965
X0112475Y0107315
X0117475
X0093853Y0116586
X009017Y0116505
X0123444Y0115997
Y0125557
X0117856Y0121158
X0112856
X0103632Y0121539
X0098632
X0093853Y0126146
X009017Y0126065
X0083693Y0121285
X0078693
X0071882Y0121539
X0066882
X0060452Y0125892
T05
X0038247Y0109601
X0040747
T06
X0029718Y011842
X0129667Y0118435
Y0111323
Y0106243
Y0123515
X0029718Y01235
M30
