G04*
G04 #@! TF.GenerationSoftware,Altium Limited,Altium Designer,24.2.2 (26)*
G04*
G04 Layer_Color=2752767*
%FSLAX44Y44*%
%MOMM*%
G71*
G04*
G04 #@! TF.SameCoordinates,EC8B54CE-386E-4826-8866-03C4CD91BE24*
G04*
G04*
G04 #@! TF.FilePolarity,Positive*
G04*
G01*
G75*
%ADD13C,0.1270*%
%ADD42C,0.1693*%
D13*
X1229360Y1250490D02*
Y1260650D01*
X1239520D01*
Y1250490D01*
X1229360D01*
Y1154890D02*
Y1165050D01*
X1239520D01*
Y1154890D01*
X1229360D01*
X1123480Y1206500D02*
Y1216660D01*
X1133640D01*
Y1206500D01*
X1123480D01*
X1173480D02*
Y1216660D01*
X1183640D01*
Y1206500D01*
X1173480D01*
X1119670Y1068070D02*
Y1078230D01*
X1129830D01*
Y1068070D01*
X1119670D01*
X1169670D02*
Y1078230D01*
X1179830D01*
Y1068070D01*
X1169670D01*
X981240Y1210310D02*
Y1220470D01*
X991400D01*
Y1210310D01*
X981240D01*
X1031240D02*
Y1220470D01*
X1041400D01*
Y1210310D01*
X1031240D01*
X1004570Y1073150D02*
Y1083310D01*
X1014730D01*
Y1073150D01*
X1004570D01*
X1054570D02*
Y1083310D01*
X1064730D01*
Y1073150D01*
X1054570D01*
X889800D02*
Y1083310D01*
X899960D01*
Y1073150D01*
X889800D01*
X939800D02*
Y1083310D01*
X949960D01*
Y1073150D01*
X939800D01*
X933450Y1256380D02*
Y1266540D01*
X943610D01*
Y1256380D01*
X933450D01*
Y1160780D02*
Y1170940D01*
X943610D01*
Y1160780D01*
X933450D01*
X896620Y1159970D02*
Y1170130D01*
X906780D01*
Y1159970D01*
X896620D01*
Y1255570D02*
Y1265730D01*
X906780D01*
Y1255570D01*
X896620D01*
X599440Y1158240D02*
Y1168400D01*
X609600D01*
Y1158240D01*
X599440D01*
Y1253840D02*
Y1264000D01*
X609600D01*
Y1253840D01*
X599440D01*
X562150Y1178560D02*
Y1188720D01*
X572310D01*
Y1178560D01*
X562150D01*
X466550D02*
Y1188720D01*
X476710D01*
Y1178560D01*
X466550D01*
X349710Y1179830D02*
Y1189990D01*
X359870D01*
Y1179830D01*
X349710D01*
X445310D02*
Y1189990D01*
X455470D01*
Y1179830D01*
X445310D01*
X506980Y1235560D02*
X501900Y1245720D01*
X512060D01*
X506980Y1235560D01*
X442980Y1248560D02*
X437900Y1258720D01*
X448060D01*
X442980Y1248560D01*
X419350Y1235560D02*
X414270Y1245720D01*
X424430D01*
X419350Y1235560D01*
X355350Y1248560D02*
X350270Y1258720D01*
X360430D01*
X355350Y1248560D01*
X407470Y1090930D02*
X410010Y1093470D01*
X412550D01*
X410010Y1096010D01*
X412550Y1098550D01*
X410010D01*
X407470Y1101090D01*
X404930Y1098550D01*
X402390D01*
X404930Y1096010D01*
X402390Y1093470D01*
X404930D01*
X407470Y1090930D01*
X382470D02*
X385010Y1093470D01*
X387550D01*
X385010Y1096010D01*
X387550Y1098550D01*
X385010D01*
X382470Y1101090D01*
X379930Y1098550D01*
X377390D01*
X379930Y1096010D01*
X377390Y1093470D01*
X379930D01*
X382470Y1090930D01*
X546420Y1235710D02*
X548960Y1240790D01*
X546420Y1245870D01*
X551500Y1243330D01*
X556580Y1245870D01*
X554040Y1240790D01*
X556580Y1235710D01*
X551500Y1238250D01*
X546420Y1235710D01*
X566420D02*
X568960Y1240790D01*
X566420Y1245870D01*
X571500Y1243330D01*
X576580Y1245870D01*
X574040Y1240790D01*
X576580Y1235710D01*
X571500Y1238250D01*
X566420Y1235710D01*
X831850Y1207770D02*
Y1217930D01*
X842010D01*
Y1207770D01*
X831850D01*
X781850D02*
Y1217930D01*
X792010D01*
Y1207770D01*
X781850D01*
X713740Y1210310D02*
Y1220470D01*
X723900D01*
Y1210310D01*
X713740D01*
X663740D02*
Y1220470D01*
X673900D01*
Y1210310D01*
X663740D01*
X516890Y1023620D02*
Y1033780D01*
X527050D01*
Y1023620D01*
X516890D01*
X612490D02*
Y1033780D01*
X622650D01*
Y1023620D01*
X612490D01*
X546900Y1096010D02*
Y1106170D01*
X557060D01*
Y1096010D01*
X546900D01*
X596900D02*
Y1106170D01*
X607060D01*
Y1096010D01*
X596900D01*
X323850Y1074420D02*
Y1084580D01*
X334010D01*
Y1074420D01*
X323850D01*
X273850D02*
Y1084580D01*
X284010D01*
Y1074420D01*
X273850D01*
X645160Y1027430D02*
Y1024890D01*
X650240D01*
Y1027430D01*
X652780D01*
Y1032510D01*
X650240D01*
Y1035050D01*
X645160D01*
Y1032510D01*
X642620D01*
Y1027430D01*
X645160D01*
X535319Y1104190D02*
Y1101649D01*
X540399D01*
Y1104190D01*
X542939D01*
Y1109269D01*
X540399D01*
Y1111809D01*
X535319D01*
Y1109269D01*
X532779D01*
Y1104190D01*
X535319D01*
X600710Y1045210D02*
Y1042670D01*
X605790D01*
Y1045210D01*
X608330D01*
Y1050290D01*
X605790D01*
Y1052830D01*
X600710D01*
Y1050290D01*
X598170D01*
Y1045210D01*
X600710D01*
X622300Y1132840D02*
Y1130300D01*
X627380D01*
Y1132840D01*
X629920D01*
Y1137920D01*
X627380D01*
Y1140460D01*
X622300D01*
Y1137920D01*
X619760D01*
Y1132840D01*
X622300D01*
X509270Y1083310D02*
Y1080770D01*
X514350D01*
Y1083310D01*
X516890D01*
Y1088390D01*
X514350D01*
Y1090930D01*
X509270D01*
Y1088390D01*
X506730D01*
Y1083310D01*
X509270D01*
Y1101050D02*
Y1098510D01*
X514350D01*
Y1101050D01*
X516890D01*
Y1106130D01*
X514350D01*
Y1108670D01*
X509270D01*
Y1106130D01*
X506730D01*
Y1101050D01*
X509270D01*
X506770Y1118830D02*
Y1116290D01*
X511850D01*
Y1118830D01*
X514390D01*
Y1123910D01*
X511850D01*
Y1126450D01*
X506770D01*
Y1123910D01*
X504230D01*
Y1118830D01*
X506770D01*
X455930Y1120140D02*
Y1117600D01*
X461010D01*
Y1120140D01*
X463550D01*
Y1125220D01*
X461010D01*
Y1127760D01*
X455930D01*
Y1125220D01*
X453390D01*
Y1120140D01*
X455930D01*
D42*
X1301750Y1184350D02*
G03*
X1301750Y1184350I-5080J0D01*
G01*
Y1235150D02*
G03*
X1301750Y1235150I-5080J0D01*
G01*
Y1062430D02*
G03*
X1301750Y1062430I-5080J0D01*
G01*
Y1113230D02*
G03*
X1301750Y1113230I-5080J0D01*
G01*
X302260Y1184200D02*
G03*
X302260Y1184200I-5080J0D01*
G01*
Y1235000D02*
G03*
X302260Y1235000I-5080J0D01*
G01*
M02*
