G04*
G04 #@! TF.GenerationSoftware,Altium Limited,Altium Designer,24.2.2 (26)*
G04*
G04 Layer_Color=65535*
%FSLAX44Y44*%
%MOMM*%
G71*
G04*
G04 #@! TF.SameCoordinates,EC8B54CE-386E-4826-8866-03C4CD91BE24*
G04*
G04*
G04 #@! TF.FilePolarity,Positive*
G04*
G01*
G75*
%ADD10C,0.2540*%
%ADD11C,0.2500*%
%ADD12C,0.2000*%
%ADD13C,0.1270*%
%ADD14C,0.1000*%
G36*
X510151Y1032773D02*
Y1019819D01*
Y1016000D01*
X459589D01*
X459832Y1016019D01*
X460038Y1016056D01*
X460226Y1016094D01*
X460394Y1016112D01*
X460506Y1016150D01*
X460581Y1016169D01*
X460600D01*
X460806Y1016225D01*
X460993Y1016300D01*
X461143Y1016374D01*
X461274Y1016431D01*
X461386Y1016487D01*
X461461Y1016543D01*
X461517Y1016562D01*
X461536Y1016580D01*
X461817Y1016805D01*
X462023Y1017030D01*
X462098Y1017142D01*
X462154Y1017217D01*
X462191Y1017273D01*
X462210Y1017292D01*
X462322Y1017479D01*
X462435Y1017666D01*
X462547Y1017872D01*
X462640Y1018078D01*
X462715Y1018265D01*
X462790Y1018415D01*
X462828Y1018509D01*
X462846Y1018546D01*
X463446Y1020156D01*
X466759Y1029216D01*
X464194D01*
X461985Y1022533D01*
X459758Y1029216D01*
X457118D01*
X460675Y1019800D01*
X460581Y1019519D01*
X460488Y1019276D01*
X460375Y1019051D01*
X460282Y1018864D01*
X460188Y1018714D01*
X460113Y1018602D01*
X460057Y1018527D01*
X460038Y1018509D01*
X459870Y1018340D01*
X459664Y1018209D01*
X459458Y1018115D01*
X459252Y1018059D01*
X459065Y1018022D01*
X458915Y1017984D01*
X458765D01*
X458410Y1018003D01*
X458223Y1018022D01*
X458073Y1018059D01*
X457923Y1018078D01*
X457811Y1018097D01*
X457736Y1018115D01*
X457717D01*
X457942Y1016169D01*
X458447Y1016075D01*
X458672Y1016037D01*
X458896Y1016019D01*
X459065D01*
X459215Y1016000D01*
X314960D01*
Y1019594D01*
Y1026184D01*
X314979Y1025622D01*
X315035Y1025098D01*
X315110Y1024592D01*
X315222Y1024143D01*
X315334Y1023713D01*
X315484Y1023301D01*
X315634Y1022945D01*
X315784Y1022627D01*
X315933Y1022327D01*
X316083Y1022065D01*
X316233Y1021859D01*
X316345Y1021672D01*
X316458Y1021541D01*
X316532Y1021429D01*
X316589Y1021373D01*
X316607Y1021354D01*
X316926Y1021036D01*
X317262Y1020773D01*
X317618Y1020530D01*
X317974Y1020343D01*
X318330Y1020174D01*
X318685Y1020025D01*
X319022Y1019912D01*
X319340Y1019819D01*
X319659Y1019744D01*
X319939Y1019688D01*
X320201Y1019650D01*
X320407Y1019632D01*
X320595Y1019613D01*
X320726Y1019594D01*
X320838D01*
X321231Y1019613D01*
X321587Y1019632D01*
X321942Y1019688D01*
X322261Y1019763D01*
X322560Y1019838D01*
X322841Y1019912D01*
X323103Y1020006D01*
X323346Y1020118D01*
X323552Y1020212D01*
X323740Y1020306D01*
X323908Y1020380D01*
X324039Y1020455D01*
X324151Y1020530D01*
X324226Y1020586D01*
X324264Y1020605D01*
X324282Y1020624D01*
X324526Y1020830D01*
X324751Y1021054D01*
X325162Y1021560D01*
X325499Y1022084D01*
X325761Y1022589D01*
X325874Y1022833D01*
X325967Y1023057D01*
X326042Y1023263D01*
X326117Y1023432D01*
X326173Y1023581D01*
X326211Y1023694D01*
X326229Y1023769D01*
Y1023787D01*
X323683Y1024574D01*
X323534Y1024068D01*
X323365Y1023638D01*
X323197Y1023282D01*
X323009Y1022982D01*
X322860Y1022758D01*
X322729Y1022608D01*
X322635Y1022514D01*
X322598Y1022477D01*
X322298Y1022252D01*
X321999Y1022103D01*
X321699Y1021990D01*
X321437Y1021897D01*
X321194Y1021859D01*
X320988Y1021841D01*
X320913Y1021822D01*
X320819D01*
X320557Y1021841D01*
X320314Y1021859D01*
X319865Y1021990D01*
X319471Y1022140D01*
X319153Y1022346D01*
X318891Y1022533D01*
X318704Y1022683D01*
X318629Y1022758D01*
X318573Y1022814D01*
X318554Y1022833D01*
X318535Y1022851D01*
X318386Y1023057D01*
X318255Y1023301D01*
X318124Y1023563D01*
X318030Y1023844D01*
X317880Y1024424D01*
X317768Y1025004D01*
X317731Y1025285D01*
X317712Y1025528D01*
X317674Y1025772D01*
Y1025978D01*
X317656Y1026127D01*
Y1026258D01*
Y1026352D01*
Y1026371D01*
X317674Y1026801D01*
X317693Y1027194D01*
X317731Y1027550D01*
X317787Y1027887D01*
X317862Y1028187D01*
X317936Y1028467D01*
X318011Y1028711D01*
X318105Y1028935D01*
X318180Y1029123D01*
X318255Y1029291D01*
X318330Y1029422D01*
X318404Y1029534D01*
X318461Y1029628D01*
X318498Y1029684D01*
X318535Y1029722D01*
Y1029740D01*
X318704Y1029928D01*
X318891Y1030096D01*
X319078Y1030227D01*
X319284Y1030339D01*
X319677Y1030527D01*
X320052Y1030658D01*
X320370Y1030732D01*
X320520Y1030751D01*
X320632Y1030770D01*
X320744Y1030789D01*
X320876D01*
X321250Y1030770D01*
X321587Y1030695D01*
X321886Y1030601D01*
X322148Y1030489D01*
X322354Y1030377D01*
X322504Y1030283D01*
X322598Y1030208D01*
X322635Y1030190D01*
X322878Y1029965D01*
X323103Y1029703D01*
X323272Y1029441D01*
X323403Y1029179D01*
X323496Y1028954D01*
X323552Y1028786D01*
X323590Y1028711D01*
Y1028655D01*
X323609Y1028636D01*
Y1028617D01*
X326192Y1029235D01*
X326005Y1029778D01*
X325799Y1030246D01*
X325574Y1030658D01*
X325368Y1030995D01*
X325162Y1031257D01*
X325087Y1031369D01*
X325013Y1031463D01*
X324956Y1031519D01*
X324900Y1031575D01*
X324882Y1031612D01*
X324863D01*
X324582Y1031856D01*
X324264Y1032080D01*
X323964Y1032268D01*
X323646Y1032417D01*
X323309Y1032567D01*
X322991Y1032679D01*
X322673Y1032773D01*
X322373Y1032848D01*
X322092Y1032904D01*
X321830Y1032941D01*
X321605Y1032979D01*
X321400Y1032998D01*
X321231Y1033016D01*
X510151D01*
Y1032773D01*
D02*
G37*
G36*
X320520Y1032998D02*
X320033Y1032941D01*
X319603Y1032848D01*
X319172Y1032736D01*
X318798Y1032605D01*
X318423Y1032455D01*
X318105Y1032286D01*
X317805Y1032118D01*
X317525Y1031949D01*
X317300Y1031781D01*
X317094Y1031631D01*
X316926Y1031500D01*
X316794Y1031388D01*
X316701Y1031294D01*
X316645Y1031238D01*
X316626Y1031219D01*
X316327Y1030863D01*
X316083Y1030489D01*
X315859Y1030096D01*
X315671Y1029684D01*
X315503Y1029254D01*
X315372Y1028842D01*
X315259Y1028430D01*
X315166Y1028037D01*
X315091Y1027644D01*
X315054Y1027307D01*
X315016Y1026989D01*
X314979Y1026726D01*
Y1026502D01*
X314960Y1026333D01*
Y1033016D01*
X321007D01*
X320520Y1032998D01*
D02*
G37*
G36*
X1341400Y1122425D02*
Y1119176D01*
X1356287Y1113884D01*
Y1117089D01*
X1345272Y1120725D01*
X1356287Y1124511D01*
Y1127760D01*
X1356373D01*
Y1074901D01*
X1341120D01*
X1345638D01*
X1345229Y1074879D01*
X1344863Y1074836D01*
X1344498Y1074750D01*
X1344175Y1074642D01*
X1343852Y1074535D01*
X1343573Y1074406D01*
X1343314Y1074255D01*
X1343078Y1074105D01*
X1342884Y1073954D01*
X1342690Y1073803D01*
X1342540Y1073674D01*
X1342411Y1073567D01*
X1342303Y1073459D01*
X1342239Y1073373D01*
X1342196Y1073330D01*
X1342174Y1073309D01*
X1341981Y1073050D01*
X1341830Y1072771D01*
X1341679Y1072491D01*
X1341572Y1072211D01*
X1341378Y1071652D01*
X1341249Y1071114D01*
X1341206Y1070856D01*
X1341185Y1070641D01*
X1341163Y1070447D01*
X1341142Y1070275D01*
X1341120Y1070125D01*
Y1070189D01*
Y1070125D01*
Y1065090D01*
Y1069931D01*
X1341142Y1069522D01*
X1341185Y1069156D01*
X1341249Y1068791D01*
X1341314Y1068447D01*
X1341421Y1068145D01*
X1341529Y1067866D01*
X1341636Y1067586D01*
X1341765Y1067349D01*
X1341895Y1067134D01*
X1342002Y1066962D01*
X1342110Y1066790D01*
X1342217Y1066661D01*
X1342282Y1066553D01*
X1342346Y1066489D01*
X1342389Y1066446D01*
X1342411Y1066424D01*
X1342669Y1066188D01*
X1342927Y1065994D01*
X1343207Y1065800D01*
X1343486Y1065650D01*
X1343766Y1065521D01*
X1344046Y1065413D01*
X1344584Y1065262D01*
X1344820Y1065198D01*
X1345036Y1065155D01*
X1345251Y1065133D01*
X1345423Y1065112D01*
X1345573Y1065090D01*
X1345767D01*
X1346219Y1065112D01*
X1346628Y1065198D01*
X1347015Y1065284D01*
X1347337Y1065413D01*
X1347596Y1065521D01*
X1347789Y1065628D01*
X1347918Y1065714D01*
X1347961Y1065736D01*
X1348306Y1065994D01*
X1348607Y1066295D01*
X1348865Y1066618D01*
X1349059Y1066919D01*
X1349231Y1067199D01*
X1349360Y1067414D01*
X1349403Y1067500D01*
X1349424Y1067564D01*
X1349446Y1067607D01*
Y1067629D01*
X1349618Y1067285D01*
X1349812Y1066983D01*
X1350005Y1066725D01*
X1350220Y1066510D01*
X1350392Y1066338D01*
X1350543Y1066230D01*
X1350629Y1066144D01*
X1350672Y1066123D01*
X1350995Y1065929D01*
X1351317Y1065800D01*
X1351619Y1065693D01*
X1351898Y1065628D01*
X1352157Y1065585D01*
X1352350Y1065564D01*
X1352479D01*
X1352501D01*
X1352522D01*
X1352823Y1065585D01*
X1353125Y1065607D01*
X1353663Y1065757D01*
X1354114Y1065929D01*
X1354523Y1066144D01*
X1354846Y1066381D01*
X1354975Y1066467D01*
X1355083Y1066553D01*
X1355168Y1066639D01*
X1355233Y1066704D01*
X1355255Y1066725D01*
X1355276Y1066747D01*
X1355470Y1066983D01*
X1355642Y1067220D01*
X1355792Y1067500D01*
X1355921Y1067758D01*
X1356115Y1068317D01*
X1356244Y1068855D01*
X1356287Y1069092D01*
X1356309Y1069329D01*
X1356330Y1069522D01*
X1356352Y1069716D01*
X1356373Y1069845D01*
Y1065090D01*
D01*
Y1050289D01*
X1341120D01*
Y1127760D01*
X1341400D01*
X1356287D01*
X1341400Y1122425D01*
D02*
G37*
G36*
X1356373Y1070060D02*
X1356352Y1070447D01*
X1356330Y1070813D01*
X1356266Y1071157D01*
X1356201Y1071480D01*
X1356115Y1071781D01*
X1356029Y1072061D01*
X1355921Y1072297D01*
X1355835Y1072513D01*
X1355728Y1072728D01*
X1355620Y1072900D01*
X1355534Y1073029D01*
X1355448Y1073158D01*
X1355384Y1073244D01*
X1355319Y1073309D01*
X1355298Y1073352D01*
X1355276Y1073373D01*
X1355061Y1073567D01*
X1354846Y1073760D01*
X1354609Y1073911D01*
X1354394Y1074040D01*
X1353921Y1074255D01*
X1353490Y1074384D01*
X1353103Y1074470D01*
X1352931Y1074492D01*
X1352802Y1074513D01*
X1352673Y1074535D01*
X1352587D01*
X1352544D01*
X1352522D01*
X1352157Y1074513D01*
X1351834Y1074449D01*
X1351511Y1074384D01*
X1351253Y1074277D01*
X1351016Y1074191D01*
X1350866Y1074126D01*
X1350758Y1074062D01*
X1350715Y1074040D01*
X1350435Y1073825D01*
X1350177Y1073567D01*
X1349962Y1073309D01*
X1349769Y1073029D01*
X1349639Y1072792D01*
X1349532Y1072599D01*
X1349467Y1072469D01*
X1349446Y1072448D01*
Y1072427D01*
X1349209Y1072878D01*
X1348972Y1073266D01*
X1348714Y1073588D01*
X1348456Y1073846D01*
X1348220Y1074062D01*
X1348047Y1074212D01*
X1347918Y1074298D01*
X1347897Y1074320D01*
X1347875D01*
X1347488Y1074513D01*
X1347101Y1074664D01*
X1346714Y1074750D01*
X1346369Y1074836D01*
X1346090Y1074879D01*
X1345853Y1074901D01*
X1356373D01*
Y1070060D01*
D02*
G37*
G36*
X1352608Y1071803D02*
X1352867Y1071760D01*
X1353082Y1071674D01*
X1353275Y1071588D01*
X1353426Y1071501D01*
X1353533Y1071415D01*
X1353598Y1071372D01*
X1353620Y1071351D01*
X1353792Y1071157D01*
X1353899Y1070942D01*
X1353985Y1070727D01*
X1354050Y1070512D01*
X1354093Y1070318D01*
X1354114Y1070168D01*
Y1070039D01*
X1354093Y1069759D01*
X1354028Y1069501D01*
X1353964Y1069286D01*
X1353878Y1069092D01*
X1353770Y1068941D01*
X1353706Y1068834D01*
X1353641Y1068769D01*
X1353620Y1068748D01*
X1353426Y1068576D01*
X1353211Y1068468D01*
X1352996Y1068382D01*
X1352780Y1068317D01*
X1352608Y1068274D01*
X1352458Y1068253D01*
X1352372D01*
X1352329D01*
X1352027Y1068274D01*
X1351748Y1068339D01*
X1351533Y1068403D01*
X1351339Y1068490D01*
X1351167Y1068597D01*
X1351059Y1068662D01*
X1350995Y1068726D01*
X1350973Y1068748D01*
X1350823Y1068941D01*
X1350694Y1069156D01*
X1350608Y1069371D01*
X1350565Y1069587D01*
X1350522Y1069780D01*
X1350500Y1069931D01*
Y1070060D01*
X1350522Y1070340D01*
X1350565Y1070598D01*
X1350651Y1070813D01*
X1350737Y1071007D01*
X1350823Y1071157D01*
X1350909Y1071265D01*
X1350952Y1071329D01*
X1350973Y1071351D01*
X1351167Y1071501D01*
X1351382Y1071630D01*
X1351597Y1071717D01*
X1351812Y1071760D01*
X1352006Y1071803D01*
X1352157Y1071824D01*
X1352264D01*
X1352307D01*
X1352608Y1071803D01*
D02*
G37*
G36*
X1346240Y1072061D02*
X1346541Y1071996D01*
X1346800Y1071932D01*
X1347036Y1071824D01*
X1347230Y1071738D01*
X1347381Y1071674D01*
X1347467Y1071609D01*
X1347510Y1071588D01*
X1347746Y1071372D01*
X1347940Y1071114D01*
X1348069Y1070856D01*
X1348155Y1070598D01*
X1348198Y1070383D01*
X1348241Y1070189D01*
Y1070017D01*
X1348220Y1069694D01*
X1348134Y1069393D01*
X1348047Y1069135D01*
X1347918Y1068920D01*
X1347811Y1068748D01*
X1347703Y1068619D01*
X1347617Y1068532D01*
X1347596Y1068511D01*
X1347337Y1068317D01*
X1347058Y1068167D01*
X1346778Y1068059D01*
X1346498Y1067973D01*
X1346262Y1067930D01*
X1346068Y1067909D01*
X1345939D01*
X1345918D01*
X1345896D01*
X1345466Y1067930D01*
X1345100Y1067995D01*
X1344777Y1068102D01*
X1344519Y1068210D01*
X1344304Y1068317D01*
X1344175Y1068425D01*
X1344067Y1068490D01*
X1344046Y1068511D01*
X1343831Y1068748D01*
X1343680Y1068984D01*
X1343573Y1069221D01*
X1343508Y1069458D01*
X1343465Y1069673D01*
X1343422Y1069823D01*
Y1069974D01*
X1343443Y1070297D01*
X1343530Y1070598D01*
X1343637Y1070856D01*
X1343745Y1071071D01*
X1343874Y1071243D01*
X1343960Y1071372D01*
X1344046Y1071458D01*
X1344067Y1071480D01*
X1344347Y1071674D01*
X1344648Y1071824D01*
X1344949Y1071932D01*
X1345251Y1071996D01*
X1345530Y1072039D01*
X1345746Y1072082D01*
X1345831D01*
X1345896D01*
X1345918D01*
X1345939D01*
X1346240Y1072061D01*
D02*
G37*
G36*
X1342627Y1248155D02*
Y1253490D01*
D01*
D01*
Y1248155D01*
Y1244906D01*
X1357514Y1239614D01*
Y1242819D01*
X1346499Y1246455D01*
X1357514Y1250241D01*
Y1253490D01*
X1357600D01*
Y1199835D01*
X1342627D01*
X1351254D01*
X1351555Y1199060D01*
X1351878Y1198372D01*
X1352050Y1198049D01*
X1352243Y1197748D01*
X1352415Y1197468D01*
X1352587Y1197210D01*
X1352760Y1196973D01*
X1352910Y1196758D01*
X1353039Y1196586D01*
X1353168Y1196435D01*
X1353276Y1196306D01*
X1353340Y1196220D01*
X1353384Y1196177D01*
X1353405Y1196156D01*
X1342627D01*
D01*
Y1193294D01*
X1357600D01*
Y1189379D01*
X1350396D01*
X1357600D01*
Y1184108D01*
X1357579Y1184474D01*
X1357557Y1184818D01*
X1357450Y1185485D01*
X1357278Y1186044D01*
X1357191Y1186302D01*
X1357084Y1186539D01*
X1356998Y1186754D01*
X1356890Y1186926D01*
X1356804Y1187098D01*
X1356740Y1187227D01*
X1356654Y1187335D01*
X1356611Y1187400D01*
X1356589Y1187443D01*
X1356568Y1187464D01*
X1356353Y1187701D01*
X1356137Y1187916D01*
X1355879Y1188110D01*
X1355600Y1188282D01*
X1355040Y1188540D01*
X1354502Y1188755D01*
X1354223Y1188820D01*
X1353986Y1188884D01*
X1353771Y1188949D01*
X1353577Y1188970D01*
X1353405Y1189013D01*
X1353297D01*
X1353211Y1189035D01*
X1353190D01*
X1352910Y1186195D01*
X1353340Y1186152D01*
X1353706Y1186066D01*
X1354029Y1185980D01*
X1354266Y1185872D01*
X1354459Y1185786D01*
X1354588Y1185700D01*
X1354674Y1185636D01*
X1354696Y1185614D01*
X1354868Y1185399D01*
X1354997Y1185162D01*
X1355105Y1184926D01*
X1355169Y1184689D01*
X1355212Y1184495D01*
X1355234Y1184323D01*
Y1184173D01*
X1355212Y1183850D01*
X1355148Y1183570D01*
X1355062Y1183334D01*
X1354976Y1183118D01*
X1354890Y1182968D01*
X1354803Y1182839D01*
X1354739Y1182774D01*
X1354717Y1182753D01*
X1354502Y1182580D01*
X1354266Y1182451D01*
X1354029Y1182365D01*
X1353792Y1182301D01*
X1353577Y1182258D01*
X1353384Y1182236D01*
X1353276D01*
X1353255D01*
X1353233D01*
X1352910Y1182258D01*
X1352609Y1182322D01*
X1352308Y1182430D01*
X1352050Y1182538D01*
X1351813Y1182645D01*
X1351641Y1182753D01*
X1351533Y1182817D01*
X1351490Y1182839D01*
X1351361Y1182925D01*
X1351211Y1183054D01*
X1351017Y1183226D01*
X1350845Y1183398D01*
X1350436Y1183785D01*
X1350027Y1184173D01*
X1349640Y1184560D01*
X1349468Y1184732D01*
X1349339Y1184904D01*
X1349210Y1185033D01*
X1349124Y1185119D01*
X1349059Y1185184D01*
X1349038Y1185205D01*
X1348629Y1185636D01*
X1348242Y1186023D01*
X1347876Y1186388D01*
X1347553Y1186711D01*
X1347231Y1187012D01*
X1346929Y1187271D01*
X1346671Y1187507D01*
X1346413Y1187701D01*
X1346198Y1187873D01*
X1346004Y1188024D01*
X1345854Y1188153D01*
X1345703Y1188239D01*
X1345617Y1188325D01*
X1345531Y1188368D01*
X1345488Y1188411D01*
X1345466D01*
X1344972Y1188690D01*
X1344455Y1188906D01*
X1343982Y1189078D01*
X1343552Y1189207D01*
X1343165Y1189293D01*
X1343014Y1189314D01*
X1342885Y1189336D01*
X1342777Y1189357D01*
X1342691Y1189379D01*
X1342627D01*
Y1179375D01*
X1353427D01*
X1353749Y1179397D01*
X1354072Y1179439D01*
X1354373Y1179482D01*
X1354653Y1179569D01*
X1355148Y1179784D01*
X1355578Y1179999D01*
X1355772Y1180128D01*
X1355922Y1180236D01*
X1356073Y1180343D01*
X1356180Y1180451D01*
X1356266Y1180537D01*
X1356353Y1180580D01*
X1356374Y1180623D01*
X1356396Y1180644D01*
X1356611Y1180881D01*
X1356804Y1181161D01*
X1356955Y1181419D01*
X1357084Y1181720D01*
X1357299Y1182279D01*
X1357450Y1182839D01*
X1357493Y1183097D01*
X1357536Y1183334D01*
X1357557Y1183549D01*
X1357579Y1183742D01*
X1357600Y1183893D01*
Y1179375D01*
D01*
Y1164444D01*
X1342627D01*
X1342627D01*
D01*
X1342390D01*
Y1253490D01*
X1342627D01*
X1342627D01*
X1357514D01*
X1342627Y1248155D01*
D02*
G37*
G36*
X1357600Y1195618D02*
X1357105Y1195833D01*
X1356654Y1196113D01*
X1356223Y1196414D01*
X1355879Y1196715D01*
X1355600Y1196973D01*
X1355384Y1197210D01*
X1355298Y1197296D01*
X1355234Y1197361D01*
X1355212Y1197403D01*
X1355191Y1197425D01*
X1354846Y1197898D01*
X1354545Y1198350D01*
X1354309Y1198759D01*
X1354137Y1199125D01*
X1354008Y1199426D01*
X1353900Y1199641D01*
X1353878Y1199727D01*
X1353857Y1199792D01*
X1353835Y1199813D01*
Y1199835D01*
X1357600D01*
Y1195618D01*
D02*
G37*
G36*
X1345553Y1184883D02*
X1345789Y1184689D01*
X1345897Y1184603D01*
X1345983Y1184538D01*
X1346026Y1184495D01*
X1346047Y1184474D01*
X1346133Y1184388D01*
X1346241Y1184302D01*
X1346478Y1184044D01*
X1346757Y1183764D01*
X1347037Y1183484D01*
X1347295Y1183204D01*
X1347510Y1182968D01*
X1347596Y1182882D01*
X1347661Y1182817D01*
X1347682Y1182774D01*
X1347704Y1182753D01*
X1348156Y1182279D01*
X1348521Y1181892D01*
X1348866Y1181569D01*
X1349124Y1181311D01*
X1349339Y1181118D01*
X1349490Y1180988D01*
X1349597Y1180902D01*
X1349619Y1180881D01*
X1349984Y1180601D01*
X1350329Y1180365D01*
X1350651Y1180171D01*
X1350931Y1180020D01*
X1351168Y1179891D01*
X1351361Y1179805D01*
X1351469Y1179762D01*
X1351512Y1179741D01*
X1351856Y1179612D01*
X1352200Y1179526D01*
X1352523Y1179461D01*
X1352824Y1179418D01*
X1353061Y1179397D01*
X1353255Y1179375D01*
X1345273D01*
Y1185055D01*
X1345553Y1184883D01*
D02*
G37*
G36*
X255270Y1165860D02*
X254990D01*
D01*
X240103D01*
X254990Y1171195D01*
Y1174444D01*
D01*
X240103Y1179736D01*
Y1165860D01*
X240017D01*
Y1204865D01*
X245219D01*
X240017D01*
Y1209705D01*
X240038Y1209318D01*
X240060Y1208952D01*
X240124Y1208608D01*
X240189Y1208285D01*
X240275Y1207984D01*
X240361Y1207704D01*
X240469Y1207468D01*
X240555Y1207253D01*
X240662Y1207037D01*
X240770Y1206865D01*
X240856Y1206736D01*
X240942Y1206607D01*
X241006Y1206521D01*
X241071Y1206457D01*
X241092Y1206413D01*
X241114Y1206392D01*
X241329Y1206198D01*
X241544Y1206005D01*
X241781Y1205854D01*
X241996Y1205725D01*
X242469Y1205510D01*
X242900Y1205381D01*
X243287Y1205295D01*
X243459Y1205273D01*
X243588Y1205252D01*
X243717Y1205230D01*
X243803D01*
X243846D01*
X243868D01*
X244233Y1205252D01*
X244556Y1205316D01*
X244879Y1205381D01*
X245137Y1205488D01*
X245374Y1205574D01*
X245524Y1205639D01*
X245632Y1205704D01*
X245675Y1205725D01*
X245954Y1205940D01*
X246213Y1206198D01*
X246428Y1206457D01*
X246621Y1206736D01*
X246751Y1206973D01*
X246858Y1207167D01*
X246923Y1207296D01*
X246944Y1207317D01*
Y1207339D01*
X247181Y1206887D01*
X247418Y1206500D01*
X247676Y1206177D01*
X247934Y1205919D01*
X248170Y1205704D01*
X248343Y1205553D01*
X248472Y1205467D01*
X248493Y1205445D01*
X248515D01*
X248902Y1205252D01*
X249289Y1205101D01*
X249676Y1205015D01*
X250021Y1204929D01*
X250300Y1204886D01*
X250537Y1204865D01*
X250752D01*
X251161Y1204886D01*
X251527Y1204929D01*
X251892Y1205015D01*
X252215Y1205123D01*
X252538Y1205230D01*
X252817Y1205359D01*
X253076Y1205510D01*
X253312Y1205660D01*
X253506Y1205811D01*
X253699Y1205962D01*
X253850Y1206091D01*
X253979Y1206198D01*
X254087Y1206306D01*
X254151Y1206392D01*
X254194Y1206435D01*
X254216Y1206457D01*
X254409Y1206715D01*
X254560Y1206994D01*
X254711Y1207274D01*
X254818Y1207554D01*
X255012Y1208113D01*
X255141Y1208651D01*
X255184Y1208909D01*
X255205Y1209124D01*
X255227Y1209318D01*
X255249Y1209490D01*
X255270Y1209641D01*
Y1209834D01*
X255249Y1210243D01*
X255205Y1210609D01*
X255141Y1210974D01*
X255076Y1211319D01*
X254969Y1211620D01*
X254861Y1211899D01*
X254754Y1212179D01*
X254625Y1212416D01*
X254496Y1212631D01*
X254388Y1212803D01*
X254280Y1212975D01*
X254173Y1213104D01*
X254108Y1213212D01*
X254044Y1213276D01*
X254001Y1213319D01*
X253979Y1213341D01*
X253721Y1213578D01*
X253463Y1213771D01*
X253183Y1213965D01*
X252903Y1214116D01*
X252624Y1214245D01*
X252344Y1214352D01*
X251806Y1214503D01*
X251570Y1214567D01*
X251355Y1214610D01*
X251139Y1214632D01*
X250967Y1214653D01*
X250817Y1214675D01*
X255270D01*
X247172D01*
X250623D01*
X250171Y1214653D01*
X249762Y1214567D01*
X249375Y1214481D01*
X249053Y1214352D01*
X248794Y1214245D01*
X248601Y1214137D01*
X248472Y1214051D01*
X248429Y1214029D01*
X248084Y1213771D01*
X247783Y1213470D01*
X247525Y1213147D01*
X247331Y1212846D01*
X247159Y1212567D01*
X247030Y1212351D01*
X246987Y1212265D01*
X246966Y1212201D01*
X246944Y1212158D01*
Y1212136D01*
X246772Y1212480D01*
X246578Y1212782D01*
X246385Y1213040D01*
X246170Y1213255D01*
X245998Y1213427D01*
X245847Y1213535D01*
X245761Y1213621D01*
X245718Y1213642D01*
X245395Y1213836D01*
X245072Y1213965D01*
X244771Y1214072D01*
X244492Y1214137D01*
X244233Y1214180D01*
X244040Y1214202D01*
X243911D01*
X243889D01*
X243868D01*
X243566Y1214180D01*
X243265Y1214158D01*
X242728Y1214008D01*
X242276Y1213836D01*
X241867Y1213621D01*
X241544Y1213384D01*
X241415Y1213298D01*
X241308Y1213212D01*
X241222Y1213126D01*
X241157Y1213061D01*
X241135Y1213040D01*
X241114Y1213018D01*
X240920Y1212782D01*
X240748Y1212545D01*
X240598Y1212265D01*
X240469Y1212007D01*
X240275Y1211448D01*
X240146Y1210910D01*
X240103Y1210673D01*
X240081Y1210437D01*
X240060Y1210243D01*
X240038Y1210049D01*
X240017Y1209920D01*
Y1214675D01*
D01*
Y1223302D01*
X255270D01*
X251075D01*
X251419Y1223345D01*
X251742Y1223431D01*
X252344Y1223625D01*
X252861Y1223861D01*
X253076Y1224012D01*
X253291Y1224141D01*
X253484Y1224270D01*
X253635Y1224399D01*
X253785Y1224507D01*
X253893Y1224614D01*
X253979Y1224700D01*
X254044Y1224765D01*
X254087Y1224808D01*
X254108Y1224829D01*
X254302Y1225088D01*
X254496Y1225367D01*
X254646Y1225625D01*
X254775Y1225927D01*
X254990Y1226486D01*
X255119Y1227002D01*
X255162Y1227260D01*
X255205Y1227476D01*
X255227Y1227669D01*
X255249Y1227841D01*
X255270Y1227992D01*
Y1228186D01*
X255249Y1228573D01*
X255205Y1228960D01*
X255141Y1229304D01*
X255055Y1229648D01*
X254947Y1229950D01*
X254840Y1230251D01*
X254711Y1230530D01*
X254582Y1230767D01*
X254452Y1230982D01*
X254323Y1231197D01*
X254216Y1231348D01*
X254108Y1231499D01*
X254022Y1231606D01*
X253958Y1231692D01*
X253915Y1231735D01*
X253893Y1231757D01*
X253635Y1232015D01*
X253355Y1232230D01*
X253076Y1232424D01*
X252796Y1232596D01*
X252495Y1232725D01*
X252215Y1232854D01*
X251699Y1233026D01*
X251462Y1233069D01*
X251225Y1233112D01*
X251032Y1233155D01*
X250860Y1233177D01*
X250731Y1233198D01*
X255270D01*
X247215D01*
X250537D01*
X250042Y1233155D01*
X249612Y1233069D01*
X249203Y1232962D01*
X248880Y1232811D01*
X248601Y1232660D01*
X248407Y1232553D01*
X248278Y1232467D01*
X248235Y1232424D01*
X247912Y1232122D01*
X247633Y1231778D01*
X247418Y1231434D01*
X247245Y1231111D01*
X247116Y1230832D01*
X247052Y1230595D01*
X247009Y1230509D01*
Y1230444D01*
X246987Y1230401D01*
Y1230380D01*
X246751Y1230767D01*
X246514Y1231090D01*
X246256Y1231369D01*
X245998Y1231628D01*
X245739Y1231843D01*
X245481Y1232015D01*
X245223Y1232144D01*
X244986Y1232273D01*
X244750Y1232359D01*
X244535Y1232424D01*
X244341Y1232467D01*
X244169Y1232488D01*
X244040Y1232510D01*
X243932Y1232531D01*
X243868D01*
X243846D01*
X243588Y1232510D01*
X243351Y1232488D01*
X242878Y1232359D01*
X242448Y1232209D01*
X242082Y1232015D01*
X241781Y1231821D01*
X241566Y1231649D01*
X241480Y1231585D01*
X241415Y1231520D01*
X241394Y1231499D01*
X241372Y1231477D01*
X241135Y1231240D01*
X240920Y1230961D01*
X240748Y1230703D01*
X240598Y1230423D01*
X240447Y1230122D01*
X240339Y1229842D01*
X240189Y1229304D01*
X240124Y1229068D01*
X240081Y1228831D01*
X240060Y1228637D01*
X240038Y1228444D01*
X240017Y1228293D01*
Y1233198D01*
D01*
Y1234618D01*
X249924D01*
X240017D01*
Y1239889D01*
X240038Y1239523D01*
X240060Y1239179D01*
X240167Y1238512D01*
X240339Y1237953D01*
X240425Y1237695D01*
X240533Y1237458D01*
X240619Y1237243D01*
X240727Y1237071D01*
X240813Y1236899D01*
X240877Y1236769D01*
X240963Y1236662D01*
X241006Y1236597D01*
X241028Y1236554D01*
X241049Y1236533D01*
X241264Y1236296D01*
X241480Y1236081D01*
X241738Y1235887D01*
X242017Y1235715D01*
X242577Y1235457D01*
X243115Y1235242D01*
X243394Y1235178D01*
X243631Y1235113D01*
X243846Y1235048D01*
X244040Y1235027D01*
X244212Y1234984D01*
X244319D01*
X244405Y1234962D01*
X244427D01*
X244707Y1237802D01*
X244276Y1237845D01*
X243911Y1237931D01*
X243588Y1238017D01*
X243351Y1238125D01*
X243158Y1238211D01*
X243029Y1238297D01*
X242943Y1238362D01*
X242921Y1238383D01*
X242749Y1238598D01*
X242620Y1238835D01*
X242512Y1239072D01*
X242448Y1239308D01*
X242405Y1239502D01*
X242383Y1239674D01*
Y1239824D01*
X242405Y1240147D01*
X242469Y1240427D01*
X242555Y1240664D01*
X242641Y1240879D01*
X242728Y1241029D01*
X242813Y1241158D01*
X242878Y1241223D01*
X242900Y1241244D01*
X243115Y1241416D01*
X243351Y1241545D01*
X243588Y1241632D01*
X243825Y1241696D01*
X244040Y1241739D01*
X244233Y1241761D01*
X244341D01*
X244363D01*
X244384D01*
X244707Y1241739D01*
X245008Y1241675D01*
X245309Y1241567D01*
X245567Y1241460D01*
X245804Y1241352D01*
X245976Y1241244D01*
X246084Y1241180D01*
X246127Y1241158D01*
X246256Y1241072D01*
X246406Y1240943D01*
X246600Y1240771D01*
X246772Y1240599D01*
X247181Y1240212D01*
X247590Y1239824D01*
X247977Y1239437D01*
X248149Y1239265D01*
X248278Y1239093D01*
X248407Y1238964D01*
X248493Y1238878D01*
X248558Y1238813D01*
X248579Y1238792D01*
X248988Y1238362D01*
X249375Y1237974D01*
X249741Y1237608D01*
X250064Y1237286D01*
X250386Y1236985D01*
X250688Y1236727D01*
X250946Y1236490D01*
X251204Y1236296D01*
X251419Y1236124D01*
X251613Y1235974D01*
X251763Y1235844D01*
X251914Y1235758D01*
X252000Y1235672D01*
X252086Y1235629D01*
X252129Y1235586D01*
X252150D01*
X252645Y1235306D01*
X253162Y1235091D01*
X253635Y1234919D01*
X254065Y1234790D01*
X254452Y1234704D01*
X254603Y1234683D01*
X254732Y1234661D01*
X254840Y1234640D01*
X254926Y1234618D01*
X254990D01*
Y1244622D01*
X244990D01*
X252344D01*
Y1238942D01*
X252064Y1239115D01*
X251828Y1239308D01*
X251720Y1239394D01*
X251634Y1239459D01*
X251591Y1239502D01*
X251570Y1239523D01*
X251484Y1239609D01*
X251376Y1239695D01*
X251139Y1239954D01*
X250860Y1240233D01*
X250580Y1240513D01*
X250322Y1240793D01*
X250107Y1241029D01*
X250021Y1241115D01*
X249956Y1241180D01*
X249935Y1241223D01*
X249913Y1241244D01*
X249461Y1241718D01*
X249095Y1242105D01*
X248751Y1242428D01*
X248493Y1242686D01*
X248278Y1242879D01*
X248127Y1243008D01*
X248020Y1243094D01*
X247998Y1243116D01*
X247633Y1243396D01*
X247288Y1243632D01*
X246966Y1243826D01*
X246686Y1243977D01*
X246449Y1244106D01*
X246256Y1244192D01*
X246148Y1244235D01*
X246105Y1244256D01*
X245761Y1244385D01*
X245417Y1244471D01*
X245094Y1244536D01*
X244793Y1244579D01*
X244556Y1244601D01*
X244363Y1244622D01*
X243233D01*
X244190D01*
X243868Y1244601D01*
X243545Y1244557D01*
X243244Y1244514D01*
X242964Y1244428D01*
X242469Y1244213D01*
X242039Y1243998D01*
X241845Y1243869D01*
X241695Y1243762D01*
X241544Y1243654D01*
X241437Y1243546D01*
X241351Y1243460D01*
X241264Y1243417D01*
X241243Y1243374D01*
X241222Y1243353D01*
X241006Y1243116D01*
X240813Y1242836D01*
X240662Y1242578D01*
X240533Y1242277D01*
X240318Y1241718D01*
X240167Y1241158D01*
X240124Y1240900D01*
X240081Y1240664D01*
X240060Y1240448D01*
X240038Y1240255D01*
X240017Y1240104D01*
Y1244622D01*
D01*
Y1259553D01*
X255270D01*
Y1165860D01*
D02*
G37*
G36*
X250817Y1230251D02*
X251182Y1230186D01*
X251505Y1230079D01*
X251763Y1229971D01*
X251957Y1229842D01*
X252108Y1229756D01*
X252215Y1229670D01*
X252237Y1229648D01*
X252452Y1229412D01*
X252624Y1229154D01*
X252731Y1228917D01*
X252817Y1228680D01*
X252861Y1228465D01*
X252882Y1228315D01*
X252903Y1228207D01*
Y1228164D01*
X252882Y1227863D01*
X252817Y1227605D01*
X252731Y1227368D01*
X252624Y1227153D01*
X252538Y1227002D01*
X252452Y1226873D01*
X252387Y1226787D01*
X252366Y1226766D01*
X252129Y1226572D01*
X251871Y1226400D01*
X251591Y1226292D01*
X251333Y1226185D01*
X251096Y1226120D01*
X250903Y1226077D01*
X250774Y1226056D01*
X250752D01*
X250731D01*
X251075Y1223302D01*
X240017D01*
Y1228099D01*
X240038Y1227648D01*
X240081Y1227239D01*
X240167Y1226852D01*
X240253Y1226529D01*
X240339Y1226271D01*
X240425Y1226056D01*
X240469Y1225927D01*
X240490Y1225905D01*
Y1225883D01*
X240684Y1225539D01*
X240899Y1225217D01*
X241114Y1224958D01*
X241308Y1224743D01*
X241501Y1224571D01*
X241652Y1224442D01*
X241738Y1224356D01*
X241781Y1224334D01*
X242104Y1224141D01*
X242448Y1223969D01*
X242813Y1223840D01*
X243158Y1223711D01*
X243480Y1223625D01*
X243717Y1223560D01*
X243825Y1223539D01*
X243889D01*
X243932Y1223517D01*
X243954D01*
X244384Y1226142D01*
X244040Y1226206D01*
X243739Y1226292D01*
X243480Y1226378D01*
X243287Y1226486D01*
X243115Y1226593D01*
X242986Y1226680D01*
X242921Y1226744D01*
X242900Y1226766D01*
X242728Y1226959D01*
X242598Y1227174D01*
X242512Y1227390D01*
X242448Y1227583D01*
X242405Y1227755D01*
X242383Y1227884D01*
Y1228013D01*
X242405Y1228271D01*
X242448Y1228530D01*
X242534Y1228723D01*
X242598Y1228895D01*
X242684Y1229046D01*
X242771Y1229132D01*
X242813Y1229197D01*
X242835Y1229218D01*
X243007Y1229369D01*
X243222Y1229476D01*
X243416Y1229562D01*
X243610Y1229605D01*
X243782Y1229648D01*
X243911Y1229670D01*
X243997D01*
X244040D01*
X244363Y1229648D01*
X244642Y1229584D01*
X244879Y1229476D01*
X245072Y1229369D01*
X245245Y1229240D01*
X245352Y1229154D01*
X245438Y1229068D01*
X245460Y1229046D01*
X245632Y1228788D01*
X245761Y1228508D01*
X245847Y1228207D01*
X245912Y1227927D01*
X245933Y1227669D01*
X245954Y1227454D01*
Y1227260D01*
X248256Y1226959D01*
X248192Y1227239D01*
X248127Y1227476D01*
X248084Y1227712D01*
X248063Y1227906D01*
X248041Y1228056D01*
Y1228271D01*
X248063Y1228573D01*
X248149Y1228831D01*
X248235Y1229068D01*
X248364Y1229283D01*
X248472Y1229433D01*
X248579Y1229562D01*
X248665Y1229648D01*
X248687Y1229670D01*
X248945Y1229864D01*
X249225Y1230014D01*
X249504Y1230122D01*
X249784Y1230208D01*
X250042Y1230251D01*
X250236Y1230272D01*
X250365D01*
X250386D01*
X250408D01*
X250817Y1230251D01*
D02*
G37*
G36*
X244363Y1211491D02*
X244642Y1211426D01*
X244857Y1211362D01*
X245051Y1211276D01*
X245223Y1211168D01*
X245331Y1211104D01*
X245395Y1211039D01*
X245417Y1211018D01*
X245567Y1210824D01*
X245696Y1210609D01*
X245782Y1210394D01*
X245825Y1210178D01*
X245868Y1209985D01*
X245890Y1209834D01*
Y1209705D01*
X245868Y1209425D01*
X245825Y1209167D01*
X245739Y1208952D01*
X245653Y1208758D01*
X245567Y1208608D01*
X245481Y1208500D01*
X245438Y1208436D01*
X245417Y1208414D01*
X245223Y1208264D01*
X245008Y1208135D01*
X244793Y1208049D01*
X244578Y1208006D01*
X244384Y1207962D01*
X244233Y1207941D01*
X244126D01*
X244083D01*
X243782Y1207962D01*
X243524Y1208006D01*
X243308Y1208092D01*
X243115Y1208178D01*
X242964Y1208264D01*
X242857Y1208350D01*
X242792Y1208393D01*
X242771Y1208414D01*
X242598Y1208608D01*
X242491Y1208823D01*
X242405Y1209038D01*
X242340Y1209253D01*
X242297Y1209447D01*
X242276Y1209598D01*
Y1209727D01*
X242297Y1210006D01*
X242362Y1210265D01*
X242426Y1210480D01*
X242512Y1210673D01*
X242620Y1210824D01*
X242684Y1210931D01*
X242749Y1210996D01*
X242771Y1211018D01*
X242964Y1211190D01*
X243179Y1211297D01*
X243394Y1211383D01*
X243610Y1211448D01*
X243782Y1211491D01*
X243932Y1211512D01*
X244018D01*
X244061D01*
X244363Y1211491D01*
D02*
G37*
G36*
X250924Y1211835D02*
X251290Y1211770D01*
X251613Y1211663D01*
X251871Y1211555D01*
X252086Y1211448D01*
X252215Y1211340D01*
X252323Y1211276D01*
X252344Y1211254D01*
X252559Y1211018D01*
X252710Y1210781D01*
X252817Y1210544D01*
X252882Y1210307D01*
X252925Y1210092D01*
X252968Y1209942D01*
Y1209791D01*
X252946Y1209469D01*
X252861Y1209167D01*
X252753Y1208909D01*
X252645Y1208694D01*
X252516Y1208522D01*
X252430Y1208393D01*
X252344Y1208307D01*
X252323Y1208285D01*
X252043Y1208092D01*
X251742Y1207941D01*
X251441Y1207833D01*
X251139Y1207769D01*
X250860Y1207726D01*
X250644Y1207683D01*
X250558D01*
X250494D01*
X250472D01*
X250451D01*
X250150Y1207704D01*
X249848Y1207769D01*
X249590Y1207833D01*
X249354Y1207941D01*
X249160Y1208027D01*
X249009Y1208092D01*
X248923Y1208156D01*
X248880Y1208178D01*
X248644Y1208393D01*
X248450Y1208651D01*
X248321Y1208909D01*
X248235Y1209167D01*
X248192Y1209382D01*
X248149Y1209576D01*
Y1209748D01*
X248170Y1210071D01*
X248256Y1210372D01*
X248343Y1210630D01*
X248472Y1210845D01*
X248579Y1211018D01*
X248687Y1211146D01*
X248773Y1211233D01*
X248794Y1211254D01*
X249053Y1211448D01*
X249332Y1211598D01*
X249612Y1211706D01*
X249892Y1211792D01*
X250128Y1211835D01*
X250322Y1211857D01*
X250451D01*
X250472D01*
X250494D01*
X250924Y1211835D01*
D02*
G37*
G36*
X251118Y1172895D02*
X240103Y1169109D01*
Y1176531D01*
X251118Y1172895D01*
D02*
G37*
%LPC*%
G36*
X386282Y1032773D02*
X383793D01*
Y1030470D01*
X386282D01*
Y1032773D01*
D02*
G37*
G36*
X434580Y1029422D02*
X434430D01*
X434205Y1029403D01*
X434018Y1029385D01*
X433831Y1029329D01*
X433681Y1029272D01*
X433550Y1029216D01*
X433438Y1029179D01*
X433382Y1029141D01*
X433363Y1029123D01*
X433176Y1028991D01*
X433007Y1028804D01*
X432820Y1028598D01*
X432670Y1028392D01*
X432520Y1028187D01*
X432408Y1028018D01*
X432333Y1027906D01*
X432314Y1027887D01*
Y1029216D01*
X430012D01*
Y1019819D01*
X432502D01*
Y1022702D01*
Y1023132D01*
Y1023525D01*
X432520Y1023881D01*
X432539Y1024199D01*
Y1024499D01*
X432558Y1024742D01*
X432576Y1024986D01*
X432595Y1025173D01*
X432614Y1025341D01*
X432633Y1025491D01*
X432651Y1025603D01*
Y1025697D01*
X432670Y1025753D01*
X432689Y1025809D01*
Y1025847D01*
X432764Y1026109D01*
X432857Y1026333D01*
X432951Y1026520D01*
X433045Y1026652D01*
X433119Y1026764D01*
X433194Y1026839D01*
X433232Y1026876D01*
X433250Y1026895D01*
X433400Y1026989D01*
X433550Y1027063D01*
X433700Y1027120D01*
X433831Y1027157D01*
X433943Y1027176D01*
X434055Y1027194D01*
X434130D01*
X434336Y1027176D01*
X434542Y1027138D01*
X434729Y1027063D01*
X434916Y1026989D01*
X435066Y1026914D01*
X435179Y1026839D01*
X435272Y1026801D01*
X435291Y1026783D01*
X436077Y1028935D01*
X435778Y1029104D01*
X435497Y1029216D01*
X435216Y1029310D01*
X434954Y1029366D01*
X434748Y1029403D01*
X434580Y1029422D01*
D02*
G37*
G36*
X375200D02*
X375051D01*
X374826Y1029403D01*
X374639Y1029385D01*
X374451Y1029329D01*
X374302Y1029272D01*
X374171Y1029216D01*
X374058Y1029179D01*
X374002Y1029141D01*
X373983Y1029123D01*
X373796Y1028991D01*
X373628Y1028804D01*
X373441Y1028598D01*
X373291Y1028392D01*
X373141Y1028187D01*
X373029Y1028018D01*
X372954Y1027906D01*
X372935Y1027887D01*
Y1029216D01*
X370633D01*
Y1019819D01*
X373122D01*
Y1022702D01*
Y1023132D01*
Y1023525D01*
X373141Y1023881D01*
X373160Y1024199D01*
Y1024499D01*
X373179Y1024742D01*
X373197Y1024986D01*
X373216Y1025173D01*
X373235Y1025341D01*
X373254Y1025491D01*
X373272Y1025603D01*
Y1025697D01*
X373291Y1025753D01*
X373310Y1025809D01*
Y1025847D01*
X373385Y1026109D01*
X373478Y1026333D01*
X373572Y1026520D01*
X373665Y1026652D01*
X373740Y1026764D01*
X373815Y1026839D01*
X373853Y1026876D01*
X373871Y1026895D01*
X374021Y1026989D01*
X374171Y1027063D01*
X374320Y1027120D01*
X374451Y1027157D01*
X374564Y1027176D01*
X374676Y1027194D01*
X374751D01*
X374957Y1027176D01*
X375163Y1027138D01*
X375350Y1027063D01*
X375537Y1026989D01*
X375687Y1026914D01*
X375799Y1026839D01*
X375893Y1026801D01*
X375912Y1026783D01*
X376698Y1028935D01*
X376398Y1029104D01*
X376118Y1029216D01*
X375837Y1029310D01*
X375575Y1029366D01*
X375369Y1029403D01*
X375200Y1029422D01*
D02*
G37*
G36*
X345024D02*
X344893D01*
X344556Y1029403D01*
X344219Y1029347D01*
X343919Y1029272D01*
X343620Y1029179D01*
X343339Y1029048D01*
X343096Y1028917D01*
X342853Y1028767D01*
X342647Y1028636D01*
X342459Y1028486D01*
X342291Y1028336D01*
X342141Y1028205D01*
X342029Y1028074D01*
X341935Y1027981D01*
X341860Y1027906D01*
X341823Y1027850D01*
X341804Y1027831D01*
Y1029216D01*
X339502D01*
Y1019819D01*
X341991D01*
Y1024050D01*
Y1024330D01*
Y1024592D01*
X342010Y1024836D01*
X342029Y1025042D01*
Y1025248D01*
X342048Y1025416D01*
X342066Y1025584D01*
X342085Y1025716D01*
X342122Y1025940D01*
X342141Y1026090D01*
X342179Y1026184D01*
Y1026202D01*
X342253Y1026408D01*
X342366Y1026614D01*
X342478Y1026764D01*
X342590Y1026914D01*
X342703Y1027007D01*
X342796Y1027101D01*
X342853Y1027138D01*
X342871Y1027157D01*
X343077Y1027269D01*
X343283Y1027363D01*
X343470Y1027419D01*
X343657Y1027475D01*
X343807Y1027494D01*
X343919Y1027513D01*
X344032D01*
X344219Y1027494D01*
X344388Y1027475D01*
X344519Y1027438D01*
X344650Y1027382D01*
X344762Y1027326D01*
X344837Y1027288D01*
X344874Y1027269D01*
X344893Y1027251D01*
X345024Y1027157D01*
X345118Y1027045D01*
X345286Y1026820D01*
X345342Y1026708D01*
X345380Y1026633D01*
X345417Y1026577D01*
Y1026558D01*
X345455Y1026464D01*
X345473Y1026352D01*
X345511Y1026071D01*
X345548Y1025734D01*
X345567Y1025416D01*
X345586Y1025098D01*
Y1024967D01*
Y1024836D01*
Y1024742D01*
Y1024667D01*
Y1024611D01*
Y1024592D01*
Y1019819D01*
X348075D01*
Y1026034D01*
X348057Y1026352D01*
X348038Y1026652D01*
X348000Y1026876D01*
X347982Y1027063D01*
X347944Y1027194D01*
X347926Y1027288D01*
Y1027307D01*
X347869Y1027531D01*
X347794Y1027719D01*
X347720Y1027906D01*
X347626Y1028056D01*
X347551Y1028187D01*
X347495Y1028280D01*
X347458Y1028336D01*
X347439Y1028355D01*
X347289Y1028523D01*
X347121Y1028673D01*
X346952Y1028804D01*
X346784Y1028917D01*
X346634Y1029010D01*
X346503Y1029066D01*
X346428Y1029104D01*
X346390Y1029123D01*
X346129Y1029216D01*
X345866Y1029291D01*
X345623Y1029347D01*
X345398Y1029385D01*
X345192Y1029403D01*
X345024Y1029422D01*
D02*
G37*
G36*
X402644D02*
X401951D01*
X401614Y1029385D01*
X401296Y1029347D01*
X400996Y1029291D01*
X400734Y1029235D01*
X400491Y1029160D01*
X400266Y1029085D01*
X400060Y1029010D01*
X399892Y1028917D01*
X399742Y1028842D01*
X399611Y1028767D01*
X399517Y1028711D01*
X399424Y1028655D01*
X399368Y1028617D01*
X399349Y1028598D01*
X399330Y1028580D01*
X399162Y1028430D01*
X399012Y1028261D01*
X398881Y1028093D01*
X398787Y1027906D01*
X398600Y1027569D01*
X398488Y1027251D01*
X398432Y1026970D01*
X398413Y1026839D01*
X398394Y1026745D01*
X398375Y1026652D01*
Y1026595D01*
Y1026558D01*
Y1026539D01*
X398394Y1026296D01*
X398432Y1026071D01*
X398469Y1025847D01*
X398544Y1025641D01*
X398731Y1025285D01*
X398937Y1024986D01*
X399124Y1024742D01*
X399311Y1024574D01*
X399386Y1024499D01*
X399424Y1024461D01*
X399461Y1024443D01*
X399480Y1024424D01*
X399648Y1024330D01*
X399873Y1024218D01*
X400135Y1024106D01*
X400416Y1024012D01*
X400715Y1023900D01*
X401034Y1023806D01*
X401689Y1023619D01*
X402007Y1023525D01*
X402307Y1023450D01*
X402569Y1023376D01*
X402812Y1023319D01*
X403018Y1023282D01*
X403168Y1023245D01*
X403261Y1023207D01*
X403299D01*
X403523Y1023151D01*
X403692Y1023095D01*
X403842Y1023039D01*
X403954Y1023001D01*
X404029Y1022945D01*
X404085Y1022926D01*
X404122Y1022889D01*
X404235Y1022739D01*
X404291Y1022589D01*
X404310Y1022477D01*
Y1022440D01*
Y1022421D01*
X404291Y1022271D01*
X404253Y1022140D01*
X404197Y1022028D01*
X404141Y1021934D01*
X404085Y1021859D01*
X404029Y1021803D01*
X403991Y1021766D01*
X403973Y1021747D01*
X403767Y1021635D01*
X403542Y1021560D01*
X403299Y1021485D01*
X403074Y1021448D01*
X402868Y1021429D01*
X402681Y1021410D01*
X402531D01*
X402213Y1021429D01*
X401951Y1021466D01*
X401708Y1021522D01*
X401520Y1021597D01*
X401371Y1021653D01*
X401258Y1021710D01*
X401183Y1021747D01*
X401165Y1021766D01*
X400996Y1021916D01*
X400865Y1022103D01*
X400753Y1022271D01*
X400659Y1022458D01*
X400603Y1022627D01*
X400566Y1022758D01*
X400528Y1022833D01*
Y1022870D01*
X398038Y1022496D01*
X398207Y1022028D01*
X398413Y1021597D01*
X398638Y1021242D01*
X398881Y1020942D01*
X399105Y1020699D01*
X399311Y1020530D01*
X399368Y1020455D01*
X399424Y1020418D01*
X399461Y1020399D01*
X399480Y1020380D01*
X399705Y1020249D01*
X399929Y1020118D01*
X400435Y1019931D01*
X400940Y1019800D01*
X401427Y1019706D01*
X401651Y1019669D01*
X401857Y1019650D01*
X402044Y1019632D01*
X402213D01*
X402344Y1019613D01*
X402531D01*
X402906Y1019632D01*
X403261Y1019650D01*
X403598Y1019706D01*
X403917Y1019763D01*
X404197Y1019819D01*
X404459Y1019912D01*
X404703Y1019987D01*
X404909Y1020081D01*
X405096Y1020156D01*
X405264Y1020249D01*
X405395Y1020324D01*
X405508Y1020380D01*
X405601Y1020455D01*
X405657Y1020493D01*
X405695Y1020511D01*
X405714Y1020530D01*
X405901Y1020717D01*
X406069Y1020905D01*
X406219Y1021092D01*
X406350Y1021279D01*
X406444Y1021466D01*
X406537Y1021653D01*
X406668Y1021990D01*
X406743Y1022309D01*
X406762Y1022440D01*
X406781Y1022533D01*
X406799Y1022627D01*
Y1022758D01*
X406762Y1023170D01*
X406668Y1023544D01*
X406556Y1023862D01*
X406406Y1024124D01*
X406256Y1024330D01*
X406144Y1024480D01*
X406050Y1024555D01*
X406013Y1024592D01*
X405845Y1024705D01*
X405676Y1024836D01*
X405470Y1024929D01*
X405246Y1025042D01*
X404796Y1025229D01*
X404328Y1025397D01*
X403917Y1025528D01*
X403729Y1025566D01*
X403561Y1025622D01*
X403430Y1025659D01*
X403336Y1025678D01*
X403261Y1025697D01*
X403243D01*
X402887Y1025790D01*
X402569Y1025865D01*
X402288Y1025940D01*
X402044Y1026015D01*
X401820Y1026071D01*
X401633Y1026127D01*
X401483Y1026184D01*
X401333Y1026221D01*
X401221Y1026277D01*
X401127Y1026315D01*
X401052Y1026333D01*
X401015Y1026371D01*
X400940Y1026389D01*
X400921Y1026408D01*
X400846Y1026483D01*
X400790Y1026558D01*
X400715Y1026708D01*
X400678Y1026820D01*
Y1026839D01*
Y1026858D01*
X400697Y1026970D01*
X400715Y1027063D01*
X400828Y1027232D01*
X400921Y1027326D01*
X400940Y1027363D01*
X400959D01*
X401146Y1027457D01*
X401352Y1027531D01*
X401576Y1027569D01*
X401820Y1027606D01*
X402026Y1027625D01*
X402194Y1027644D01*
X402363D01*
X402644Y1027625D01*
X402887Y1027606D01*
X403093Y1027550D01*
X403261Y1027494D01*
X403392Y1027438D01*
X403486Y1027400D01*
X403542Y1027363D01*
X403561Y1027344D01*
X403711Y1027232D01*
X403823Y1027101D01*
X403935Y1026970D01*
X404010Y1026820D01*
X404066Y1026708D01*
X404104Y1026614D01*
X404141Y1026539D01*
Y1026520D01*
X406481Y1026951D01*
X406331Y1027382D01*
X406125Y1027756D01*
X405919Y1028074D01*
X405695Y1028318D01*
X405508Y1028523D01*
X405339Y1028673D01*
X405227Y1028748D01*
X405208Y1028786D01*
X405189D01*
X405002Y1028898D01*
X404796Y1028991D01*
X404347Y1029160D01*
X403879Y1029272D01*
X403411Y1029347D01*
X403186Y1029366D01*
X402980Y1029385D01*
X402793Y1029403D01*
X402644Y1029422D01*
D02*
G37*
G36*
X392572D02*
X391880D01*
X391543Y1029385D01*
X391225Y1029347D01*
X390925Y1029291D01*
X390663Y1029235D01*
X390420Y1029160D01*
X390195Y1029085D01*
X389989Y1029010D01*
X389821Y1028917D01*
X389671Y1028842D01*
X389540Y1028767D01*
X389446Y1028711D01*
X389352Y1028655D01*
X389296Y1028617D01*
X389278Y1028598D01*
X389259Y1028580D01*
X389090Y1028430D01*
X388941Y1028261D01*
X388810Y1028093D01*
X388716Y1027906D01*
X388529Y1027569D01*
X388416Y1027251D01*
X388360Y1026970D01*
X388342Y1026839D01*
X388323Y1026745D01*
X388304Y1026652D01*
Y1026595D01*
Y1026558D01*
Y1026539D01*
X388323Y1026296D01*
X388360Y1026071D01*
X388398Y1025847D01*
X388473Y1025641D01*
X388660Y1025285D01*
X388866Y1024986D01*
X389053Y1024742D01*
X389240Y1024574D01*
X389315Y1024499D01*
X389352Y1024461D01*
X389390Y1024443D01*
X389409Y1024424D01*
X389577Y1024330D01*
X389802Y1024218D01*
X390064Y1024106D01*
X390345Y1024012D01*
X390644Y1023900D01*
X390962Y1023806D01*
X391618Y1023619D01*
X391936Y1023525D01*
X392235Y1023450D01*
X392497Y1023376D01*
X392741Y1023319D01*
X392947Y1023282D01*
X393096Y1023245D01*
X393190Y1023207D01*
X393228D01*
X393452Y1023151D01*
X393621Y1023095D01*
X393770Y1023039D01*
X393883Y1023001D01*
X393958Y1022945D01*
X394014Y1022926D01*
X394051Y1022889D01*
X394164Y1022739D01*
X394220Y1022589D01*
X394238Y1022477D01*
Y1022440D01*
Y1022421D01*
X394220Y1022271D01*
X394182Y1022140D01*
X394126Y1022028D01*
X394070Y1021934D01*
X394014Y1021859D01*
X393958Y1021803D01*
X393920Y1021766D01*
X393901Y1021747D01*
X393695Y1021635D01*
X393471Y1021560D01*
X393228Y1021485D01*
X393003Y1021448D01*
X392797Y1021429D01*
X392610Y1021410D01*
X392460D01*
X392142Y1021429D01*
X391880Y1021466D01*
X391636Y1021522D01*
X391449Y1021597D01*
X391299Y1021653D01*
X391187Y1021710D01*
X391112Y1021747D01*
X391093Y1021766D01*
X390925Y1021916D01*
X390794Y1022103D01*
X390682Y1022271D01*
X390588Y1022458D01*
X390532Y1022627D01*
X390494Y1022758D01*
X390457Y1022833D01*
Y1022870D01*
X387967Y1022496D01*
X388136Y1022028D01*
X388342Y1021597D01*
X388566Y1021242D01*
X388810Y1020942D01*
X389034Y1020699D01*
X389240Y1020530D01*
X389296Y1020455D01*
X389352Y1020418D01*
X389390Y1020399D01*
X389409Y1020380D01*
X389633Y1020249D01*
X389858Y1020118D01*
X390363Y1019931D01*
X390869Y1019800D01*
X391356Y1019706D01*
X391580Y1019669D01*
X391786Y1019650D01*
X391973Y1019632D01*
X392142D01*
X392273Y1019613D01*
X392460D01*
X392834Y1019632D01*
X393190Y1019650D01*
X393527Y1019706D01*
X393845Y1019763D01*
X394126Y1019819D01*
X394388Y1019912D01*
X394632Y1019987D01*
X394837Y1020081D01*
X395025Y1020156D01*
X395193Y1020249D01*
X395324Y1020324D01*
X395436Y1020380D01*
X395530Y1020455D01*
X395586Y1020493D01*
X395624Y1020511D01*
X395642Y1020530D01*
X395830Y1020717D01*
X395998Y1020905D01*
X396148Y1021092D01*
X396279Y1021279D01*
X396372Y1021466D01*
X396466Y1021653D01*
X396597Y1021990D01*
X396672Y1022309D01*
X396691Y1022440D01*
X396709Y1022533D01*
X396728Y1022627D01*
Y1022758D01*
X396691Y1023170D01*
X396597Y1023544D01*
X396485Y1023862D01*
X396335Y1024124D01*
X396185Y1024330D01*
X396073Y1024480D01*
X395979Y1024555D01*
X395942Y1024592D01*
X395773Y1024705D01*
X395605Y1024836D01*
X395399Y1024929D01*
X395174Y1025042D01*
X394725Y1025229D01*
X394257Y1025397D01*
X393845Y1025528D01*
X393658Y1025566D01*
X393490Y1025622D01*
X393358Y1025659D01*
X393265Y1025678D01*
X393190Y1025697D01*
X393171D01*
X392816Y1025790D01*
X392497Y1025865D01*
X392217Y1025940D01*
X391973Y1026015D01*
X391749Y1026071D01*
X391561Y1026127D01*
X391412Y1026184D01*
X391262Y1026221D01*
X391150Y1026277D01*
X391056Y1026315D01*
X390981Y1026333D01*
X390944Y1026371D01*
X390869Y1026389D01*
X390850Y1026408D01*
X390775Y1026483D01*
X390719Y1026558D01*
X390644Y1026708D01*
X390607Y1026820D01*
Y1026839D01*
Y1026858D01*
X390625Y1026970D01*
X390644Y1027063D01*
X390756Y1027232D01*
X390850Y1027326D01*
X390869Y1027363D01*
X390887D01*
X391075Y1027457D01*
X391281Y1027531D01*
X391505Y1027569D01*
X391749Y1027606D01*
X391954Y1027625D01*
X392123Y1027644D01*
X392291D01*
X392572Y1027625D01*
X392816Y1027606D01*
X393022Y1027550D01*
X393190Y1027494D01*
X393321Y1027438D01*
X393415Y1027400D01*
X393471Y1027363D01*
X393490Y1027344D01*
X393639Y1027232D01*
X393752Y1027101D01*
X393864Y1026970D01*
X393939Y1026820D01*
X393995Y1026708D01*
X394032Y1026614D01*
X394070Y1026539D01*
Y1026520D01*
X396410Y1026951D01*
X396260Y1027382D01*
X396054Y1027756D01*
X395848Y1028074D01*
X395624Y1028318D01*
X395436Y1028523D01*
X395268Y1028673D01*
X395156Y1028748D01*
X395137Y1028786D01*
X395118D01*
X394931Y1028898D01*
X394725Y1028991D01*
X394276Y1029160D01*
X393808Y1029272D01*
X393340Y1029347D01*
X393115Y1029366D01*
X392909Y1029385D01*
X392722Y1029403D01*
X392572Y1029422D01*
D02*
G37*
G36*
X495644D02*
X495475D01*
X495101Y1029403D01*
X494745Y1029366D01*
X494389Y1029310D01*
X494090Y1029216D01*
X493790Y1029123D01*
X493509Y1029010D01*
X493266Y1028898D01*
X493041Y1028767D01*
X492836Y1028655D01*
X492667Y1028523D01*
X492517Y1028411D01*
X492386Y1028318D01*
X492293Y1028224D01*
X492218Y1028168D01*
X492180Y1028130D01*
X492162Y1028112D01*
X491956Y1027850D01*
X491768Y1027588D01*
X491600Y1027307D01*
X491450Y1027007D01*
X491338Y1026708D01*
X491244Y1026408D01*
X491095Y1025828D01*
X491038Y1025547D01*
X491001Y1025304D01*
X490982Y1025079D01*
X490964Y1024873D01*
X490945Y1024723D01*
Y1024499D01*
X490964Y1024087D01*
X491001Y1023675D01*
X491057Y1023319D01*
X491132Y1022964D01*
X491226Y1022645D01*
X491338Y1022346D01*
X491432Y1022084D01*
X491563Y1021841D01*
X491675Y1021616D01*
X491768Y1021429D01*
X491881Y1021279D01*
X491974Y1021148D01*
X492049Y1021036D01*
X492105Y1020961D01*
X492143Y1020923D01*
X492162Y1020905D01*
X492405Y1020680D01*
X492648Y1020474D01*
X492910Y1020306D01*
X493191Y1020156D01*
X493453Y1020025D01*
X493734Y1019931D01*
X493996Y1019838D01*
X494258Y1019781D01*
X494502Y1019725D01*
X494726Y1019688D01*
X494932Y1019650D01*
X495101Y1019632D01*
X495232Y1019613D01*
X495438D01*
X495774Y1019632D01*
X496074Y1019650D01*
X496374Y1019688D01*
X496654Y1019744D01*
X496917Y1019800D01*
X497141Y1019875D01*
X497366Y1019950D01*
X497553Y1020043D01*
X497740Y1020118D01*
X497890Y1020193D01*
X498021Y1020268D01*
X498133Y1020324D01*
X498208Y1020380D01*
X498264Y1020418D01*
X498302Y1020455D01*
X498320D01*
X498508Y1020624D01*
X498695Y1020811D01*
X499013Y1021223D01*
X499275Y1021635D01*
X499462Y1022047D01*
X499612Y1022421D01*
X499668Y1022589D01*
X499724Y1022720D01*
X499762Y1022833D01*
X499781Y1022926D01*
X499799Y1022982D01*
Y1023001D01*
X497366Y1023413D01*
X497291Y1023076D01*
X497178Y1022777D01*
X497085Y1022533D01*
X496973Y1022346D01*
X496860Y1022196D01*
X496785Y1022103D01*
X496729Y1022047D01*
X496711Y1022028D01*
X496523Y1021897D01*
X496336Y1021803D01*
X496149Y1021728D01*
X495962Y1021691D01*
X495793Y1021653D01*
X495662Y1021635D01*
X495550D01*
X495213Y1021672D01*
X494913Y1021747D01*
X494670Y1021841D01*
X494445Y1021972D01*
X494277Y1022103D01*
X494165Y1022196D01*
X494071Y1022271D01*
X494052Y1022309D01*
X493959Y1022458D01*
X493865Y1022608D01*
X493734Y1022964D01*
X493622Y1023357D01*
X493566Y1023750D01*
X493528Y1024124D01*
X493509Y1024274D01*
Y1024405D01*
X493491Y1024518D01*
Y1024611D01*
Y1024667D01*
Y1024686D01*
Y1024948D01*
X493509Y1025210D01*
X493547Y1025435D01*
X493584Y1025659D01*
X493622Y1025847D01*
X493659Y1026015D01*
X493772Y1026315D01*
X493865Y1026539D01*
X493959Y1026689D01*
X494015Y1026783D01*
X494034Y1026820D01*
X494258Y1027045D01*
X494502Y1027194D01*
X494745Y1027307D01*
X494970Y1027400D01*
X495194Y1027438D01*
X495363Y1027457D01*
X495475Y1027475D01*
X495513D01*
X495756Y1027457D01*
X495980Y1027419D01*
X496168Y1027363D01*
X496336Y1027288D01*
X496467Y1027213D01*
X496561Y1027157D01*
X496617Y1027120D01*
X496636Y1027101D01*
X496785Y1026951D01*
X496917Y1026783D01*
X497010Y1026595D01*
X497104Y1026427D01*
X497160Y1026258D01*
X497197Y1026127D01*
X497216Y1026052D01*
Y1026015D01*
X499668Y1026464D01*
X499481Y1026989D01*
X499256Y1027438D01*
X499013Y1027812D01*
X498770Y1028130D01*
X498545Y1028374D01*
X498377Y1028542D01*
X498302Y1028598D01*
X498246Y1028636D01*
X498227Y1028673D01*
X498208D01*
X497796Y1028917D01*
X497347Y1029104D01*
X496898Y1029235D01*
X496467Y1029329D01*
X496261Y1029366D01*
X496074Y1029385D01*
X495906Y1029403D01*
X495756D01*
X495644Y1029422D01*
D02*
G37*
G36*
X359120Y1029216D02*
X356574D01*
X354777Y1024405D01*
X354665Y1024124D01*
X354590Y1023862D01*
X354552Y1023769D01*
X354534Y1023694D01*
X354515Y1023638D01*
Y1023619D01*
X354496Y1023525D01*
X354459Y1023413D01*
X354365Y1023132D01*
X354328Y1023020D01*
X354290Y1022908D01*
X354272Y1022833D01*
X354253Y1022814D01*
X353747Y1024405D01*
X351969Y1029216D01*
X349367D01*
X353148Y1019819D01*
X355395D01*
X359120Y1029216D01*
D02*
G37*
G36*
X427560D02*
X425070D01*
Y1025248D01*
Y1024892D01*
Y1024574D01*
X425051Y1024274D01*
X425032Y1024012D01*
Y1023769D01*
X425014Y1023563D01*
X424995Y1023394D01*
X424976Y1023226D01*
X424958Y1023095D01*
X424939Y1023001D01*
X424920Y1022908D01*
Y1022833D01*
X424883Y1022739D01*
Y1022720D01*
X424808Y1022533D01*
X424696Y1022365D01*
X424583Y1022234D01*
X424471Y1022103D01*
X424358Y1021990D01*
X424265Y1021916D01*
X424209Y1021878D01*
X424190Y1021859D01*
X424003Y1021747D01*
X423797Y1021672D01*
X423610Y1021597D01*
X423423Y1021560D01*
X423273Y1021541D01*
X423160Y1021522D01*
X423048D01*
X422842Y1021541D01*
X422674Y1021560D01*
X422505Y1021597D01*
X422374Y1021653D01*
X422262Y1021691D01*
X422187Y1021728D01*
X422131Y1021747D01*
X422112Y1021766D01*
X421981Y1021878D01*
X421888Y1021990D01*
X421794Y1022103D01*
X421738Y1022215D01*
X421682Y1022327D01*
X421644Y1022402D01*
X421625Y1022458D01*
Y1022477D01*
X421607Y1022571D01*
X421588Y1022702D01*
X421569Y1022870D01*
X421550Y1023039D01*
X421532Y1023432D01*
X421513Y1023862D01*
X421494Y1024255D01*
Y1024424D01*
Y1024574D01*
Y1024705D01*
Y1024798D01*
Y1024873D01*
Y1024892D01*
Y1029216D01*
X419005D01*
Y1023263D01*
X419023Y1022795D01*
X419061Y1022383D01*
X419117Y1022028D01*
X419173Y1021728D01*
X419229Y1021485D01*
X419285Y1021316D01*
X419323Y1021223D01*
X419342Y1021185D01*
X419491Y1020923D01*
X419660Y1020680D01*
X419828Y1020493D01*
X420015Y1020324D01*
X420165Y1020193D01*
X420315Y1020100D01*
X420390Y1020043D01*
X420427Y1020025D01*
X420708Y1019894D01*
X421008Y1019781D01*
X421288Y1019706D01*
X421569Y1019669D01*
X421794Y1019632D01*
X421962Y1019613D01*
X422131D01*
X422468Y1019632D01*
X422786Y1019669D01*
X423086Y1019744D01*
X423348Y1019819D01*
X423572Y1019894D01*
X423741Y1019969D01*
X423853Y1020006D01*
X423890Y1020025D01*
X424190Y1020193D01*
X424452Y1020399D01*
X424696Y1020586D01*
X424883Y1020792D01*
X425051Y1020961D01*
X425163Y1021092D01*
X425238Y1021185D01*
X425257Y1021223D01*
Y1019819D01*
X427560D01*
Y1029216D01*
D02*
G37*
G36*
X503974Y1032773D02*
X501484D01*
Y1019819D01*
X503974D01*
Y1022814D01*
X505097Y1024031D01*
X507474Y1019819D01*
X510151D01*
X506707Y1025772D01*
X509927Y1029216D01*
X506875D01*
X503974Y1025903D01*
Y1032773D01*
D02*
G37*
G36*
X485366Y1029422D02*
X484749D01*
X484449Y1029385D01*
X484150Y1029366D01*
X483887Y1029310D01*
X483625Y1029272D01*
X483401Y1029216D01*
X483195Y1029141D01*
X483008Y1029085D01*
X482858Y1029029D01*
X482708Y1028954D01*
X482596Y1028898D01*
X482483Y1028860D01*
X482409Y1028804D01*
X482352Y1028786D01*
X482334Y1028748D01*
X482315D01*
X481997Y1028467D01*
X481735Y1028149D01*
X481510Y1027812D01*
X481323Y1027494D01*
X481192Y1027194D01*
X481136Y1027063D01*
X481098Y1026951D01*
X481061Y1026858D01*
X481042Y1026783D01*
X481023Y1026745D01*
Y1026726D01*
X483251Y1026315D01*
X483345Y1026539D01*
X483438Y1026726D01*
X483532Y1026895D01*
X483644Y1027026D01*
X483719Y1027120D01*
X483794Y1027176D01*
X483831Y1027213D01*
X483850Y1027232D01*
X484000Y1027326D01*
X484168Y1027400D01*
X484356Y1027438D01*
X484524Y1027475D01*
X484674Y1027494D01*
X484786Y1027513D01*
X484898D01*
X485235Y1027494D01*
X485516Y1027457D01*
X485741Y1027419D01*
X485928Y1027363D01*
X486059Y1027288D01*
X486153Y1027251D01*
X486209Y1027213D01*
X486227Y1027194D01*
X486358Y1027063D01*
X486452Y1026914D01*
X486508Y1026745D01*
X486564Y1026577D01*
X486583Y1026408D01*
X486602Y1026277D01*
Y1026202D01*
Y1026165D01*
Y1025921D01*
X486471Y1025865D01*
X486302Y1025809D01*
X485947Y1025697D01*
X485535Y1025603D01*
X485142Y1025510D01*
X484767Y1025416D01*
X484599Y1025379D01*
X484449Y1025360D01*
X484337Y1025341D01*
X484243Y1025322D01*
X484187Y1025304D01*
X484168D01*
X483719Y1025210D01*
X483307Y1025117D01*
X482970Y1025023D01*
X482689Y1024929D01*
X482465Y1024836D01*
X482315Y1024780D01*
X482221Y1024742D01*
X482184Y1024723D01*
X481941Y1024592D01*
X481735Y1024443D01*
X481548Y1024274D01*
X481417Y1024124D01*
X481285Y1023993D01*
X481211Y1023881D01*
X481154Y1023806D01*
X481136Y1023769D01*
X481005Y1023525D01*
X480911Y1023282D01*
X480855Y1023057D01*
X480817Y1022833D01*
X480780Y1022645D01*
X480761Y1022496D01*
Y1022365D01*
X480780Y1022140D01*
X480799Y1021934D01*
X480892Y1021541D01*
X481023Y1021204D01*
X481173Y1020923D01*
X481323Y1020699D01*
X481454Y1020530D01*
X481548Y1020418D01*
X481585Y1020399D01*
Y1020380D01*
X481922Y1020118D01*
X482296Y1019931D01*
X482671Y1019800D01*
X483045Y1019706D01*
X483363Y1019650D01*
X483513Y1019632D01*
X483625D01*
X483738Y1019613D01*
X483869D01*
X484168Y1019632D01*
X484468Y1019669D01*
X484730Y1019706D01*
X484954Y1019763D01*
X485142Y1019819D01*
X485291Y1019875D01*
X485385Y1019894D01*
X485423Y1019912D01*
X485685Y1020043D01*
X485947Y1020174D01*
X486171Y1020343D01*
X486377Y1020493D01*
X486546Y1020624D01*
X486677Y1020736D01*
X486752Y1020811D01*
X486789Y1020830D01*
X486808Y1020755D01*
X486845Y1020661D01*
X486864Y1020586D01*
X486883Y1020568D01*
Y1020549D01*
X486939Y1020380D01*
X486976Y1020231D01*
X487014Y1020100D01*
X487051Y1020006D01*
X487089Y1019931D01*
X487107Y1019856D01*
X487126Y1019838D01*
Y1019819D01*
X489578D01*
X489466Y1020062D01*
X489372Y1020287D01*
X489297Y1020493D01*
X489223Y1020680D01*
X489185Y1020830D01*
X489148Y1020961D01*
X489129Y1021036D01*
Y1021054D01*
X489092Y1021298D01*
X489073Y1021597D01*
X489035Y1021897D01*
Y1022196D01*
X489017Y1022458D01*
Y1022683D01*
Y1022777D01*
Y1022833D01*
Y1022870D01*
Y1022889D01*
X489054Y1025790D01*
Y1026090D01*
X489035Y1026352D01*
X489017Y1026595D01*
X488998Y1026820D01*
X488979Y1027026D01*
X488942Y1027213D01*
X488923Y1027382D01*
X488886Y1027513D01*
X488848Y1027644D01*
X488829Y1027737D01*
X488773Y1027906D01*
X488736Y1027981D01*
X488717Y1028018D01*
X488567Y1028224D01*
X488399Y1028430D01*
X488212Y1028598D01*
X488006Y1028748D01*
X487837Y1028860D01*
X487688Y1028935D01*
X487594Y1028991D01*
X487575Y1029010D01*
X487557D01*
X487388Y1029085D01*
X487220Y1029141D01*
X486827Y1029254D01*
X486415Y1029329D01*
X486021Y1029366D01*
X485647Y1029403D01*
X485497D01*
X485366Y1029422D01*
D02*
G37*
G36*
X474078Y1032773D02*
X468387D01*
Y1019819D01*
X474003D01*
X474322Y1019838D01*
X474883D01*
X475108Y1019856D01*
X475464D01*
X475595Y1019875D01*
X475782D01*
X475857Y1019894D01*
X475932D01*
X476306Y1019950D01*
X476643Y1020043D01*
X476942Y1020137D01*
X477205Y1020249D01*
X477410Y1020343D01*
X477560Y1020437D01*
X477654Y1020493D01*
X477691Y1020511D01*
X477953Y1020717D01*
X478159Y1020942D01*
X478365Y1021148D01*
X478515Y1021373D01*
X478646Y1021560D01*
X478740Y1021710D01*
X478796Y1021803D01*
X478814Y1021841D01*
X478945Y1022159D01*
X479058Y1022458D01*
X479133Y1022758D01*
X479170Y1023020D01*
X479207Y1023245D01*
X479226Y1023413D01*
Y1023563D01*
X479207Y1023975D01*
X479133Y1024349D01*
X479020Y1024667D01*
X478908Y1024967D01*
X478796Y1025191D01*
X478683Y1025360D01*
X478609Y1025472D01*
X478590Y1025510D01*
X478328Y1025809D01*
X478047Y1026052D01*
X477729Y1026258D01*
X477448Y1026408D01*
X477186Y1026539D01*
X476961Y1026633D01*
X476886Y1026652D01*
X476830Y1026670D01*
X476793Y1026689D01*
X476774D01*
X477074Y1026858D01*
X477336Y1027026D01*
X477560Y1027232D01*
X477747Y1027400D01*
X477878Y1027569D01*
X477991Y1027700D01*
X478066Y1027794D01*
X478084Y1027831D01*
X478253Y1028130D01*
X478384Y1028411D01*
X478459Y1028692D01*
X478534Y1028954D01*
X478571Y1029179D01*
X478590Y1029347D01*
Y1029460D01*
Y1029478D01*
Y1029497D01*
X478571Y1029797D01*
X478534Y1030096D01*
X478459Y1030339D01*
X478384Y1030564D01*
X478309Y1030751D01*
X478234Y1030901D01*
X478197Y1030976D01*
X478178Y1031013D01*
X478028Y1031257D01*
X477860Y1031463D01*
X477691Y1031650D01*
X477542Y1031818D01*
X477392Y1031930D01*
X477279Y1032024D01*
X477205Y1032080D01*
X477186Y1032099D01*
X476961Y1032249D01*
X476718Y1032361D01*
X476493Y1032455D01*
X476287Y1032530D01*
X476100Y1032586D01*
X475969Y1032623D01*
X475875Y1032642D01*
X475838D01*
X475520Y1032679D01*
X475164Y1032717D01*
X474790Y1032736D01*
X474415Y1032754D01*
X474078Y1032773D01*
D02*
G37*
G36*
X455733D02*
X453243D01*
Y1019819D01*
X455733D01*
Y1032773D01*
D02*
G37*
G36*
X451109D02*
X442217D01*
Y1019819D01*
X444838D01*
Y1025322D01*
X450248D01*
Y1027513D01*
X444838D01*
Y1030583D01*
X451109D01*
Y1032773D01*
D02*
G37*
G36*
X386282Y1029216D02*
X383793D01*
Y1019819D01*
X386282D01*
Y1029216D01*
D02*
G37*
G36*
X412752Y1029422D02*
X412546D01*
X412209Y1029403D01*
X411891Y1029366D01*
X411573Y1029291D01*
X411292Y1029216D01*
X411011Y1029123D01*
X410768Y1029010D01*
X410525Y1028879D01*
X410319Y1028767D01*
X410131Y1028636D01*
X409963Y1028505D01*
X409813Y1028392D01*
X409701Y1028299D01*
X409607Y1028224D01*
X409532Y1028149D01*
X409495Y1028112D01*
X409476Y1028093D01*
X409270Y1027831D01*
X409083Y1027550D01*
X408915Y1027269D01*
X408765Y1026970D01*
X408653Y1026652D01*
X408559Y1026352D01*
X408409Y1025772D01*
X408353Y1025491D01*
X408316Y1025248D01*
X408297Y1025023D01*
X408278Y1024836D01*
X408260Y1024667D01*
Y1024443D01*
X408278Y1024087D01*
X408297Y1023731D01*
X408353Y1023413D01*
X408409Y1023113D01*
X408465Y1022814D01*
X408559Y1022552D01*
X408634Y1022309D01*
X408727Y1022084D01*
X408802Y1021878D01*
X408896Y1021710D01*
X408971Y1021560D01*
X409027Y1021429D01*
X409102Y1021335D01*
X409139Y1021260D01*
X409158Y1021223D01*
X409177Y1021204D01*
X409420Y1020923D01*
X409664Y1020680D01*
X409944Y1020474D01*
X410244Y1020287D01*
X410543Y1020137D01*
X410843Y1020006D01*
X411142Y1019894D01*
X411442Y1019819D01*
X411704Y1019744D01*
X411966Y1019706D01*
X412209Y1019669D01*
X412415Y1019632D01*
X412584D01*
X412696Y1019613D01*
X412808D01*
X413351Y1019650D01*
X413857Y1019725D01*
X414287Y1019838D01*
X414662Y1019969D01*
X414830Y1020043D01*
X414961Y1020100D01*
X415092Y1020156D01*
X415186Y1020212D01*
X415261Y1020268D01*
X415336Y1020287D01*
X415354Y1020324D01*
X415373D01*
X415729Y1020624D01*
X416047Y1020942D01*
X416309Y1021298D01*
X416515Y1021635D01*
X416683Y1021934D01*
X416740Y1022065D01*
X416796Y1022178D01*
X416833Y1022271D01*
X416871Y1022346D01*
X416889Y1022383D01*
Y1022402D01*
X414418Y1022814D01*
X414325Y1022571D01*
X414231Y1022346D01*
X414137Y1022178D01*
X414025Y1022028D01*
X413950Y1021916D01*
X413875Y1021841D01*
X413819Y1021803D01*
X413801Y1021784D01*
X413651Y1021672D01*
X413482Y1021597D01*
X413314Y1021541D01*
X413164Y1021504D01*
X413033Y1021485D01*
X412921Y1021466D01*
X412827D01*
X412528Y1021485D01*
X412247Y1021560D01*
X411985Y1021653D01*
X411779Y1021766D01*
X411610Y1021878D01*
X411498Y1021972D01*
X411404Y1022047D01*
X411386Y1022065D01*
X411199Y1022309D01*
X411068Y1022589D01*
X410955Y1022889D01*
X410880Y1023151D01*
X410843Y1023413D01*
X410824Y1023600D01*
X410805Y1023675D01*
Y1023731D01*
Y1023769D01*
Y1023787D01*
X417020D01*
Y1024312D01*
X416983Y1024780D01*
X416927Y1025229D01*
X416852Y1025641D01*
X416758Y1026034D01*
X416665Y1026371D01*
X416552Y1026689D01*
X416440Y1026970D01*
X416328Y1027213D01*
X416215Y1027438D01*
X416122Y1027606D01*
X416028Y1027756D01*
X415953Y1027868D01*
X415897Y1027962D01*
X415860Y1027999D01*
X415841Y1028018D01*
X415616Y1028261D01*
X415354Y1028486D01*
X415092Y1028673D01*
X414830Y1028823D01*
X414549Y1028973D01*
X414268Y1029085D01*
X414007Y1029179D01*
X413744Y1029254D01*
X413501Y1029310D01*
X413276Y1029347D01*
X413070Y1029385D01*
X412902Y1029403D01*
X412752Y1029422D01*
D02*
G37*
G36*
X380386Y1032548D02*
X377896Y1031088D01*
Y1029216D01*
X376754D01*
Y1027232D01*
X377896D01*
Y1023132D01*
Y1022889D01*
Y1022683D01*
Y1022477D01*
X377915Y1022309D01*
Y1022009D01*
X377933Y1021766D01*
X377952Y1021579D01*
Y1021466D01*
X377971Y1021391D01*
Y1021373D01*
X378008Y1021167D01*
X378064Y1020980D01*
X378121Y1020811D01*
X378177Y1020680D01*
X378233Y1020568D01*
X378270Y1020493D01*
X378289Y1020437D01*
X378308Y1020418D01*
X378420Y1020287D01*
X378551Y1020174D01*
X378813Y1019987D01*
X378926Y1019931D01*
X379019Y1019875D01*
X379094Y1019856D01*
X379113Y1019838D01*
X379319Y1019763D01*
X379525Y1019706D01*
X379730Y1019669D01*
X379918Y1019650D01*
X380086Y1019632D01*
X380217Y1019613D01*
X380330D01*
X380723Y1019632D01*
X381097Y1019669D01*
X381434Y1019725D01*
X381715Y1019800D01*
X381958Y1019856D01*
X382145Y1019912D01*
X382258Y1019950D01*
X382276Y1019969D01*
X382295D01*
X382071Y1021897D01*
X381846Y1021822D01*
X381640Y1021766D01*
X381471Y1021728D01*
X381322Y1021710D01*
X381209Y1021691D01*
X381134Y1021672D01*
X381060D01*
X380891Y1021691D01*
X380760Y1021728D01*
X380685Y1021766D01*
X380648Y1021784D01*
X380536Y1021897D01*
X380479Y1021990D01*
X380442Y1022065D01*
X380423Y1022103D01*
Y1022140D01*
X380404Y1022215D01*
Y1022383D01*
Y1022608D01*
X380386Y1022833D01*
Y1023057D01*
Y1023245D01*
Y1023319D01*
Y1023376D01*
Y1023413D01*
Y1023432D01*
Y1027232D01*
X382089D01*
Y1029216D01*
X380386D01*
Y1032548D01*
D02*
G37*
G36*
X364436Y1029422D02*
X364230D01*
X363894Y1029403D01*
X363575Y1029366D01*
X363257Y1029291D01*
X362976Y1029216D01*
X362696Y1029123D01*
X362452Y1029010D01*
X362209Y1028879D01*
X362003Y1028767D01*
X361816Y1028636D01*
X361647Y1028505D01*
X361497Y1028392D01*
X361385Y1028299D01*
X361292Y1028224D01*
X361217Y1028149D01*
X361179Y1028112D01*
X361161Y1028093D01*
X360955Y1027831D01*
X360767Y1027550D01*
X360599Y1027269D01*
X360449Y1026970D01*
X360337Y1026652D01*
X360243Y1026352D01*
X360093Y1025772D01*
X360037Y1025491D01*
X360000Y1025248D01*
X359981Y1025023D01*
X359962Y1024836D01*
X359944Y1024667D01*
Y1024443D01*
X359962Y1024087D01*
X359981Y1023731D01*
X360037Y1023413D01*
X360093Y1023113D01*
X360150Y1022814D01*
X360243Y1022552D01*
X360318Y1022309D01*
X360412Y1022084D01*
X360487Y1021878D01*
X360580Y1021710D01*
X360655Y1021560D01*
X360711Y1021429D01*
X360786Y1021335D01*
X360824Y1021260D01*
X360842Y1021223D01*
X360861Y1021204D01*
X361104Y1020923D01*
X361348Y1020680D01*
X361628Y1020474D01*
X361928Y1020287D01*
X362228Y1020137D01*
X362527Y1020006D01*
X362826Y1019894D01*
X363126Y1019819D01*
X363388Y1019744D01*
X363650Y1019706D01*
X363894Y1019669D01*
X364100Y1019632D01*
X364268D01*
X364380Y1019613D01*
X364493D01*
X365036Y1019650D01*
X365541Y1019725D01*
X365971Y1019838D01*
X366346Y1019969D01*
X366514Y1020043D01*
X366645Y1020100D01*
X366776Y1020156D01*
X366870Y1020212D01*
X366945Y1020268D01*
X367020Y1020287D01*
X367038Y1020324D01*
X367057D01*
X367413Y1020624D01*
X367731Y1020942D01*
X367993Y1021298D01*
X368199Y1021635D01*
X368368Y1021934D01*
X368424Y1022065D01*
X368480Y1022178D01*
X368517Y1022271D01*
X368555Y1022346D01*
X368573Y1022383D01*
Y1022402D01*
X366102Y1022814D01*
X366009Y1022571D01*
X365915Y1022346D01*
X365822Y1022178D01*
X365709Y1022028D01*
X365634Y1021916D01*
X365560Y1021841D01*
X365504Y1021803D01*
X365485Y1021784D01*
X365335Y1021672D01*
X365167Y1021597D01*
X364998Y1021541D01*
X364848Y1021504D01*
X364717Y1021485D01*
X364605Y1021466D01*
X364511D01*
X364212Y1021485D01*
X363931Y1021560D01*
X363669Y1021653D01*
X363463Y1021766D01*
X363294Y1021878D01*
X363182Y1021972D01*
X363089Y1022047D01*
X363070Y1022065D01*
X362883Y1022309D01*
X362752Y1022589D01*
X362639Y1022889D01*
X362565Y1023151D01*
X362527Y1023413D01*
X362508Y1023600D01*
X362490Y1023675D01*
Y1023731D01*
Y1023769D01*
Y1023787D01*
X368704D01*
Y1024312D01*
X368667Y1024780D01*
X368611Y1025229D01*
X368536Y1025641D01*
X368442Y1026034D01*
X368349Y1026371D01*
X368237Y1026689D01*
X368124Y1026970D01*
X368012Y1027213D01*
X367900Y1027438D01*
X367806Y1027606D01*
X367712Y1027756D01*
X367637Y1027868D01*
X367581Y1027962D01*
X367544Y1027999D01*
X367525Y1028018D01*
X367301Y1028261D01*
X367038Y1028486D01*
X366776Y1028673D01*
X366514Y1028823D01*
X366233Y1028973D01*
X365953Y1029085D01*
X365691Y1029179D01*
X365429Y1029254D01*
X365185Y1029310D01*
X364961Y1029347D01*
X364755Y1029385D01*
X364586Y1029403D01*
X364436Y1029422D01*
D02*
G37*
G36*
X332931D02*
X332725D01*
X332220Y1029403D01*
X331752Y1029329D01*
X331321Y1029235D01*
X330947Y1029123D01*
X330797Y1029048D01*
X330647Y1028991D01*
X330516Y1028954D01*
X330423Y1028898D01*
X330329Y1028860D01*
X330273Y1028823D01*
X330235Y1028804D01*
X330217D01*
X329823Y1028542D01*
X329487Y1028261D01*
X329187Y1027962D01*
X328944Y1027681D01*
X328756Y1027419D01*
X328607Y1027213D01*
X328551Y1027138D01*
X328532Y1027082D01*
X328494Y1027045D01*
Y1027026D01*
X328288Y1026595D01*
X328158Y1026165D01*
X328045Y1025772D01*
X327970Y1025416D01*
X327933Y1025098D01*
X327914Y1024967D01*
Y1024855D01*
X327895Y1024780D01*
Y1024649D01*
X327914Y1024068D01*
X327989Y1023525D01*
X328083Y1023057D01*
X328139Y1022851D01*
X328195Y1022664D01*
X328251Y1022496D01*
X328307Y1022346D01*
X328363Y1022215D01*
X328401Y1022103D01*
X328438Y1022009D01*
X328476Y1021953D01*
X328494Y1021916D01*
Y1021897D01*
X328756Y1021504D01*
X329037Y1021167D01*
X329337Y1020867D01*
X329618Y1020624D01*
X329880Y1020437D01*
X330086Y1020306D01*
X330160Y1020249D01*
X330217Y1020212D01*
X330254Y1020193D01*
X330273D01*
X330722Y1020006D01*
X331153Y1019856D01*
X331564Y1019763D01*
X331958Y1019688D01*
X332276Y1019650D01*
X332407Y1019632D01*
X332519D01*
X332613Y1019613D01*
X332744D01*
X333137Y1019632D01*
X333493Y1019669D01*
X333848Y1019744D01*
X334166Y1019838D01*
X334485Y1019931D01*
X334766Y1020043D01*
X335028Y1020174D01*
X335271Y1020306D01*
X335477Y1020437D01*
X335664Y1020568D01*
X335833Y1020680D01*
X335964Y1020773D01*
X336076Y1020867D01*
X336151Y1020942D01*
X336188Y1020980D01*
X336207Y1020998D01*
X336450Y1021279D01*
X336656Y1021560D01*
X336843Y1021841D01*
X337012Y1022140D01*
X337143Y1022440D01*
X337255Y1022739D01*
X337349Y1023020D01*
X337424Y1023301D01*
X337480Y1023544D01*
X337517Y1023787D01*
X337555Y1023993D01*
X337574Y1024181D01*
X337592Y1024330D01*
Y1024536D01*
X337574Y1024929D01*
X337536Y1025304D01*
X337461Y1025641D01*
X337386Y1025978D01*
X337274Y1026277D01*
X337162Y1026577D01*
X337031Y1026839D01*
X336918Y1027082D01*
X336787Y1027288D01*
X336656Y1027494D01*
X336544Y1027644D01*
X336432Y1027794D01*
X336357Y1027887D01*
X336282Y1027981D01*
X336244Y1028018D01*
X336226Y1028037D01*
X335964Y1028280D01*
X335683Y1028486D01*
X335402Y1028673D01*
X335103Y1028842D01*
X334803Y1028973D01*
X334522Y1029085D01*
X334241Y1029179D01*
X333961Y1029254D01*
X333717Y1029310D01*
X333474Y1029347D01*
X333268Y1029385D01*
X333081Y1029403D01*
X332931Y1029422D01*
D02*
G37*
%LPD*%
G36*
X486602Y1023806D02*
Y1023507D01*
X486583Y1023245D01*
X486564Y1023039D01*
X486546Y1022870D01*
X486527Y1022758D01*
X486508Y1022664D01*
X486489Y1022627D01*
Y1022608D01*
X486433Y1022440D01*
X486340Y1022271D01*
X486246Y1022140D01*
X486153Y1022009D01*
X486059Y1021916D01*
X485984Y1021841D01*
X485928Y1021803D01*
X485909Y1021784D01*
X485685Y1021635D01*
X485441Y1021541D01*
X485235Y1021466D01*
X485029Y1021410D01*
X484861Y1021373D01*
X484730Y1021354D01*
X484618D01*
X484412Y1021373D01*
X484206Y1021410D01*
X484037Y1021466D01*
X483906Y1021541D01*
X483775Y1021616D01*
X483700Y1021672D01*
X483644Y1021710D01*
X483625Y1021728D01*
X483494Y1021878D01*
X483401Y1022028D01*
X483345Y1022178D01*
X483307Y1022327D01*
X483270Y1022440D01*
X483251Y1022533D01*
Y1022608D01*
Y1022627D01*
X483270Y1022814D01*
X483326Y1022982D01*
X483401Y1023132D01*
X483494Y1023263D01*
X483569Y1023357D01*
X483644Y1023432D01*
X483700Y1023469D01*
X483719Y1023488D01*
X483869Y1023563D01*
X484056Y1023656D01*
X484281Y1023731D01*
X484505Y1023787D01*
X484730Y1023844D01*
X484898Y1023881D01*
X484973Y1023900D01*
X485029Y1023919D01*
X485067D01*
X485441Y1023993D01*
X485741Y1024068D01*
X486021Y1024143D01*
X486227Y1024199D01*
X486396Y1024255D01*
X486508Y1024274D01*
X486583Y1024312D01*
X486602D01*
Y1023806D01*
D02*
G37*
G36*
X473816Y1030601D02*
X474303D01*
X474415Y1030583D01*
X474621D01*
X474696Y1030564D01*
X474715D01*
X474939Y1030527D01*
X475145Y1030470D01*
X475314Y1030396D01*
X475464Y1030321D01*
X475557Y1030246D01*
X475651Y1030171D01*
X475688Y1030133D01*
X475707Y1030115D01*
X475819Y1029965D01*
X475894Y1029797D01*
X475969Y1029647D01*
X476006Y1029497D01*
X476025Y1029347D01*
X476044Y1029235D01*
Y1029160D01*
Y1029141D01*
X476025Y1028917D01*
X475988Y1028711D01*
X475913Y1028542D01*
X475857Y1028392D01*
X475782Y1028261D01*
X475707Y1028187D01*
X475670Y1028130D01*
X475651Y1028112D01*
X475501Y1027981D01*
X475332Y1027887D01*
X475164Y1027812D01*
X474996Y1027756D01*
X474827Y1027700D01*
X474715Y1027681D01*
X474640Y1027662D01*
X474528D01*
X474415Y1027644D01*
X473835D01*
X473517Y1027625D01*
X471008D01*
Y1030620D01*
X473610D01*
X473816Y1030601D01*
D02*
G37*
G36*
X473985Y1025453D02*
X474209Y1025435D01*
X474434D01*
X474621Y1025416D01*
X474790Y1025397D01*
X474921Y1025379D01*
X475052Y1025360D01*
X475145Y1025341D01*
X475295Y1025322D01*
X475389Y1025285D01*
X475407D01*
X475595Y1025210D01*
X475763Y1025117D01*
X475913Y1025023D01*
X476025Y1024911D01*
X476119Y1024836D01*
X476175Y1024761D01*
X476212Y1024705D01*
X476231Y1024686D01*
X476325Y1024518D01*
X476400Y1024349D01*
X476456Y1024199D01*
X476493Y1024031D01*
X476512Y1023900D01*
X476531Y1023787D01*
Y1023713D01*
Y1023694D01*
X476512Y1023450D01*
X476474Y1023226D01*
X476418Y1023039D01*
X476343Y1022889D01*
X476269Y1022758D01*
X476212Y1022664D01*
X476175Y1022608D01*
X476156Y1022589D01*
X476006Y1022458D01*
X475857Y1022346D01*
X475688Y1022252D01*
X475538Y1022178D01*
X475407Y1022140D01*
X475295Y1022103D01*
X475220Y1022084D01*
X475201D01*
X475127Y1022065D01*
X475014D01*
X474771Y1022047D01*
X474471Y1022028D01*
X474172D01*
X473891Y1022009D01*
X471008D01*
Y1025472D01*
X473723D01*
X473985Y1025453D01*
D02*
G37*
G36*
X412977Y1027494D02*
X413220Y1027419D01*
X413445Y1027326D01*
X413632Y1027232D01*
X413782Y1027120D01*
X413894Y1027026D01*
X413969Y1026951D01*
X413988Y1026932D01*
X414156Y1026708D01*
X414306Y1026446D01*
X414400Y1026165D01*
X414474Y1025903D01*
X414512Y1025678D01*
X414531Y1025472D01*
X414549Y1025397D01*
Y1025360D01*
Y1025322D01*
Y1025304D01*
X410843D01*
X410862Y1025659D01*
X410918Y1025978D01*
X410993Y1026258D01*
X411105Y1026483D01*
X411199Y1026670D01*
X411292Y1026801D01*
X411348Y1026895D01*
X411367Y1026914D01*
X411573Y1027120D01*
X411797Y1027269D01*
X412022Y1027363D01*
X412228Y1027438D01*
X412415Y1027475D01*
X412565Y1027513D01*
X412696D01*
X412977Y1027494D01*
D02*
G37*
G36*
X364661D02*
X364904Y1027419D01*
X365129Y1027326D01*
X365316Y1027232D01*
X365466Y1027120D01*
X365578Y1027026D01*
X365653Y1026951D01*
X365672Y1026932D01*
X365840Y1026708D01*
X365990Y1026446D01*
X366084Y1026165D01*
X366159Y1025903D01*
X366196Y1025678D01*
X366215Y1025472D01*
X366233Y1025397D01*
Y1025360D01*
Y1025322D01*
Y1025304D01*
X362527D01*
X362546Y1025659D01*
X362602Y1025978D01*
X362677Y1026258D01*
X362789Y1026483D01*
X362883Y1026670D01*
X362976Y1026801D01*
X363032Y1026895D01*
X363051Y1026914D01*
X363257Y1027120D01*
X363482Y1027269D01*
X363706Y1027363D01*
X363912Y1027438D01*
X364100Y1027475D01*
X364249Y1027513D01*
X364380D01*
X364661Y1027494D01*
D02*
G37*
G36*
X333100Y1027363D02*
X333418Y1027288D01*
X333680Y1027157D01*
X333923Y1027026D01*
X334110Y1026895D01*
X334260Y1026764D01*
X334335Y1026689D01*
X334372Y1026652D01*
X334597Y1026352D01*
X334766Y1025996D01*
X334878Y1025641D01*
X334972Y1025304D01*
X335009Y1025004D01*
X335028Y1024855D01*
Y1024742D01*
X335046Y1024649D01*
Y1024574D01*
Y1024536D01*
Y1024518D01*
X335009Y1024031D01*
X334934Y1023581D01*
X334840Y1023226D01*
X334709Y1022908D01*
X334578Y1022683D01*
X334485Y1022496D01*
X334410Y1022402D01*
X334372Y1022365D01*
X334110Y1022121D01*
X333848Y1021934D01*
X333568Y1021822D01*
X333305Y1021728D01*
X333081Y1021672D01*
X332912Y1021653D01*
X332837Y1021635D01*
X332744D01*
X332388Y1021672D01*
X332070Y1021747D01*
X331789Y1021859D01*
X331564Y1022009D01*
X331358Y1022140D01*
X331209Y1022252D01*
X331134Y1022327D01*
X331096Y1022365D01*
X330872Y1022664D01*
X330722Y1023020D01*
X330610Y1023376D01*
X330516Y1023731D01*
X330479Y1024031D01*
X330460Y1024162D01*
Y1024293D01*
X330441Y1024387D01*
Y1024461D01*
Y1024499D01*
Y1024518D01*
X330479Y1025004D01*
X330554Y1025435D01*
X330647Y1025809D01*
X330778Y1026109D01*
X330891Y1026333D01*
X331003Y1026520D01*
X331078Y1026614D01*
X331096Y1026652D01*
X331358Y1026895D01*
X331639Y1027082D01*
X331920Y1027213D01*
X332182Y1027307D01*
X332407Y1027363D01*
X332575Y1027382D01*
X332650Y1027400D01*
X332744D01*
X333100Y1027363D01*
D02*
G37*
%LPC*%
G36*
X1352436Y1113045D02*
X1346950D01*
X1346283Y1113023D01*
X1345659Y1112937D01*
X1345122Y1112829D01*
X1344885Y1112765D01*
X1344670Y1112700D01*
X1344476Y1112636D01*
X1344304Y1112571D01*
X1344153Y1112507D01*
X1344024Y1112464D01*
X1343917Y1112421D01*
X1343852Y1112378D01*
X1343809Y1112356D01*
X1343788D01*
X1343336Y1112055D01*
X1342949Y1111732D01*
X1342605Y1111388D01*
X1342325Y1111065D01*
X1342110Y1110764D01*
X1341959Y1110527D01*
X1341895Y1110441D01*
X1341852Y1110377D01*
X1341830Y1110334D01*
Y1110312D01*
X1341615Y1109796D01*
X1341443Y1109301D01*
X1341335Y1108828D01*
X1341249Y1108376D01*
X1341206Y1108010D01*
X1341185Y1107860D01*
Y1107731D01*
X1341163Y1107623D01*
Y1113045D01*
Y1101900D01*
D01*
Y1107473D01*
X1341185Y1107021D01*
X1341228Y1106612D01*
X1341314Y1106203D01*
X1341421Y1105837D01*
X1341529Y1105472D01*
X1341658Y1105149D01*
X1341808Y1104848D01*
X1341959Y1104568D01*
X1342110Y1104332D01*
X1342260Y1104116D01*
X1342389Y1103923D01*
X1342497Y1103772D01*
X1342605Y1103643D01*
X1342690Y1103557D01*
X1342733Y1103514D01*
X1342755Y1103492D01*
X1343078Y1103213D01*
X1343401Y1102976D01*
X1343723Y1102761D01*
X1344067Y1102567D01*
X1344412Y1102417D01*
X1344756Y1102288D01*
X1345078Y1102180D01*
X1345401Y1102094D01*
X1345681Y1102029D01*
X1345961Y1101986D01*
X1346197Y1101943D01*
X1346412Y1101922D01*
X1346584Y1101900D01*
X1346821D01*
X1352436D01*
X1346821D01*
X1347273Y1101922D01*
X1347703Y1101965D01*
X1348091Y1102051D01*
X1348478Y1102137D01*
X1348822Y1102266D01*
X1349166Y1102395D01*
X1349467Y1102546D01*
X1349747Y1102675D01*
X1349984Y1102825D01*
X1350220Y1102976D01*
X1350392Y1103105D01*
X1350565Y1103234D01*
X1350672Y1103320D01*
X1350780Y1103406D01*
X1350823Y1103449D01*
X1350844Y1103471D01*
X1351124Y1103772D01*
X1351361Y1104095D01*
X1351576Y1104417D01*
X1351769Y1104762D01*
X1351920Y1105106D01*
X1352049Y1105429D01*
X1352157Y1105751D01*
X1352243Y1106074D01*
X1352307Y1106354D01*
X1352350Y1106633D01*
X1352393Y1106870D01*
X1352415Y1107085D01*
X1352436Y1107257D01*
Y1107494D01*
X1352415Y1108075D01*
X1352329Y1108613D01*
X1352221Y1109108D01*
X1352092Y1109538D01*
X1352006Y1109710D01*
X1351941Y1109882D01*
X1351898Y1110033D01*
X1351834Y1110140D01*
X1351791Y1110248D01*
X1351748Y1110312D01*
X1351726Y1110355D01*
Y1110377D01*
X1351425Y1110829D01*
X1351102Y1111216D01*
X1350758Y1111560D01*
X1350435Y1111840D01*
X1350134Y1112055D01*
X1349898Y1112227D01*
X1349812Y1112292D01*
X1349747Y1112313D01*
X1349704Y1112356D01*
X1349682D01*
X1349188Y1112593D01*
X1348693Y1112743D01*
X1348241Y1112872D01*
X1347832Y1112959D01*
X1347467Y1113001D01*
X1347316Y1113023D01*
X1347187D01*
X1347101Y1113045D01*
X1352436D01*
D02*
G37*
%LPD*%
G36*
X1346821Y1101900D02*
D01*
D01*
D01*
D02*
G37*
%LPC*%
G36*
X1352200Y1099727D02*
X1341163D01*
X1345358D01*
X1344820Y1099706D01*
X1344347Y1099663D01*
X1343938Y1099598D01*
X1343594Y1099534D01*
X1343314Y1099469D01*
X1343121Y1099405D01*
X1343013Y1099362D01*
X1342970Y1099340D01*
X1342669Y1099168D01*
X1342389Y1098975D01*
X1342174Y1098781D01*
X1341981Y1098566D01*
X1341830Y1098394D01*
X1341722Y1098222D01*
X1341658Y1098136D01*
X1341636Y1098092D01*
X1341486Y1097770D01*
X1341357Y1097426D01*
X1341271Y1097103D01*
X1341228Y1096780D01*
X1341185Y1096522D01*
X1341163Y1096328D01*
Y1096135D01*
X1341185Y1095748D01*
X1341228Y1095382D01*
X1341314Y1095038D01*
X1341400Y1094736D01*
X1341486Y1094478D01*
X1341572Y1094285D01*
X1341615Y1094155D01*
X1341636Y1094112D01*
X1341830Y1093768D01*
X1342067Y1093467D01*
X1342282Y1093187D01*
X1342518Y1092972D01*
X1342712Y1092779D01*
X1342863Y1092650D01*
X1342970Y1092563D01*
X1343013Y1092542D01*
X1341400D01*
Y1089896D01*
X1352200D01*
Y1099727D01*
D02*
G37*
G36*
Y1088132D02*
X1349919D01*
Y1086819D01*
X1345208D01*
X1344928D01*
X1344691D01*
X1344455D01*
X1344261Y1086798D01*
X1343917D01*
X1343637Y1086776D01*
X1343422Y1086755D01*
X1343293D01*
X1343207Y1086733D01*
X1343185D01*
X1342949Y1086690D01*
X1342733Y1086626D01*
X1342540Y1086561D01*
X1342389Y1086497D01*
X1342260Y1086432D01*
X1342174Y1086389D01*
X1342110Y1086367D01*
X1342088Y1086346D01*
X1341938Y1086217D01*
X1341808Y1086066D01*
X1341593Y1085765D01*
X1341529Y1085636D01*
X1341464Y1085528D01*
X1341443Y1085442D01*
X1341421Y1085421D01*
X1341335Y1085184D01*
X1341271Y1084948D01*
X1341228Y1084711D01*
X1341206Y1084496D01*
X1341185Y1084302D01*
X1341163Y1084152D01*
Y1081764D01*
Y1084022D01*
X1341185Y1083571D01*
X1341228Y1083140D01*
X1341292Y1082753D01*
X1341378Y1082430D01*
X1341443Y1082151D01*
X1341507Y1081936D01*
X1341550Y1081806D01*
X1341572Y1081785D01*
Y1081764D01*
D01*
X1343788Y1082022D01*
X1343702Y1082280D01*
X1343637Y1082516D01*
X1343594Y1082710D01*
X1343573Y1082882D01*
X1343551Y1083011D01*
X1343530Y1083097D01*
Y1083183D01*
X1343551Y1083377D01*
X1343594Y1083528D01*
X1343637Y1083614D01*
X1343659Y1083657D01*
X1343788Y1083786D01*
X1343895Y1083850D01*
X1343981Y1083893D01*
X1344024Y1083915D01*
X1344067D01*
X1344153Y1083936D01*
X1344347D01*
X1344605D01*
X1344863Y1083958D01*
X1345122D01*
X1345337D01*
X1345423D01*
X1345487D01*
X1345530D01*
X1345552D01*
X1349919D01*
Y1082000D01*
X1352200D01*
Y1083958D01*
X1356029D01*
X1354351Y1086819D01*
X1352200D01*
Y1088132D01*
D02*
G37*
G36*
X1356287Y1064165D02*
X1341400Y1058830D01*
Y1064165D01*
Y1058830D01*
Y1055581D01*
X1356287Y1050289D01*
Y1053494D01*
X1345272Y1057130D01*
X1356287Y1060917D01*
Y1064165D01*
D02*
G37*
%LPD*%
G36*
X1347359Y1110076D02*
X1347854Y1109990D01*
X1348284Y1109882D01*
X1348628Y1109731D01*
X1348887Y1109602D01*
X1349102Y1109473D01*
X1349209Y1109387D01*
X1349252Y1109366D01*
X1349532Y1109064D01*
X1349747Y1108742D01*
X1349898Y1108419D01*
X1350005Y1108118D01*
X1350070Y1107860D01*
X1350091Y1107666D01*
X1350113Y1107580D01*
Y1107473D01*
X1350070Y1107064D01*
X1349984Y1106698D01*
X1349833Y1106397D01*
X1349682Y1106117D01*
X1349532Y1105902D01*
X1349381Y1105730D01*
X1349295Y1105644D01*
X1349252Y1105601D01*
X1348908Y1105343D01*
X1348499Y1105149D01*
X1348091Y1105020D01*
X1347703Y1104912D01*
X1347359Y1104869D01*
X1347187Y1104848D01*
X1347058D01*
X1346950Y1104826D01*
X1346864D01*
X1346821D01*
X1346800D01*
X1346240Y1104869D01*
X1345724Y1104955D01*
X1345315Y1105063D01*
X1344949Y1105213D01*
X1344691Y1105364D01*
X1344476Y1105472D01*
X1344369Y1105558D01*
X1344326Y1105601D01*
X1344046Y1105902D01*
X1343831Y1106203D01*
X1343702Y1106526D01*
X1343594Y1106827D01*
X1343530Y1107085D01*
X1343508Y1107279D01*
X1343486Y1107365D01*
Y1107473D01*
X1343530Y1107881D01*
X1343616Y1108247D01*
X1343745Y1108570D01*
X1343917Y1108828D01*
X1344067Y1109064D01*
X1344196Y1109237D01*
X1344283Y1109323D01*
X1344326Y1109366D01*
X1344670Y1109624D01*
X1345078Y1109796D01*
X1345487Y1109925D01*
X1345896Y1110033D01*
X1346240Y1110076D01*
X1346391Y1110097D01*
X1346541D01*
X1346649Y1110119D01*
X1346735D01*
X1346778D01*
X1346800D01*
X1347359Y1110076D01*
D02*
G37*
G36*
X1352200Y1092757D02*
X1347639D01*
X1347230D01*
X1346864D01*
X1346520Y1092779D01*
X1346219Y1092800D01*
X1345939D01*
X1345702Y1092822D01*
X1345509Y1092843D01*
X1345315Y1092865D01*
X1345165Y1092886D01*
X1345057Y1092908D01*
X1344949Y1092929D01*
X1344863D01*
X1344756Y1092972D01*
X1344734D01*
X1344519Y1093058D01*
X1344326Y1093187D01*
X1344175Y1093316D01*
X1344024Y1093446D01*
X1343895Y1093575D01*
X1343809Y1093682D01*
X1343766Y1093747D01*
X1343745Y1093768D01*
X1343616Y1093983D01*
X1343530Y1094220D01*
X1343443Y1094435D01*
X1343401Y1094650D01*
X1343379Y1094822D01*
X1343357Y1094951D01*
Y1095080D01*
X1343379Y1095317D01*
X1343401Y1095511D01*
X1343443Y1095704D01*
X1343508Y1095855D01*
X1343551Y1095984D01*
X1343594Y1096070D01*
X1343616Y1096135D01*
X1343637Y1096156D01*
X1343766Y1096307D01*
X1343895Y1096414D01*
X1344024Y1096522D01*
X1344153Y1096587D01*
X1344283Y1096651D01*
X1344369Y1096694D01*
X1344433Y1096716D01*
X1344455D01*
X1344562Y1096737D01*
X1344713Y1096759D01*
X1344906Y1096780D01*
X1345100Y1096802D01*
X1345552Y1096823D01*
X1346047Y1096845D01*
X1346498Y1096866D01*
X1346692D01*
X1346864D01*
X1347015D01*
X1347122D01*
X1347208D01*
X1347230D01*
X1352200D01*
Y1092757D01*
D02*
G37*
%LPC*%
G36*
X1353663Y1238775D02*
X1348177D01*
X1347510Y1238753D01*
X1346886Y1238667D01*
X1346349Y1238559D01*
X1346112Y1238495D01*
X1345897Y1238430D01*
X1345703Y1238366D01*
X1345531Y1238301D01*
X1345380Y1238237D01*
X1345251Y1238194D01*
X1345144Y1238151D01*
X1345079Y1238108D01*
X1345036Y1238086D01*
X1345015D01*
X1344563Y1237785D01*
X1344176Y1237462D01*
X1343831Y1237118D01*
X1343552Y1236795D01*
X1343337Y1236494D01*
X1343186Y1236257D01*
X1343121Y1236171D01*
X1343078Y1236107D01*
X1343057Y1236064D01*
Y1236042D01*
X1342842Y1235526D01*
X1342670Y1235031D01*
X1342562Y1234558D01*
X1342476Y1234106D01*
X1342433Y1233740D01*
X1342411Y1233590D01*
Y1233461D01*
X1342390Y1233353D01*
Y1238775D01*
Y1227630D01*
D01*
Y1233203D01*
X1342411Y1232751D01*
X1342455Y1232342D01*
X1342541Y1231933D01*
X1342648Y1231567D01*
X1342756Y1231202D01*
X1342885Y1230879D01*
X1343035Y1230578D01*
X1343186Y1230298D01*
X1343337Y1230061D01*
X1343487Y1229846D01*
X1343616Y1229653D01*
X1343724Y1229502D01*
X1343831Y1229373D01*
X1343918Y1229287D01*
X1343961Y1229244D01*
X1343982Y1229222D01*
X1344305Y1228943D01*
X1344627Y1228706D01*
X1344950Y1228491D01*
X1345294Y1228297D01*
X1345639Y1228147D01*
X1345983Y1228018D01*
X1346306Y1227910D01*
X1346628Y1227824D01*
X1346908Y1227759D01*
X1347188Y1227717D01*
X1347424Y1227673D01*
X1347639Y1227652D01*
X1347811Y1227630D01*
X1348048D01*
D01*
X1353663D01*
X1348048D01*
X1348500Y1227652D01*
X1348930Y1227695D01*
X1349317Y1227781D01*
X1349705Y1227867D01*
X1350049Y1227996D01*
X1350393Y1228125D01*
X1350694Y1228276D01*
X1350974Y1228405D01*
X1351211Y1228556D01*
X1351447Y1228706D01*
X1351619Y1228835D01*
X1351792Y1228964D01*
X1351899Y1229050D01*
X1352007Y1229136D01*
X1352050Y1229179D01*
X1352071Y1229201D01*
X1352351Y1229502D01*
X1352587Y1229825D01*
X1352803Y1230147D01*
X1352996Y1230492D01*
X1353147Y1230836D01*
X1353276Y1231159D01*
X1353384Y1231481D01*
X1353470Y1231804D01*
X1353534Y1232084D01*
X1353577Y1232363D01*
X1353620Y1232600D01*
X1353642Y1232815D01*
X1353663Y1232987D01*
Y1233224D01*
X1353642Y1233805D01*
X1353556Y1234343D01*
X1353448Y1234837D01*
X1353319Y1235268D01*
X1353233Y1235440D01*
X1353168Y1235612D01*
X1353125Y1235763D01*
X1353061Y1235870D01*
X1353018Y1235978D01*
X1352975Y1236042D01*
X1352953Y1236085D01*
Y1236107D01*
X1352652Y1236559D01*
X1352329Y1236946D01*
X1351985Y1237290D01*
X1351662Y1237570D01*
X1351361Y1237785D01*
X1351125Y1237957D01*
X1351039Y1238022D01*
X1350974Y1238043D01*
X1350931Y1238086D01*
X1350909D01*
X1350415Y1238323D01*
X1349920Y1238473D01*
X1349468Y1238603D01*
X1349059Y1238689D01*
X1348694Y1238732D01*
X1348543Y1238753D01*
X1348414D01*
X1348328Y1238775D01*
X1353663D01*
D02*
G37*
G36*
X1353427Y1225458D02*
X1342390D01*
X1346585D01*
X1346047Y1225436D01*
X1345574Y1225393D01*
X1345165Y1225328D01*
X1344821Y1225264D01*
X1344541Y1225199D01*
X1344348Y1225135D01*
X1344240Y1225092D01*
X1344197Y1225070D01*
X1343896Y1224898D01*
X1343616Y1224705D01*
X1343401Y1224511D01*
X1343208Y1224296D01*
X1343057Y1224124D01*
X1342949Y1223952D01*
X1342885Y1223866D01*
X1342863Y1223822D01*
X1342713Y1223500D01*
X1342584Y1223156D01*
X1342498Y1222833D01*
X1342455Y1222510D01*
X1342411Y1222252D01*
X1342390Y1222058D01*
Y1221865D01*
X1342411Y1221478D01*
X1342455Y1221112D01*
X1342541Y1220768D01*
X1342627Y1220466D01*
X1342713Y1220208D01*
X1342799Y1220014D01*
X1342842Y1219885D01*
X1342863Y1219842D01*
X1343057Y1219498D01*
X1343294Y1219197D01*
X1343509Y1218917D01*
X1343745Y1218702D01*
X1343939Y1218509D01*
X1344090Y1218380D01*
X1344197Y1218293D01*
X1344240Y1218272D01*
X1342627D01*
Y1215626D01*
X1353427D01*
Y1225458D01*
D02*
G37*
G36*
Y1213862D02*
X1351146D01*
Y1212549D01*
X1346435D01*
X1346155D01*
X1345918D01*
X1345682D01*
X1345488Y1212528D01*
X1345144D01*
X1344864Y1212506D01*
X1344649Y1212485D01*
X1344520D01*
X1344434Y1212463D01*
X1344412D01*
X1344176Y1212420D01*
X1343961Y1212356D01*
X1343767Y1212291D01*
X1343616Y1212226D01*
X1343487Y1212162D01*
X1343401Y1212119D01*
X1343337Y1212097D01*
X1343315Y1212076D01*
X1343165Y1211947D01*
X1343035Y1211796D01*
X1342820Y1211495D01*
X1342756Y1211366D01*
X1342691Y1211258D01*
X1342670Y1211172D01*
X1342648Y1211151D01*
X1342562Y1210914D01*
X1342498Y1210677D01*
X1342455Y1210441D01*
X1342433Y1210226D01*
X1342411Y1210032D01*
X1342390Y1209882D01*
Y1207494D01*
Y1209752D01*
X1342411Y1209301D01*
X1342455Y1208870D01*
X1342519Y1208483D01*
X1342605Y1208160D01*
X1342670Y1207881D01*
X1342734Y1207666D01*
X1342777Y1207536D01*
X1342799Y1207515D01*
Y1207494D01*
D01*
X1345015Y1207752D01*
X1344929Y1208010D01*
X1344864Y1208247D01*
X1344821Y1208440D01*
X1344799Y1208612D01*
X1344778Y1208741D01*
X1344756Y1208827D01*
Y1208913D01*
X1344778Y1209107D01*
X1344821Y1209258D01*
X1344864Y1209344D01*
X1344886Y1209387D01*
X1345015Y1209516D01*
X1345122Y1209580D01*
X1345208Y1209623D01*
X1345251Y1209645D01*
X1345294D01*
X1345380Y1209666D01*
X1345574D01*
X1345832D01*
X1346090Y1209688D01*
X1346349D01*
X1346564D01*
X1346650D01*
X1346714D01*
X1346757D01*
X1346779D01*
X1351146D01*
Y1207730D01*
X1353427D01*
Y1209688D01*
X1357256D01*
X1355578Y1212549D01*
X1353427D01*
Y1213862D01*
D02*
G37*
G36*
X1357514Y1178321D02*
X1342627Y1172985D01*
Y1169737D01*
X1357514Y1164444D01*
Y1167650D01*
X1346499Y1171286D01*
X1357514Y1175072D01*
Y1178321D01*
D02*
G37*
%LPD*%
G36*
X1348586Y1235806D02*
X1349081Y1235720D01*
X1349511Y1235612D01*
X1349855Y1235461D01*
X1350114Y1235332D01*
X1350329Y1235203D01*
X1350436Y1235117D01*
X1350479Y1235096D01*
X1350759Y1234794D01*
X1350974Y1234472D01*
X1351125Y1234149D01*
X1351232Y1233848D01*
X1351297Y1233590D01*
X1351318Y1233396D01*
X1351340Y1233310D01*
Y1233203D01*
X1351297Y1232794D01*
X1351211Y1232428D01*
X1351060Y1232127D01*
X1350909Y1231847D01*
X1350759Y1231632D01*
X1350608Y1231460D01*
X1350522Y1231374D01*
X1350479Y1231331D01*
X1350135Y1231073D01*
X1349726Y1230879D01*
X1349317Y1230750D01*
X1348930Y1230642D01*
X1348586Y1230599D01*
X1348414Y1230578D01*
X1348285D01*
X1348177Y1230556D01*
X1348091D01*
X1348048D01*
X1348027D01*
X1347467Y1230599D01*
X1346951Y1230685D01*
X1346542Y1230793D01*
X1346176Y1230944D01*
X1345918Y1231094D01*
X1345703Y1231202D01*
X1345596Y1231288D01*
X1345553Y1231331D01*
X1345273Y1231632D01*
X1345058Y1231933D01*
X1344929Y1232256D01*
X1344821Y1232557D01*
X1344756Y1232815D01*
X1344735Y1233009D01*
X1344713Y1233095D01*
Y1233203D01*
X1344756Y1233611D01*
X1344843Y1233977D01*
X1344972Y1234300D01*
X1345144Y1234558D01*
X1345294Y1234794D01*
X1345423Y1234967D01*
X1345509Y1235053D01*
X1345553Y1235096D01*
X1345897Y1235354D01*
X1346306Y1235526D01*
X1346714Y1235655D01*
X1347123Y1235763D01*
X1347467Y1235806D01*
X1347618Y1235827D01*
X1347769D01*
X1347876Y1235849D01*
X1347962D01*
X1348005D01*
X1348027D01*
X1348586Y1235806D01*
D02*
G37*
G36*
X1353427Y1218487D02*
X1348866D01*
X1348457D01*
X1348091D01*
X1347747Y1218509D01*
X1347446Y1218530D01*
X1347166D01*
X1346929Y1218552D01*
X1346736Y1218573D01*
X1346542Y1218595D01*
X1346392Y1218616D01*
X1346284Y1218638D01*
X1346176Y1218659D01*
X1346090D01*
X1345983Y1218702D01*
X1345961D01*
X1345746Y1218788D01*
X1345553Y1218917D01*
X1345402Y1219046D01*
X1345251Y1219175D01*
X1345122Y1219305D01*
X1345036Y1219412D01*
X1344993Y1219477D01*
X1344972Y1219498D01*
X1344843Y1219713D01*
X1344756Y1219950D01*
X1344671Y1220165D01*
X1344627Y1220380D01*
X1344606Y1220552D01*
X1344584Y1220682D01*
Y1220810D01*
X1344606Y1221047D01*
X1344627Y1221241D01*
X1344671Y1221434D01*
X1344735Y1221585D01*
X1344778Y1221714D01*
X1344821Y1221800D01*
X1344843Y1221865D01*
X1344864Y1221886D01*
X1344993Y1222037D01*
X1345122Y1222144D01*
X1345251Y1222252D01*
X1345380Y1222317D01*
X1345509Y1222381D01*
X1345596Y1222424D01*
X1345660Y1222446D01*
X1345682D01*
X1345789Y1222467D01*
X1345940Y1222489D01*
X1346133Y1222510D01*
X1346327Y1222532D01*
X1346779Y1222553D01*
X1347274Y1222575D01*
X1347725Y1222596D01*
X1347919D01*
X1348091D01*
X1348242D01*
X1348349D01*
X1348435D01*
X1348457D01*
X1353427D01*
Y1218487D01*
D02*
G37*
%LPC*%
G36*
X240103Y1259553D02*
Y1248925D01*
Y1256347D01*
X251118Y1252711D01*
X240103Y1248925D01*
Y1245676D01*
D01*
X254990Y1251012D01*
Y1254260D01*
X240103Y1259553D01*
D02*
G37*
G36*
X251010Y1222377D02*
X248149D01*
Y1216762D01*
X251010D01*
Y1222377D01*
D02*
G37*
G36*
X254990Y1196840D02*
X243954D01*
Y1186987D01*
D01*
Y1193183D01*
X243975Y1192795D01*
X244040Y1192408D01*
X244126Y1192064D01*
X244233Y1191720D01*
X244384Y1191397D01*
X244535Y1191117D01*
X244707Y1190837D01*
X244857Y1190601D01*
X245029Y1190386D01*
X245201Y1190192D01*
X245352Y1190020D01*
X245503Y1189891D01*
X245610Y1189783D01*
X245696Y1189697D01*
X245761Y1189654D01*
X245782Y1189633D01*
X244190D01*
Y1186987D01*
X254990D01*
Y1189848D01*
X250128D01*
X249806D01*
X249504D01*
X249225Y1189869D01*
X248988Y1189891D01*
X248751D01*
X248558Y1189912D01*
X248364Y1189934D01*
X248214Y1189956D01*
X247955Y1189998D01*
X247783Y1190020D01*
X247676Y1190063D01*
X247654D01*
X247418Y1190149D01*
X247181Y1190278D01*
X247009Y1190407D01*
X246837Y1190536D01*
X246729Y1190665D01*
X246621Y1190773D01*
X246578Y1190837D01*
X246557Y1190859D01*
X246428Y1191096D01*
X246320Y1191332D01*
X246256Y1191547D01*
X246191Y1191763D01*
X246170Y1191935D01*
X246148Y1192064D01*
Y1192193D01*
X246170Y1192408D01*
X246191Y1192602D01*
X246234Y1192752D01*
X246299Y1192903D01*
X246363Y1193032D01*
X246406Y1193118D01*
X246428Y1193161D01*
X246449Y1193183D01*
X246557Y1193333D01*
X246686Y1193441D01*
X246944Y1193634D01*
X247073Y1193699D01*
X247159Y1193742D01*
X247224Y1193785D01*
X247245D01*
X247353Y1193828D01*
X247482Y1193849D01*
X247805Y1193893D01*
X248192Y1193935D01*
X248558Y1193957D01*
X248923Y1193979D01*
X249074D01*
X249225D01*
X249332D01*
X249418D01*
X249483D01*
X249504D01*
X254990D01*
Y1196840D01*
D02*
G37*
G36*
Y1184082D02*
X244190D01*
D01*
X243681D01*
X244190D01*
Y1181221D01*
X254990D01*
Y1184082D01*
D02*
G37*
G36*
X242749D02*
X240103D01*
Y1181221D01*
X243681D01*
X242749D01*
Y1184082D01*
D02*
G37*
%LPD*%
G36*
X247482Y1196818D02*
X247138Y1196797D01*
X246880Y1196754D01*
X246665Y1196732D01*
X246514Y1196689D01*
X246406Y1196668D01*
X246385D01*
X246127Y1196603D01*
X245912Y1196517D01*
X245696Y1196431D01*
X245524Y1196323D01*
X245374Y1196237D01*
X245266Y1196173D01*
X245201Y1196130D01*
X245180Y1196108D01*
X244986Y1195936D01*
X244814Y1195743D01*
X244664Y1195549D01*
X244535Y1195355D01*
X244427Y1195183D01*
X244363Y1195033D01*
X244319Y1194947D01*
X244298Y1194904D01*
X244190Y1194602D01*
X244104Y1194301D01*
X244040Y1194022D01*
X243997Y1193763D01*
X243975Y1193527D01*
X243954Y1193333D01*
Y1196840D01*
X247848D01*
X247482Y1196818D01*
D02*
G37*
D10*
X1358900Y1265270D02*
G03*
X1350360Y1273810I-8540J0D01*
G01*
Y1012190D02*
G03*
X1358900Y1020730I0J8540D01*
G01*
X247300Y1273810D02*
G03*
X238760Y1265270I0J-8540D01*
G01*
Y1020730D02*
G03*
X247300Y1012190I8540J0D01*
G01*
X1350360D01*
X247300Y1273810D02*
X1350360D01*
X1358900Y1020730D02*
Y1265270D01*
X238760Y1020730D02*
Y1265270D01*
X1235711Y1041397D02*
X1230632D01*
X1233172D01*
Y1028702D01*
X1230632Y1026162D01*
X1228093D01*
X1225554Y1028702D01*
X1240789Y1038858D02*
X1243328Y1041397D01*
X1248407D01*
X1250946Y1038858D01*
Y1036319D01*
X1248407Y1033780D01*
X1245867D01*
X1248407D01*
X1250946Y1031241D01*
Y1028702D01*
X1248407Y1026162D01*
X1243328D01*
X1240789Y1028702D01*
X290831Y1150618D02*
X285753D01*
X288292D01*
Y1137922D01*
X285753Y1135383D01*
X283213D01*
X280674Y1137922D01*
X306066Y1135383D02*
X295909D01*
X306066Y1145539D01*
Y1148078D01*
X303527Y1150618D01*
X298448D01*
X295909Y1148078D01*
X1236980Y1150618D02*
X1231902D01*
X1234441D01*
Y1137922D01*
X1231902Y1135383D01*
X1229362D01*
X1226823Y1137922D01*
X1242058Y1135383D02*
X1247137D01*
X1244598D01*
Y1150618D01*
X1242058Y1148078D01*
X925834Y1134112D02*
Y1149348D01*
X933452D01*
X935991Y1146808D01*
Y1141730D01*
X933452Y1139191D01*
X925834D01*
X930912D02*
X935991Y1134112D01*
X941069Y1149348D02*
X951226D01*
Y1146808D01*
X941069Y1136652D01*
Y1134112D01*
X892814Y1135383D02*
Y1150618D01*
X900432D01*
X902971Y1148078D01*
Y1143000D01*
X900432Y1140461D01*
X892814D01*
X897893D02*
X902971Y1135383D01*
X918206Y1150618D02*
X913128Y1148078D01*
X908049Y1143000D01*
Y1137922D01*
X910588Y1135383D01*
X915667D01*
X918206Y1137922D01*
Y1140461D01*
X915667Y1143000D01*
X908049D01*
X469904Y1149352D02*
Y1164587D01*
X477522D01*
X480061Y1162048D01*
Y1156970D01*
X477522Y1154431D01*
X469904D01*
X474982D02*
X480061Y1149352D01*
X495296Y1164587D02*
X485139D01*
Y1156970D01*
X490218Y1159509D01*
X492757D01*
X495296Y1156970D01*
Y1151892D01*
X492757Y1149352D01*
X487678D01*
X485139Y1151892D01*
X634544Y1017272D02*
Y1032507D01*
X642162D01*
X644701Y1029968D01*
Y1024890D01*
X642162Y1022351D01*
X634544D01*
X639622D02*
X644701Y1017272D01*
X657397D02*
Y1032507D01*
X649779Y1024890D01*
X659936D01*
X350524Y1151892D02*
Y1167128D01*
X358142D01*
X360681Y1164588D01*
Y1159510D01*
X358142Y1156971D01*
X350524D01*
X355602D02*
X360681Y1151892D01*
X365759Y1164588D02*
X368298Y1167128D01*
X373377D01*
X375916Y1164588D01*
Y1162049D01*
X373377Y1159510D01*
X370838D01*
X373377D01*
X375916Y1156971D01*
Y1154432D01*
X373377Y1151892D01*
X368298D01*
X365759Y1154432D01*
X622304Y1154433D02*
Y1169668D01*
X629922D01*
X632461Y1167128D01*
Y1162050D01*
X629922Y1159511D01*
X622304D01*
X627383D02*
X632461Y1154433D01*
X647696D02*
X637539D01*
X647696Y1164589D01*
Y1167128D01*
X645157Y1169668D01*
X640078D01*
X637539Y1167128D01*
X1193803Y1155703D02*
Y1170938D01*
X1201421D01*
X1203960Y1168398D01*
Y1163320D01*
X1201421Y1160781D01*
X1193803D01*
X1198882D02*
X1203960Y1155703D01*
X1209038D02*
X1214117D01*
X1211578D01*
Y1170938D01*
X1209038Y1168398D01*
X797563Y1043938D02*
X807720Y1028702D01*
Y1043938D02*
X797563Y1028702D01*
X812798D02*
X817877D01*
X815338D01*
Y1043938D01*
X812798Y1041398D01*
X1073404Y1258311D02*
Y1243076D01*
X1081021D01*
X1083561Y1245615D01*
Y1255772D01*
X1081021Y1258311D01*
X1073404D01*
X1088639Y1243076D02*
X1093717D01*
X1091178D01*
Y1258311D01*
X1088639Y1255772D01*
X631193Y1064258D02*
X628654Y1066797D01*
X623575D01*
X621036Y1064258D01*
Y1054102D01*
X623575Y1051562D01*
X628654D01*
X631193Y1054102D01*
X636271Y1051562D02*
X641350D01*
X638810D01*
Y1066797D01*
X636271Y1064258D01*
X648967D02*
X651506Y1066797D01*
X656585D01*
X659124Y1064258D01*
Y1061719D01*
X656585Y1059180D01*
X654045D01*
X656585D01*
X659124Y1056641D01*
Y1054102D01*
X656585Y1051562D01*
X651506D01*
X648967Y1054102D01*
X265433Y1031238D02*
X262894Y1033777D01*
X257815D01*
X255276Y1031238D01*
Y1021082D01*
X257815Y1018542D01*
X262894D01*
X265433Y1021082D01*
X270511Y1018542D02*
X275590D01*
X273050D01*
Y1033777D01*
X270511Y1031238D01*
X293364Y1018542D02*
X283207D01*
X293364Y1028699D01*
Y1031238D01*
X290825Y1033777D01*
X285746D01*
X283207Y1031238D01*
X386282Y1073148D02*
X383743Y1075687D01*
X378665D01*
X376125Y1073148D01*
Y1062992D01*
X378665Y1060452D01*
X383743D01*
X386282Y1062992D01*
X391360Y1060452D02*
X396439D01*
X393900D01*
Y1075687D01*
X391360Y1073148D01*
X404056Y1060452D02*
X409135D01*
X406595D01*
Y1075687D01*
X404056Y1073148D01*
X1071883Y1037588D02*
X1069344Y1040127D01*
X1064265D01*
X1061726Y1037588D01*
Y1027432D01*
X1064265Y1024893D01*
X1069344D01*
X1071883Y1027432D01*
X1076961Y1024893D02*
X1082040D01*
X1079500D01*
Y1040127D01*
X1076961Y1037588D01*
X1089657D02*
X1092196Y1040127D01*
X1097275D01*
X1099814Y1037588D01*
Y1027432D01*
X1097275Y1024893D01*
X1092196D01*
X1089657Y1027432D01*
Y1037588D01*
X866141Y1032508D02*
X863602Y1035048D01*
X858523D01*
X855984Y1032508D01*
Y1022352D01*
X858523Y1019812D01*
X863602D01*
X866141Y1022352D01*
X871219D02*
X873758Y1019812D01*
X878837D01*
X881376Y1022352D01*
Y1032508D01*
X878837Y1035048D01*
X873758D01*
X871219Y1032508D01*
Y1029969D01*
X873758Y1027430D01*
X881376D01*
X862331Y1261108D02*
X859792Y1263648D01*
X854713D01*
X852174Y1261108D01*
Y1250952D01*
X854713Y1248412D01*
X859792D01*
X862331Y1250952D01*
X867409Y1261108D02*
X869948Y1263648D01*
X875027D01*
X877566Y1261108D01*
Y1258569D01*
X875027Y1256030D01*
X877566Y1253491D01*
Y1250952D01*
X875027Y1248412D01*
X869948D01*
X867409Y1250952D01*
Y1253491D01*
X869948Y1256030D01*
X867409Y1258569D01*
Y1261108D01*
X869948Y1256030D02*
X875027D01*
X742951Y1261108D02*
X740412Y1263648D01*
X735333D01*
X732794Y1261108D01*
Y1250952D01*
X735333Y1248412D01*
X740412D01*
X742951Y1250952D01*
X748029Y1263648D02*
X758186D01*
Y1261108D01*
X748029Y1250952D01*
Y1248412D01*
X523241Y1263648D02*
X520702Y1266188D01*
X515623D01*
X513084Y1263648D01*
Y1253492D01*
X515623Y1250953D01*
X520702D01*
X523241Y1253492D01*
X538476Y1266188D02*
X533397Y1263648D01*
X528319Y1258570D01*
Y1253492D01*
X530858Y1250953D01*
X535937D01*
X538476Y1253492D01*
Y1256031D01*
X535937Y1258570D01*
X528319D01*
X447041Y1219198D02*
X444502Y1221738D01*
X439423D01*
X436884Y1219198D01*
Y1209042D01*
X439423Y1206503D01*
X444502D01*
X447041Y1209042D01*
X462276Y1221738D02*
X452119D01*
Y1214120D01*
X457197Y1216659D01*
X459737D01*
X462276Y1214120D01*
Y1209042D01*
X459737Y1206503D01*
X454658D01*
X452119Y1209042D01*
X359411Y1221738D02*
X356872Y1224277D01*
X351793D01*
X349254Y1221738D01*
Y1211582D01*
X351793Y1209043D01*
X356872D01*
X359411Y1211582D01*
X372107Y1209043D02*
Y1224277D01*
X364489Y1216660D01*
X374646D01*
X1104901Y1131568D02*
X1102362Y1134108D01*
X1097283D01*
X1094744Y1131568D01*
Y1121412D01*
X1097283Y1118873D01*
X1102362D01*
X1104901Y1121412D01*
X1109979Y1131568D02*
X1112518Y1134108D01*
X1117597D01*
X1120136Y1131568D01*
Y1129029D01*
X1117597Y1126490D01*
X1115058D01*
X1117597D01*
X1120136Y1123951D01*
Y1121412D01*
X1117597Y1118873D01*
X1112518D01*
X1109979Y1121412D01*
X1200951Y1266188D02*
X1198412Y1268727D01*
X1193333D01*
X1190794Y1266188D01*
Y1256032D01*
X1193333Y1253493D01*
X1198412D01*
X1200951Y1256032D01*
X1216186Y1253493D02*
X1206029D01*
X1216186Y1263649D01*
Y1266188D01*
X1213647Y1268727D01*
X1208568D01*
X1206029Y1266188D01*
X975360Y1167128D02*
X972821Y1169668D01*
X967742D01*
X965203Y1167128D01*
Y1156972D01*
X967742Y1154433D01*
X972821D01*
X975360Y1156972D01*
X980438Y1154433D02*
X985517D01*
X982978D01*
Y1169668D01*
X980438Y1167128D01*
X449583Y1060447D02*
Y1045212D01*
X457201D01*
X459740Y1047752D01*
Y1050291D01*
X457201Y1052830D01*
X449583D01*
X457201D01*
X459740Y1055369D01*
Y1057908D01*
X457201Y1060447D01*
X449583D01*
X464818Y1045212D02*
X469897D01*
X467358D01*
Y1060447D01*
X464818Y1057908D01*
D11*
X1297670Y1146000D02*
G03*
X1297670Y1146000I-1250J0D01*
G01*
Y1024080D02*
G03*
X1297670Y1024080I-1250J0D01*
G01*
X447400Y1107390D02*
G03*
X447400Y1107390I-1250J0D01*
G01*
X298680Y1273350D02*
G03*
X298680Y1273350I-1250J0D01*
G01*
X1084560Y1233000D02*
G03*
X1084560Y1233000I-1250J0D01*
G01*
D12*
X1203560Y1211580D02*
G03*
X1203560Y1211580I-50000J0D01*
G01*
X1199750Y1073150D02*
G03*
X1199750Y1073150I-50000J0D01*
G01*
X1061320Y1215390D02*
G03*
X1061320Y1215390I-50000J0D01*
G01*
X1084650Y1078230D02*
G03*
X1084650Y1078230I-50000J0D01*
G01*
X969880D02*
G03*
X969880Y1078230I-50000J0D01*
G01*
X810600Y1119470D02*
G03*
X810600Y1117470I0J-1000D01*
G01*
D02*
G03*
X810600Y1119470I0J1000D01*
G01*
X532500Y1240790D02*
G03*
X532500Y1240790I-1000J0D01*
G01*
X861930Y1212850D02*
G03*
X861930Y1212850I-50000J0D01*
G01*
X743820Y1215390D02*
G03*
X743820Y1215390I-50000J0D01*
G01*
X626980Y1101090D02*
G03*
X626980Y1101090I-50000J0D01*
G01*
X353930Y1079500D02*
G03*
X353930Y1079500I-50000J0D01*
G01*
X1254170Y1151200D02*
Y1261800D01*
X1339170D01*
Y1151200D02*
Y1261800D01*
X1254170Y1151200D02*
X1339170D01*
X1245940Y1177770D02*
Y1237770D01*
X1222940Y1177770D02*
X1245940D01*
X1222940D02*
Y1237770D01*
X1245940D01*
X1234440D02*
Y1245070D01*
Y1170470D02*
Y1177770D01*
X1254170Y1029280D02*
Y1139880D01*
X1339170D01*
Y1029280D02*
Y1139880D01*
X1254170Y1029280D02*
X1339170D01*
X950030Y1183660D02*
Y1243660D01*
X927030Y1183660D02*
X950030D01*
X927030D02*
Y1243660D01*
X950030D01*
X938530D02*
Y1250960D01*
Y1176360D02*
Y1183660D01*
X890200Y1182850D02*
Y1242850D01*
X913200D01*
Y1182850D02*
Y1242850D01*
X890200Y1182850D02*
X913200D01*
X901700Y1175550D02*
Y1182850D01*
Y1242850D02*
Y1250150D01*
X593020Y1181120D02*
Y1241120D01*
X616020D01*
Y1181120D02*
Y1241120D01*
X593020Y1181120D02*
X616020D01*
X604520Y1173820D02*
Y1181120D01*
Y1241120D02*
Y1248420D01*
X489430Y1172140D02*
X549430D01*
X489430D02*
Y1195140D01*
X549430D01*
Y1172140D02*
Y1195140D01*
Y1183640D02*
X556730D01*
X482130D02*
X489430D01*
X372590Y1196410D02*
X432590D01*
Y1173410D02*
Y1196410D01*
X372590Y1173410D02*
X432590D01*
X372590D02*
Y1196410D01*
X365290Y1184910D02*
X372590D01*
X432590D02*
X439890D01*
X442980Y1263390D02*
Y1267140D01*
Y1227140D02*
Y1243890D01*
Y1227140D02*
X506980D01*
Y1250390D02*
Y1267140D01*
Y1227140D02*
Y1230890D01*
X442980Y1267140D02*
X506980D01*
X355350Y1263390D02*
Y1267140D01*
Y1227140D02*
Y1243890D01*
Y1227140D02*
X419350D01*
Y1250390D02*
Y1267140D01*
Y1227140D02*
Y1230890D01*
X355350Y1267140D02*
X419350D01*
X532470Y1028700D02*
X539770D01*
X599770D02*
X607070D01*
X599770Y1017200D02*
Y1040200D01*
X539770D02*
X599770D01*
X539770Y1017200D02*
Y1040200D01*
Y1017200D02*
X599770D01*
X254680Y1268150D02*
X339680D01*
X254680Y1157550D02*
Y1268150D01*
Y1157550D02*
X339680D01*
Y1268150D01*
X1094810Y1192500D02*
Y1220500D01*
X1071810Y1192500D02*
Y1220500D01*
D13*
X586500Y1240790D02*
G03*
X586500Y1240790I-25000J0D01*
G01*
D14*
X794900Y1043470D02*
Y1058470D01*
X678300Y1043470D02*
X794900D01*
X678300D02*
Y1058470D01*
X794900Y1128470D02*
Y1143470D01*
X678300D02*
X794900D01*
X678300Y1128470D02*
Y1143470D01*
X376970Y1107510D02*
X412970D01*
X376970Y1084510D02*
X412970D01*
M02*
