G04*
G04 #@! TF.GenerationSoftware,Altium Limited,Altium Designer,24.2.2 (26)*
G04*
G04 Layer_Color=128*
%FSLAX44Y44*%
%MOMM*%
G71*
G04*
G04 #@! TF.SameCoordinates,EC8B54CE-386E-4826-8866-03C4CD91BE24*
G04*
G04*
G04 #@! TF.FilePolarity,Positive*
G04*
G01*
G75*
%ADD13C,0.1270*%
D13*
X1291170Y1184350D02*
X1302170D01*
X1296670Y1178850D02*
Y1189850D01*
X1291170Y1235150D02*
X1302170D01*
X1296670Y1229650D02*
Y1240650D01*
X1230440Y1255570D02*
X1238440D01*
X1234440Y1251570D02*
Y1259570D01*
X1230440Y1159970D02*
X1238440D01*
X1234440Y1155970D02*
Y1163970D01*
X1124560Y1211580D02*
X1132560D01*
X1128560Y1207580D02*
Y1215580D01*
X1174560Y1211580D02*
X1182560D01*
X1178560Y1207580D02*
Y1215580D01*
X1120750Y1073150D02*
X1128750D01*
X1124750Y1069150D02*
Y1077150D01*
X1170750Y1073150D02*
X1178750D01*
X1174750Y1069150D02*
Y1077150D01*
X982320Y1215390D02*
X990320D01*
X986320Y1211390D02*
Y1219390D01*
X1032320Y1215390D02*
X1040320D01*
X1036320Y1211390D02*
Y1219390D01*
X1291170Y1062430D02*
X1302170D01*
X1296670Y1056930D02*
Y1067930D01*
X1291170Y1113230D02*
X1302170D01*
X1296670Y1107730D02*
Y1118730D01*
X1005650Y1078230D02*
X1013650D01*
X1009650Y1074230D02*
Y1082230D01*
X1055650Y1078230D02*
X1063650D01*
X1059650Y1074230D02*
Y1082230D01*
X890880Y1078230D02*
X898880D01*
X894880Y1074230D02*
Y1082230D01*
X940880Y1078230D02*
X948880D01*
X944880Y1074230D02*
Y1082230D01*
X934530Y1261460D02*
X942530D01*
X938530Y1257460D02*
Y1265460D01*
X934530Y1165860D02*
X942530D01*
X938530Y1161860D02*
Y1169860D01*
X897700Y1165050D02*
X905700D01*
X901700Y1161050D02*
Y1169050D01*
X897700Y1260650D02*
X905700D01*
X901700Y1256650D02*
Y1264650D01*
X600520Y1163320D02*
X608520D01*
X604520Y1159320D02*
Y1167320D01*
X600520Y1258920D02*
X608520D01*
X604520Y1254920D02*
Y1262920D01*
X563230Y1183640D02*
X571230D01*
X567230Y1179640D02*
Y1187640D01*
X467630Y1183640D02*
X475630D01*
X471630Y1179640D02*
Y1187640D01*
X350790Y1184910D02*
X358790D01*
X354790Y1180910D02*
Y1188910D01*
X446390Y1184910D02*
X454390D01*
X450390Y1180910D02*
Y1188910D01*
X503480Y1240640D02*
X510480D01*
X506980Y1237140D02*
Y1244140D01*
X439480Y1253640D02*
X446480D01*
X442980Y1250140D02*
Y1257140D01*
X415850Y1240640D02*
X422850D01*
X419350Y1237140D02*
Y1244140D01*
X351850Y1253640D02*
X358850D01*
X355350Y1250140D02*
Y1257140D01*
X402470Y1096010D02*
X412470D01*
X407470Y1091010D02*
Y1101010D01*
X377470Y1096010D02*
X387470D01*
X382470Y1091010D02*
Y1101010D01*
X547900Y1240790D02*
X555100D01*
X551500Y1237190D02*
Y1244390D01*
X567900Y1240790D02*
X575100D01*
X571500Y1237190D02*
Y1244390D01*
X832930Y1212850D02*
X840930D01*
X836930Y1208850D02*
Y1216850D01*
X782930Y1212850D02*
X790930D01*
X786930Y1208850D02*
Y1216850D01*
X714820Y1215390D02*
X722820D01*
X718820Y1211390D02*
Y1219390D01*
X664820Y1215390D02*
X672820D01*
X668820Y1211390D02*
Y1219390D01*
X517970Y1028700D02*
X525970D01*
X521970Y1024700D02*
Y1032700D01*
X613570Y1028700D02*
X621570D01*
X617570Y1024700D02*
Y1032700D01*
X547980Y1101090D02*
X555980D01*
X551980Y1097090D02*
Y1105090D01*
X597980Y1101090D02*
X605980D01*
X601980Y1097090D02*
Y1105090D01*
X324930Y1079500D02*
X332930D01*
X328930Y1075500D02*
Y1083500D01*
X274930Y1079500D02*
X282930D01*
X278930Y1075500D02*
Y1083500D01*
X291680Y1184200D02*
X302680D01*
X297180Y1178700D02*
Y1189700D01*
X291680Y1235000D02*
X302680D01*
X297180Y1229500D02*
Y1240500D01*
X644144Y1029970D02*
X651256D01*
X647700Y1026414D02*
Y1033526D01*
X534303Y1106730D02*
X541415D01*
X537859Y1103174D02*
Y1110285D01*
X599694Y1047750D02*
X606806D01*
X603250Y1044194D02*
Y1051306D01*
X621284Y1135380D02*
X628396D01*
X624840Y1131824D02*
Y1138936D01*
X508254Y1085850D02*
X515366D01*
X511810Y1082294D02*
Y1089406D01*
X508254Y1103590D02*
X515366D01*
X511810Y1100034D02*
Y1107146D01*
X505754Y1121370D02*
X512866D01*
X509310Y1117814D02*
Y1124926D01*
X454914Y1122680D02*
X462026D01*
X458470Y1119124D02*
Y1126236D01*
M02*
