G04*
G04 #@! TF.GenerationSoftware,Altium Limited,Altium Designer,24.2.2 (26)*
G04*
G04 Layer_Color=32896*
%FSLAX44Y44*%
%MOMM*%
G71*
G04*
G04 #@! TF.SameCoordinates,EC8B54CE-386E-4826-8866-03C4CD91BE24*
G04*
G04*
G04 #@! TF.FilePolarity,Positive*
G04*
G01*
G75*
%ADD40C,0.1500*%
D40*
X1254170Y1151200D02*
Y1261800D01*
X1339170D01*
Y1151200D02*
Y1261800D01*
X1254170Y1151200D02*
X1339170D01*
X1245940Y1177770D02*
Y1237770D01*
X1222940Y1177770D02*
X1245940D01*
X1222940D02*
Y1237770D01*
X1245940D01*
X1254170Y1029280D02*
Y1139880D01*
X1339170D01*
Y1029280D02*
Y1139880D01*
X1254170Y1029280D02*
X1339170D01*
X950030Y1183660D02*
Y1243660D01*
X927030Y1183660D02*
X950030D01*
X927030D02*
Y1243660D01*
X950030D01*
X890200Y1182850D02*
Y1242850D01*
X913200D01*
Y1182850D02*
Y1242850D01*
X890200Y1182850D02*
X913200D01*
X593020Y1181120D02*
Y1241120D01*
X616020D01*
Y1181120D02*
Y1241120D01*
X593020Y1181120D02*
X616020D01*
X489430Y1172140D02*
X549430D01*
X489430D02*
Y1195140D01*
X549430D01*
Y1172140D02*
Y1195140D01*
X372590Y1196410D02*
X432590D01*
Y1173410D02*
Y1196410D01*
X372590Y1173410D02*
X432590D01*
X372590D02*
Y1196410D01*
X442980Y1227140D02*
Y1267140D01*
Y1227140D02*
X506980D01*
Y1267140D01*
X442980D02*
X506980D01*
X355350Y1227140D02*
Y1267140D01*
Y1227140D02*
X419350D01*
Y1267140D01*
X355350D02*
X419350D01*
X599770Y1017200D02*
Y1040200D01*
X539770D02*
X599770D01*
X539770Y1017200D02*
Y1040200D01*
Y1017200D02*
X599770D01*
X254680Y1268150D02*
X339680D01*
X254680Y1157550D02*
Y1268150D01*
Y1157550D02*
X339680D01*
Y1268150D01*
X1074410Y1192500D02*
X1092210D01*
Y1220500D01*
X1074410D02*
X1092210D01*
X1074410Y1192500D02*
Y1220500D01*
M02*
