G04*
G04 #@! TF.GenerationSoftware,Altium Limited,Altium Designer,24.2.2 (26)*
G04*
G04 Layer_Color=8388736*
%FSLAX44Y44*%
%MOMM*%
G71*
G04*
G04 #@! TF.SameCoordinates,EC8B54CE-386E-4826-8866-03C4CD91BE24*
G04*
G04*
G04 #@! TF.FilePolarity,Positive*
G04*
G01*
G75*
%ADD12C,0.2000*%
G36*
X1296670Y1213277D02*
X1291668D01*
X1291677Y1213268D01*
X1291714Y1213222D01*
X1291770Y1213166D01*
X1291835Y1213074D01*
X1291918Y1212972D01*
X1292010Y1212842D01*
X1292112Y1212695D01*
X1292214Y1212528D01*
Y1212519D01*
X1292223Y1212510D01*
X1292260Y1212454D01*
X1292306Y1212362D01*
X1292362Y1212251D01*
X1292426Y1212121D01*
X1292491Y1211983D01*
X1292556Y1211844D01*
X1292611Y1211705D01*
X1291853D01*
Y1211714D01*
X1291835Y1211733D01*
X1291825Y1211770D01*
X1291798Y1211816D01*
X1291770Y1211872D01*
X1291733Y1211936D01*
X1291640Y1212094D01*
X1291539Y1212279D01*
X1291409Y1212463D01*
X1291261Y1212658D01*
X1291104Y1212852D01*
X1291095Y1212861D01*
X1291086Y1212870D01*
X1291058Y1212898D01*
X1291030Y1212935D01*
X1290938Y1213018D01*
X1290827Y1213129D01*
X1290697Y1213240D01*
X1290549Y1213360D01*
X1290401Y1213462D01*
X1290244Y1213554D01*
Y1214063D01*
X1296670D01*
Y1213277D01*
D02*
G37*
G36*
X1294839Y1210032D02*
X1294913D01*
X1295089Y1210013D01*
X1295292Y1209995D01*
X1295505Y1209958D01*
X1295699Y1209902D01*
X1295884Y1209838D01*
X1295893D01*
X1295903Y1209828D01*
X1295958Y1209801D01*
X1296032Y1209754D01*
X1296134Y1209690D01*
X1296236Y1209597D01*
X1296346Y1209496D01*
X1296457Y1209366D01*
X1296550Y1209218D01*
X1296559Y1209200D01*
X1296587Y1209144D01*
X1296624Y1209061D01*
X1296661Y1208941D01*
X1296707Y1208793D01*
X1296744Y1208626D01*
X1296772Y1208442D01*
X1296781Y1208238D01*
Y1208155D01*
X1296772Y1208100D01*
X1296763Y1208026D01*
X1296753Y1207952D01*
X1296716Y1207757D01*
X1296661Y1207554D01*
X1296577Y1207341D01*
X1296522Y1207230D01*
X1296457Y1207129D01*
X1296383Y1207036D01*
X1296300Y1206944D01*
X1296291Y1206935D01*
X1296282Y1206925D01*
X1296245Y1206907D01*
X1296208Y1206879D01*
X1296161Y1206842D01*
X1296097Y1206805D01*
X1296023Y1206768D01*
X1295940Y1206722D01*
X1295847Y1206685D01*
X1295736Y1206648D01*
X1295625Y1206611D01*
X1295496Y1206574D01*
X1295357Y1206555D01*
X1295200Y1206528D01*
X1295043Y1206518D01*
X1294867D01*
X1294756Y1207286D01*
X1294765D01*
X1294784D01*
X1294821D01*
X1294876Y1207295D01*
X1294932Y1207304D01*
X1294996D01*
X1295154Y1207332D01*
X1295320Y1207360D01*
X1295487Y1207415D01*
X1295634Y1207471D01*
X1295699Y1207508D01*
X1295755Y1207554D01*
X1295764Y1207563D01*
X1295792Y1207600D01*
X1295838Y1207656D01*
X1295884Y1207730D01*
X1295940Y1207831D01*
X1295977Y1207942D01*
X1296014Y1208081D01*
X1296023Y1208229D01*
Y1208284D01*
X1296014Y1208340D01*
X1296004Y1208423D01*
X1295986Y1208506D01*
X1295967Y1208599D01*
X1295930Y1208691D01*
X1295884Y1208784D01*
X1295875Y1208793D01*
X1295856Y1208821D01*
X1295819Y1208858D01*
X1295782Y1208913D01*
X1295718Y1208959D01*
X1295653Y1209015D01*
X1295579Y1209061D01*
X1295487Y1209098D01*
X1295477D01*
X1295440Y1209117D01*
X1295376Y1209126D01*
X1295292Y1209144D01*
X1295181Y1209163D01*
X1295043Y1209172D01*
X1294876Y1209191D01*
X1294682D01*
X1290272D01*
Y1210041D01*
X1294636D01*
X1294645D01*
X1294673D01*
X1294710D01*
X1294765D01*
X1294839Y1210032D01*
D02*
G37*
G36*
X1240838Y1204802D02*
X1240829Y1204728D01*
Y1204645D01*
X1240819Y1204451D01*
X1240792Y1204247D01*
X1240764Y1204025D01*
X1240718Y1203822D01*
X1240690Y1203720D01*
X1240662Y1203637D01*
Y1203628D01*
X1240653Y1203619D01*
X1240625Y1203563D01*
X1240588Y1203480D01*
X1240524Y1203378D01*
X1240440Y1203267D01*
X1240329Y1203147D01*
X1240200Y1203036D01*
X1240052Y1202925D01*
X1240043D01*
X1240034Y1202916D01*
X1239978Y1202879D01*
X1239886Y1202842D01*
X1239765Y1202787D01*
X1239627Y1202740D01*
X1239460Y1202694D01*
X1239285Y1202666D01*
X1239090Y1202657D01*
X1239081D01*
X1239063D01*
X1239026D01*
X1238980Y1202666D01*
X1238915D01*
X1238850Y1202676D01*
X1238693Y1202713D01*
X1238508Y1202768D01*
X1238314Y1202842D01*
X1238120Y1202953D01*
X1238027Y1203027D01*
X1237935Y1203101D01*
X1237926Y1203110D01*
X1237916Y1203120D01*
X1237889Y1203147D01*
X1237861Y1203184D01*
X1237824Y1203230D01*
X1237787Y1203286D01*
X1237741Y1203360D01*
X1237685Y1203434D01*
X1237639Y1203526D01*
X1237593Y1203628D01*
X1237537Y1203739D01*
X1237491Y1203859D01*
X1237454Y1203998D01*
X1237408Y1204137D01*
X1237380Y1204294D01*
X1237352Y1204460D01*
X1237343Y1204442D01*
X1237325Y1204405D01*
X1237288Y1204349D01*
X1237251Y1204275D01*
X1237149Y1204109D01*
X1237084Y1204025D01*
X1237029Y1203952D01*
X1237010Y1203933D01*
X1236964Y1203887D01*
X1236890Y1203813D01*
X1236798Y1203720D01*
X1236668Y1203619D01*
X1236529Y1203499D01*
X1236363Y1203378D01*
X1236178Y1203249D01*
X1234440Y1202149D01*
Y1203203D01*
X1235771Y1204044D01*
X1235781D01*
X1235799Y1204062D01*
X1235827Y1204081D01*
X1235864Y1204109D01*
X1235965Y1204174D01*
X1236095Y1204257D01*
X1236234Y1204358D01*
X1236382Y1204460D01*
X1236520Y1204562D01*
X1236650Y1204654D01*
X1236659Y1204663D01*
X1236696Y1204691D01*
X1236751Y1204737D01*
X1236816Y1204802D01*
X1236955Y1204941D01*
X1237020Y1205015D01*
X1237075Y1205089D01*
X1237084Y1205098D01*
X1237094Y1205117D01*
X1237112Y1205154D01*
X1237140Y1205209D01*
X1237168Y1205264D01*
X1237195Y1205329D01*
X1237241Y1205477D01*
Y1205486D01*
X1237251Y1205505D01*
Y1205542D01*
X1237260Y1205588D01*
X1237269Y1205653D01*
Y1205727D01*
X1237278Y1205828D01*
Y1206919D01*
X1234440D01*
Y1207770D01*
X1240838D01*
Y1204802D01*
D02*
G37*
G36*
X1239257Y1201039D02*
X1239275Y1201021D01*
X1239285Y1200984D01*
X1239312Y1200938D01*
X1239340Y1200882D01*
X1239377Y1200817D01*
X1239470Y1200660D01*
X1239571Y1200475D01*
X1239701Y1200290D01*
X1239849Y1200096D01*
X1240006Y1199902D01*
X1240015Y1199893D01*
X1240024Y1199883D01*
X1240052Y1199856D01*
X1240080Y1199819D01*
X1240172Y1199736D01*
X1240283Y1199625D01*
X1240413Y1199514D01*
X1240561Y1199393D01*
X1240708Y1199292D01*
X1240866Y1199199D01*
Y1198691D01*
X1234440D01*
Y1199477D01*
X1239442D01*
X1239433Y1199486D01*
X1239396Y1199532D01*
X1239340Y1199588D01*
X1239275Y1199680D01*
X1239192Y1199782D01*
X1239100Y1199911D01*
X1238998Y1200059D01*
X1238896Y1200226D01*
Y1200235D01*
X1238887Y1200244D01*
X1238850Y1200300D01*
X1238804Y1200392D01*
X1238748Y1200503D01*
X1238684Y1200632D01*
X1238619Y1200771D01*
X1238554Y1200910D01*
X1238499Y1201048D01*
X1239257D01*
Y1201039D01*
D02*
G37*
G36*
X1294923Y1093373D02*
X1294996Y1093363D01*
X1295080Y1093345D01*
X1295172Y1093326D01*
X1295274Y1093308D01*
X1295496Y1093234D01*
X1295616Y1093178D01*
X1295727Y1093123D01*
X1295847Y1093049D01*
X1295967Y1092966D01*
X1296087Y1092873D01*
X1296198Y1092762D01*
X1296208Y1092753D01*
X1296226Y1092735D01*
X1296254Y1092698D01*
X1296291Y1092651D01*
X1296337Y1092596D01*
X1296383Y1092522D01*
X1296439Y1092439D01*
X1296485Y1092337D01*
X1296541Y1092235D01*
X1296596Y1092115D01*
X1296642Y1091995D01*
X1296689Y1091856D01*
X1296725Y1091708D01*
X1296753Y1091551D01*
X1296772Y1091394D01*
X1296781Y1091218D01*
Y1091135D01*
X1296772Y1091080D01*
X1296763Y1091006D01*
X1296753Y1090922D01*
X1296735Y1090830D01*
X1296716Y1090728D01*
X1296661Y1090506D01*
X1296568Y1090275D01*
X1296513Y1090155D01*
X1296448Y1090044D01*
X1296365Y1089933D01*
X1296282Y1089822D01*
X1296272Y1089813D01*
X1296254Y1089794D01*
X1296226Y1089767D01*
X1296189Y1089739D01*
X1296143Y1089693D01*
X1296078Y1089647D01*
X1296014Y1089591D01*
X1295930Y1089536D01*
X1295838Y1089480D01*
X1295745Y1089425D01*
X1295524Y1089323D01*
X1295265Y1089240D01*
X1295126Y1089212D01*
X1294978Y1089194D01*
X1294876Y1089979D01*
X1294886D01*
X1294904Y1089989D01*
X1294941Y1089998D01*
X1294987Y1090007D01*
X1295043Y1090016D01*
X1295108Y1090035D01*
X1295246Y1090081D01*
X1295413Y1090146D01*
X1295570Y1090229D01*
X1295718Y1090322D01*
X1295847Y1090433D01*
X1295856Y1090451D01*
X1295893Y1090488D01*
X1295940Y1090562D01*
X1295986Y1090654D01*
X1296041Y1090765D01*
X1296087Y1090904D01*
X1296125Y1091061D01*
X1296134Y1091228D01*
Y1091283D01*
X1296125Y1091320D01*
X1296115Y1091422D01*
X1296087Y1091551D01*
X1296041Y1091699D01*
X1295977Y1091856D01*
X1295884Y1092013D01*
X1295755Y1092161D01*
X1295736Y1092180D01*
X1295681Y1092226D01*
X1295598Y1092282D01*
X1295487Y1092355D01*
X1295348Y1092430D01*
X1295191Y1092485D01*
X1295006Y1092531D01*
X1294802Y1092550D01*
X1294793D01*
X1294775D01*
X1294747D01*
X1294710Y1092541D01*
X1294608Y1092531D01*
X1294488Y1092504D01*
X1294340Y1092467D01*
X1294192Y1092402D01*
X1294044Y1092309D01*
X1293906Y1092189D01*
X1293887Y1092171D01*
X1293850Y1092124D01*
X1293795Y1092050D01*
X1293730Y1091949D01*
X1293665Y1091819D01*
X1293610Y1091662D01*
X1293573Y1091487D01*
X1293554Y1091292D01*
Y1091209D01*
X1293564Y1091144D01*
X1293573Y1091061D01*
X1293591Y1090969D01*
X1293610Y1090858D01*
X1293637Y1090738D01*
X1292944Y1090830D01*
Y1090876D01*
X1292953Y1090913D01*
Y1091033D01*
X1292935Y1091135D01*
X1292916Y1091255D01*
X1292888Y1091394D01*
X1292842Y1091551D01*
X1292778Y1091699D01*
X1292694Y1091856D01*
Y1091865D01*
X1292685Y1091875D01*
X1292648Y1091921D01*
X1292583Y1091986D01*
X1292500Y1092060D01*
X1292380Y1092134D01*
X1292241Y1092198D01*
X1292084Y1092245D01*
X1291992Y1092263D01*
X1291890D01*
X1291881D01*
X1291871D01*
X1291816D01*
X1291742Y1092245D01*
X1291640Y1092226D01*
X1291529Y1092189D01*
X1291409Y1092143D01*
X1291289Y1092069D01*
X1291178Y1091967D01*
X1291169Y1091958D01*
X1291132Y1091912D01*
X1291086Y1091847D01*
X1291030Y1091764D01*
X1290984Y1091653D01*
X1290938Y1091523D01*
X1290901Y1091376D01*
X1290892Y1091209D01*
Y1091135D01*
X1290910Y1091052D01*
X1290928Y1090941D01*
X1290966Y1090821D01*
X1291012Y1090701D01*
X1291086Y1090571D01*
X1291178Y1090451D01*
X1291187Y1090442D01*
X1291234Y1090405D01*
X1291298Y1090349D01*
X1291391Y1090285D01*
X1291511Y1090220D01*
X1291659Y1090155D01*
X1291835Y1090100D01*
X1292038Y1090063D01*
X1291899Y1089277D01*
X1291890D01*
X1291862Y1089286D01*
X1291825Y1089295D01*
X1291770Y1089305D01*
X1291705Y1089323D01*
X1291631Y1089351D01*
X1291456Y1089406D01*
X1291252Y1089499D01*
X1291049Y1089610D01*
X1290854Y1089748D01*
X1290679Y1089924D01*
X1290670Y1089933D01*
X1290660Y1089952D01*
X1290642Y1089979D01*
X1290614Y1090016D01*
X1290577Y1090063D01*
X1290540Y1090127D01*
X1290503Y1090192D01*
X1290457Y1090275D01*
X1290383Y1090460D01*
X1290309Y1090673D01*
X1290263Y1090922D01*
X1290244Y1091052D01*
Y1091283D01*
X1290254Y1091385D01*
X1290272Y1091505D01*
X1290300Y1091653D01*
X1290346Y1091819D01*
X1290401Y1091986D01*
X1290475Y1092152D01*
Y1092161D01*
X1290485Y1092171D01*
X1290512Y1092226D01*
X1290568Y1092309D01*
X1290633Y1092402D01*
X1290725Y1092513D01*
X1290827Y1092624D01*
X1290947Y1092735D01*
X1291086Y1092827D01*
X1291104Y1092836D01*
X1291150Y1092864D01*
X1291234Y1092901D01*
X1291335Y1092947D01*
X1291456Y1092993D01*
X1291594Y1093030D01*
X1291751Y1093058D01*
X1291909Y1093067D01*
X1291927D01*
X1291983D01*
X1292056Y1093058D01*
X1292158Y1093040D01*
X1292278Y1093012D01*
X1292408Y1092966D01*
X1292537Y1092910D01*
X1292667Y1092836D01*
X1292685Y1092827D01*
X1292722Y1092799D01*
X1292787Y1092744D01*
X1292861Y1092670D01*
X1292944Y1092577D01*
X1293036Y1092467D01*
X1293120Y1092337D01*
X1293203Y1092180D01*
Y1092189D01*
X1293212Y1092208D01*
X1293221Y1092235D01*
X1293231Y1092272D01*
X1293268Y1092374D01*
X1293323Y1092504D01*
X1293397Y1092651D01*
X1293490Y1092799D01*
X1293610Y1092938D01*
X1293748Y1093067D01*
X1293767Y1093077D01*
X1293822Y1093114D01*
X1293915Y1093169D01*
X1294035Y1093225D01*
X1294183Y1093280D01*
X1294359Y1093336D01*
X1294562Y1093373D01*
X1294784Y1093382D01*
X1294793D01*
X1294821D01*
X1294867D01*
X1294923Y1093373D01*
D02*
G37*
G36*
X1294839Y1088112D02*
X1294913D01*
X1295089Y1088093D01*
X1295292Y1088075D01*
X1295505Y1088038D01*
X1295699Y1087982D01*
X1295884Y1087918D01*
X1295893D01*
X1295903Y1087908D01*
X1295958Y1087881D01*
X1296032Y1087834D01*
X1296134Y1087770D01*
X1296236Y1087677D01*
X1296346Y1087576D01*
X1296457Y1087446D01*
X1296550Y1087298D01*
X1296559Y1087280D01*
X1296587Y1087224D01*
X1296624Y1087141D01*
X1296661Y1087021D01*
X1296707Y1086873D01*
X1296744Y1086706D01*
X1296772Y1086522D01*
X1296781Y1086318D01*
Y1086235D01*
X1296772Y1086180D01*
X1296763Y1086105D01*
X1296753Y1086032D01*
X1296716Y1085837D01*
X1296661Y1085634D01*
X1296577Y1085421D01*
X1296522Y1085310D01*
X1296457Y1085209D01*
X1296383Y1085116D01*
X1296300Y1085024D01*
X1296291Y1085014D01*
X1296282Y1085005D01*
X1296245Y1084987D01*
X1296208Y1084959D01*
X1296161Y1084922D01*
X1296097Y1084885D01*
X1296023Y1084848D01*
X1295940Y1084802D01*
X1295847Y1084765D01*
X1295736Y1084728D01*
X1295625Y1084691D01*
X1295496Y1084654D01*
X1295357Y1084635D01*
X1295200Y1084608D01*
X1295043Y1084598D01*
X1294867D01*
X1294756Y1085366D01*
X1294765D01*
X1294784D01*
X1294821D01*
X1294876Y1085375D01*
X1294932Y1085384D01*
X1294996D01*
X1295154Y1085412D01*
X1295320Y1085440D01*
X1295487Y1085495D01*
X1295634Y1085551D01*
X1295699Y1085588D01*
X1295755Y1085634D01*
X1295764Y1085643D01*
X1295792Y1085680D01*
X1295838Y1085736D01*
X1295884Y1085810D01*
X1295940Y1085911D01*
X1295977Y1086022D01*
X1296014Y1086161D01*
X1296023Y1086309D01*
Y1086364D01*
X1296014Y1086420D01*
X1296004Y1086503D01*
X1295986Y1086586D01*
X1295967Y1086679D01*
X1295930Y1086771D01*
X1295884Y1086864D01*
X1295875Y1086873D01*
X1295856Y1086901D01*
X1295819Y1086938D01*
X1295782Y1086993D01*
X1295718Y1087039D01*
X1295653Y1087095D01*
X1295579Y1087141D01*
X1295487Y1087178D01*
X1295477D01*
X1295440Y1087197D01*
X1295376Y1087206D01*
X1295292Y1087224D01*
X1295181Y1087243D01*
X1295043Y1087252D01*
X1294876Y1087271D01*
X1294682D01*
X1290272D01*
Y1088121D01*
X1294636D01*
X1294645D01*
X1294673D01*
X1294710D01*
X1294765D01*
X1294839Y1088112D01*
D02*
G37*
G36*
X944928Y1210692D02*
X944919Y1210618D01*
Y1210535D01*
X944910Y1210341D01*
X944882Y1210137D01*
X944854Y1209915D01*
X944808Y1209712D01*
X944780Y1209610D01*
X944752Y1209527D01*
Y1209518D01*
X944743Y1209509D01*
X944715Y1209453D01*
X944678Y1209370D01*
X944614Y1209268D01*
X944530Y1209157D01*
X944419Y1209037D01*
X944290Y1208926D01*
X944142Y1208815D01*
X944133D01*
X944124Y1208806D01*
X944068Y1208769D01*
X943976Y1208732D01*
X943856Y1208677D01*
X943717Y1208630D01*
X943550Y1208584D01*
X943375Y1208556D01*
X943180Y1208547D01*
X943171D01*
X943153D01*
X943116D01*
X943070Y1208556D01*
X943005D01*
X942940Y1208566D01*
X942783Y1208603D01*
X942598Y1208658D01*
X942404Y1208732D01*
X942210Y1208843D01*
X942117Y1208917D01*
X942025Y1208991D01*
X942016Y1209000D01*
X942006Y1209009D01*
X941979Y1209037D01*
X941951Y1209074D01*
X941914Y1209120D01*
X941877Y1209176D01*
X941831Y1209250D01*
X941775Y1209324D01*
X941729Y1209416D01*
X941683Y1209518D01*
X941627Y1209629D01*
X941581Y1209749D01*
X941544Y1209888D01*
X941498Y1210026D01*
X941470Y1210184D01*
X941442Y1210350D01*
X941433Y1210332D01*
X941415Y1210295D01*
X941378Y1210239D01*
X941341Y1210165D01*
X941239Y1209999D01*
X941174Y1209915D01*
X941119Y1209842D01*
X941100Y1209823D01*
X941054Y1209777D01*
X940980Y1209703D01*
X940888Y1209610D01*
X940758Y1209509D01*
X940620Y1209389D01*
X940453Y1209268D01*
X940268Y1209139D01*
X938530Y1208039D01*
Y1209093D01*
X939861Y1209934D01*
X939871D01*
X939889Y1209952D01*
X939917Y1209971D01*
X939954Y1209999D01*
X940055Y1210063D01*
X940185Y1210147D01*
X940324Y1210248D01*
X940472Y1210350D01*
X940610Y1210452D01*
X940740Y1210544D01*
X940749Y1210554D01*
X940786Y1210581D01*
X940841Y1210627D01*
X940906Y1210692D01*
X941045Y1210831D01*
X941109Y1210905D01*
X941165Y1210979D01*
X941174Y1210988D01*
X941183Y1211006D01*
X941202Y1211043D01*
X941230Y1211099D01*
X941257Y1211154D01*
X941285Y1211219D01*
X941331Y1211367D01*
Y1211376D01*
X941341Y1211395D01*
Y1211432D01*
X941350Y1211478D01*
X941359Y1211543D01*
Y1211617D01*
X941368Y1211718D01*
Y1212809D01*
X938530D01*
Y1213660D01*
X944928D01*
Y1210692D01*
D02*
G37*
G36*
X944845Y1203342D02*
X944225D01*
X944216Y1203351D01*
X944198Y1203370D01*
X944161Y1203407D01*
X944105Y1203444D01*
X944040Y1203499D01*
X943966Y1203573D01*
X943874Y1203647D01*
X943763Y1203730D01*
X943652Y1203813D01*
X943523Y1203915D01*
X943375Y1204017D01*
X943227Y1204118D01*
X943060Y1204230D01*
X942885Y1204340D01*
X942691Y1204451D01*
X942496Y1204562D01*
X942487Y1204572D01*
X942450Y1204590D01*
X942395Y1204618D01*
X942311Y1204664D01*
X942210Y1204710D01*
X942099Y1204766D01*
X941969Y1204830D01*
X941821Y1204895D01*
X941655Y1204969D01*
X941489Y1205052D01*
X941304Y1205126D01*
X941109Y1205200D01*
X940712Y1205348D01*
X940287Y1205487D01*
X940277D01*
X940250Y1205496D01*
X940203Y1205505D01*
X940148Y1205524D01*
X940074Y1205542D01*
X939982Y1205561D01*
X939880Y1205589D01*
X939769Y1205607D01*
X939640Y1205635D01*
X939501Y1205663D01*
X939205Y1205709D01*
X938881Y1205755D01*
X938530Y1205783D01*
Y1206587D01*
X938539D01*
X938567D01*
X938604D01*
X938659Y1206578D01*
X938733D01*
X938826Y1206569D01*
X938928Y1206559D01*
X939038Y1206550D01*
X939168Y1206532D01*
X939297Y1206513D01*
X939455Y1206485D01*
X939612Y1206458D01*
X939778Y1206430D01*
X939963Y1206393D01*
X940342Y1206301D01*
X940351D01*
X940388Y1206291D01*
X940444Y1206273D01*
X940527Y1206245D01*
X940620Y1206217D01*
X940731Y1206180D01*
X940860Y1206143D01*
X940999Y1206088D01*
X941156Y1206032D01*
X941313Y1205977D01*
X941664Y1205838D01*
X942034Y1205672D01*
X942404Y1205487D01*
X942413Y1205478D01*
X942450Y1205459D01*
X942496Y1205431D01*
X942570Y1205394D01*
X942654Y1205348D01*
X942755Y1205284D01*
X942866Y1205219D01*
X942986Y1205145D01*
X943254Y1204969D01*
X943532Y1204784D01*
X943819Y1204572D01*
X944087Y1204350D01*
Y1207484D01*
X944845D01*
Y1203342D01*
D02*
G37*
G36*
X899786Y1223159D02*
X899842D01*
X899990Y1223131D01*
X900165Y1223103D01*
X900350Y1223057D01*
X900554Y1222992D01*
X900748Y1222900D01*
X900757D01*
X900766Y1222891D01*
X900794Y1222872D01*
X900831Y1222854D01*
X900923Y1222798D01*
X901044Y1222715D01*
X901173Y1222613D01*
X901302Y1222493D01*
X901432Y1222345D01*
X901543Y1222188D01*
Y1222179D01*
X901552Y1222170D01*
X901571Y1222142D01*
X901580Y1222105D01*
X901626Y1222012D01*
X901672Y1221892D01*
X901728Y1221735D01*
X901765Y1221559D01*
X901802Y1221365D01*
X901811Y1221152D01*
Y1221106D01*
X901802Y1221060D01*
Y1220986D01*
X901793Y1220903D01*
X901774Y1220810D01*
X901746Y1220699D01*
X901719Y1220589D01*
X901682Y1220459D01*
X901635Y1220330D01*
X901580Y1220200D01*
X901506Y1220062D01*
X901423Y1219932D01*
X901330Y1219803D01*
X901219Y1219673D01*
X901090Y1219553D01*
X901080Y1219544D01*
X901053Y1219525D01*
X901016Y1219498D01*
X900951Y1219461D01*
X900868Y1219405D01*
X900775Y1219359D01*
X900655Y1219303D01*
X900526Y1219248D01*
X900369Y1219183D01*
X900193Y1219128D01*
X899999Y1219081D01*
X899786Y1219035D01*
X899546Y1218989D01*
X899287Y1218961D01*
X899009Y1218943D01*
X898714Y1218934D01*
X898704D01*
X898695D01*
X898667D01*
X898631D01*
X898538Y1218943D01*
X898409D01*
X898261Y1218952D01*
X898085Y1218971D01*
X897891Y1218989D01*
X897678Y1219017D01*
X897466Y1219054D01*
X897234Y1219100D01*
X897012Y1219156D01*
X896791Y1219220D01*
X896578Y1219303D01*
X896375Y1219396D01*
X896180Y1219498D01*
X896014Y1219618D01*
X896005Y1219627D01*
X895986Y1219645D01*
X895949Y1219682D01*
X895894Y1219729D01*
X895838Y1219784D01*
X895783Y1219858D01*
X895709Y1219951D01*
X895644Y1220043D01*
X895579Y1220154D01*
X895505Y1220274D01*
X895450Y1220413D01*
X895385Y1220552D01*
X895339Y1220709D01*
X895302Y1220875D01*
X895284Y1221051D01*
X895274Y1221236D01*
Y1221310D01*
X895284Y1221365D01*
Y1221430D01*
X895293Y1221504D01*
X895330Y1221680D01*
X895376Y1221874D01*
X895450Y1222077D01*
X895561Y1222281D01*
X895626Y1222382D01*
X895700Y1222475D01*
X895709Y1222484D01*
X895718Y1222493D01*
X895746Y1222521D01*
X895774Y1222549D01*
X895820Y1222595D01*
X895875Y1222632D01*
X896005Y1222734D01*
X896171Y1222835D01*
X896375Y1222928D01*
X896606Y1223011D01*
X896865Y1223066D01*
X896929Y1222281D01*
X896920D01*
X896911Y1222271D01*
X896855Y1222262D01*
X896772Y1222234D01*
X896670Y1222197D01*
X896559Y1222160D01*
X896449Y1222105D01*
X896347Y1222040D01*
X896264Y1221975D01*
X896245Y1221957D01*
X896208Y1221920D01*
X896153Y1221855D01*
X896088Y1221763D01*
X896032Y1221643D01*
X895977Y1221513D01*
X895940Y1221356D01*
X895921Y1221189D01*
Y1221125D01*
X895931Y1221051D01*
X895949Y1220968D01*
X895977Y1220857D01*
X896014Y1220746D01*
X896060Y1220635D01*
X896134Y1220524D01*
X896143Y1220505D01*
X896180Y1220459D01*
X896245Y1220394D01*
X896338Y1220311D01*
X896449Y1220219D01*
X896578Y1220117D01*
X896744Y1220025D01*
X896929Y1219932D01*
X896938D01*
X896957Y1219923D01*
X896985Y1219914D01*
X897022Y1219895D01*
X897077Y1219886D01*
X897142Y1219867D01*
X897216Y1219849D01*
X897308Y1219830D01*
X897410Y1219803D01*
X897521Y1219784D01*
X897641Y1219766D01*
X897771Y1219756D01*
X897918Y1219738D01*
X898066Y1219729D01*
X898233Y1219719D01*
X898399D01*
X898390Y1219729D01*
X898335Y1219766D01*
X898261Y1219830D01*
X898168Y1219914D01*
X898057Y1220006D01*
X897955Y1220126D01*
X897854Y1220256D01*
X897761Y1220404D01*
Y1220413D01*
X897752Y1220422D01*
X897724Y1220478D01*
X897697Y1220561D01*
X897650Y1220672D01*
X897613Y1220801D01*
X897586Y1220949D01*
X897558Y1221106D01*
X897549Y1221273D01*
Y1221347D01*
X897558Y1221402D01*
X897567Y1221476D01*
X897577Y1221550D01*
X897595Y1221643D01*
X897623Y1221735D01*
X897687Y1221948D01*
X897734Y1222059D01*
X897798Y1222170D01*
X897863Y1222281D01*
X897937Y1222401D01*
X898029Y1222512D01*
X898131Y1222613D01*
X898140Y1222623D01*
X898159Y1222641D01*
X898187Y1222669D01*
X898233Y1222697D01*
X898298Y1222743D01*
X898362Y1222789D01*
X898446Y1222835D01*
X898538Y1222891D01*
X898640Y1222946D01*
X898751Y1222992D01*
X898880Y1223039D01*
X899009Y1223085D01*
X899148Y1223113D01*
X899305Y1223140D01*
X899463Y1223159D01*
X899629Y1223168D01*
X899638D01*
X899657D01*
X899685D01*
X899731D01*
X899786Y1223159D01*
D02*
G37*
G36*
X901700Y1217417D02*
X900369Y1216576D01*
X900359D01*
X900341Y1216557D01*
X900313Y1216539D01*
X900276Y1216511D01*
X900174Y1216447D01*
X900045Y1216363D01*
X899906Y1216262D01*
X899758Y1216160D01*
X899620Y1216058D01*
X899490Y1215966D01*
X899481Y1215956D01*
X899444Y1215929D01*
X899389Y1215883D01*
X899324Y1215818D01*
X899185Y1215679D01*
X899120Y1215605D01*
X899065Y1215531D01*
X899056Y1215522D01*
X899046Y1215503D01*
X899028Y1215467D01*
X899000Y1215411D01*
X898972Y1215356D01*
X898945Y1215291D01*
X898899Y1215143D01*
Y1215134D01*
X898889Y1215115D01*
Y1215078D01*
X898880Y1215032D01*
X898871Y1214967D01*
Y1214893D01*
X898862Y1214792D01*
Y1213701D01*
X901700D01*
Y1212850D01*
X895302D01*
Y1215818D01*
X895311Y1215892D01*
Y1215975D01*
X895321Y1216169D01*
X895348Y1216373D01*
X895376Y1216594D01*
X895422Y1216798D01*
X895450Y1216900D01*
X895478Y1216983D01*
Y1216992D01*
X895487Y1217001D01*
X895515Y1217057D01*
X895552Y1217140D01*
X895616Y1217242D01*
X895700Y1217353D01*
X895811Y1217473D01*
X895940Y1217584D01*
X896088Y1217695D01*
X896097D01*
X896106Y1217704D01*
X896162Y1217741D01*
X896254Y1217778D01*
X896375Y1217833D01*
X896513Y1217880D01*
X896680Y1217926D01*
X896855Y1217954D01*
X897049Y1217963D01*
X897059D01*
X897077D01*
X897114D01*
X897160Y1217954D01*
X897225D01*
X897290Y1217944D01*
X897447Y1217907D01*
X897632Y1217852D01*
X897826Y1217778D01*
X898020Y1217667D01*
X898113Y1217593D01*
X898205Y1217519D01*
X898214Y1217510D01*
X898224Y1217501D01*
X898251Y1217473D01*
X898279Y1217436D01*
X898316Y1217390D01*
X898353Y1217334D01*
X898399Y1217260D01*
X898455Y1217186D01*
X898501Y1217094D01*
X898547Y1216992D01*
X898603Y1216881D01*
X898649Y1216761D01*
X898686Y1216622D01*
X898732Y1216484D01*
X898760Y1216326D01*
X898788Y1216160D01*
X898797Y1216178D01*
X898815Y1216215D01*
X898852Y1216271D01*
X898889Y1216345D01*
X898991Y1216511D01*
X899056Y1216594D01*
X899111Y1216668D01*
X899130Y1216687D01*
X899176Y1216733D01*
X899250Y1216807D01*
X899342Y1216900D01*
X899472Y1217001D01*
X899611Y1217122D01*
X899777Y1217242D01*
X899962Y1217371D01*
X901700Y1218471D01*
Y1217417D01*
D02*
G37*
G36*
X604520Y1217130D02*
X604511D01*
X604474D01*
X604418D01*
X604344Y1217139D01*
X604261Y1217148D01*
X604169Y1217167D01*
X604076Y1217185D01*
X603974Y1217222D01*
X603965D01*
X603956Y1217231D01*
X603900Y1217250D01*
X603817Y1217287D01*
X603706Y1217342D01*
X603577Y1217416D01*
X603429Y1217509D01*
X603281Y1217610D01*
X603124Y1217740D01*
X603115D01*
X603105Y1217758D01*
X603050Y1217805D01*
X602967Y1217888D01*
X602846Y1218008D01*
X602708Y1218147D01*
X602541Y1218322D01*
X602356Y1218535D01*
X602162Y1218766D01*
X602153Y1218775D01*
X602125Y1218812D01*
X602079Y1218868D01*
X602024Y1218932D01*
X601950Y1219016D01*
X601866Y1219117D01*
X601774Y1219219D01*
X601672Y1219339D01*
X601451Y1219570D01*
X601229Y1219802D01*
X601118Y1219913D01*
X601007Y1220014D01*
X600905Y1220107D01*
X600803Y1220181D01*
X600794D01*
X600785Y1220199D01*
X600757Y1220218D01*
X600720Y1220236D01*
X600618Y1220301D01*
X600498Y1220375D01*
X600350Y1220440D01*
X600193Y1220504D01*
X600017Y1220541D01*
X599851Y1220560D01*
X599842D01*
X599832D01*
X599777Y1220551D01*
X599685Y1220541D01*
X599583Y1220514D01*
X599453Y1220477D01*
X599324Y1220412D01*
X599194Y1220329D01*
X599065Y1220218D01*
X599047Y1220199D01*
X599010Y1220153D01*
X598963Y1220088D01*
X598899Y1219986D01*
X598843Y1219857D01*
X598788Y1219709D01*
X598751Y1219533D01*
X598741Y1219339D01*
Y1219284D01*
X598751Y1219247D01*
X598760Y1219136D01*
X598788Y1219007D01*
X598825Y1218868D01*
X598889Y1218711D01*
X598973Y1218563D01*
X599084Y1218424D01*
X599102Y1218406D01*
X599148Y1218369D01*
X599222Y1218313D01*
X599333Y1218258D01*
X599463Y1218193D01*
X599629Y1218137D01*
X599814Y1218100D01*
X600027Y1218082D01*
X599943Y1217278D01*
X599934D01*
X599906Y1217287D01*
X599860D01*
X599795Y1217296D01*
X599721Y1217315D01*
X599638Y1217333D01*
X599537Y1217361D01*
X599435Y1217389D01*
X599213Y1217462D01*
X598991Y1217573D01*
X598880Y1217638D01*
X598769Y1217721D01*
X598667Y1217805D01*
X598575Y1217897D01*
X598566Y1217906D01*
X598557Y1217925D01*
X598529Y1217952D01*
X598501Y1217999D01*
X598464Y1218054D01*
X598427Y1218119D01*
X598381Y1218193D01*
X598335Y1218285D01*
X598288Y1218387D01*
X598242Y1218498D01*
X598205Y1218618D01*
X598168Y1218748D01*
X598140Y1218886D01*
X598113Y1219034D01*
X598104Y1219191D01*
X598094Y1219358D01*
Y1219450D01*
X598104Y1219515D01*
X598113Y1219589D01*
X598122Y1219681D01*
X598140Y1219783D01*
X598159Y1219885D01*
X598224Y1220125D01*
X598316Y1220366D01*
X598372Y1220486D01*
X598436Y1220606D01*
X598520Y1220717D01*
X598612Y1220819D01*
X598621Y1220828D01*
X598631Y1220846D01*
X598667Y1220865D01*
X598704Y1220902D01*
X598751Y1220948D01*
X598815Y1220994D01*
X598880Y1221040D01*
X598963Y1221096D01*
X599139Y1221189D01*
X599361Y1221281D01*
X599472Y1221318D01*
X599601Y1221336D01*
X599731Y1221355D01*
X599869Y1221364D01*
X599888D01*
X599934D01*
X600008Y1221355D01*
X600110Y1221346D01*
X600221Y1221327D01*
X600350Y1221290D01*
X600489Y1221253D01*
X600628Y1221198D01*
X600646Y1221189D01*
X600692Y1221170D01*
X600766Y1221133D01*
X600868Y1221077D01*
X600979Y1221004D01*
X601118Y1220911D01*
X601256Y1220800D01*
X601413Y1220671D01*
X601432Y1220652D01*
X601487Y1220606D01*
X601534Y1220560D01*
X601580Y1220514D01*
X601635Y1220458D01*
X601709Y1220384D01*
X601783Y1220310D01*
X601866Y1220218D01*
X601959Y1220125D01*
X602061Y1220014D01*
X602162Y1219894D01*
X602283Y1219765D01*
X602403Y1219617D01*
X602532Y1219469D01*
X602541Y1219460D01*
X602560Y1219441D01*
X602588Y1219404D01*
X602625Y1219358D01*
X602680Y1219302D01*
X602736Y1219238D01*
X602856Y1219090D01*
X602994Y1218932D01*
X603133Y1218785D01*
X603253Y1218655D01*
X603300Y1218600D01*
X603346Y1218553D01*
X603355Y1218544D01*
X603383Y1218516D01*
X603420Y1218480D01*
X603475Y1218433D01*
X603540Y1218387D01*
X603605Y1218332D01*
X603762Y1218221D01*
Y1221373D01*
X604520D01*
Y1217130D01*
D02*
G37*
G36*
Y1215687D02*
X603189Y1214846D01*
X603179D01*
X603161Y1214827D01*
X603133Y1214809D01*
X603096Y1214781D01*
X602994Y1214716D01*
X602865Y1214633D01*
X602726Y1214532D01*
X602578Y1214430D01*
X602440Y1214328D01*
X602310Y1214236D01*
X602301Y1214227D01*
X602264Y1214199D01*
X602209Y1214153D01*
X602144Y1214088D01*
X602005Y1213949D01*
X601940Y1213875D01*
X601885Y1213801D01*
X601876Y1213792D01*
X601866Y1213773D01*
X601848Y1213736D01*
X601820Y1213681D01*
X601792Y1213626D01*
X601765Y1213561D01*
X601719Y1213413D01*
Y1213404D01*
X601709Y1213385D01*
Y1213348D01*
X601700Y1213302D01*
X601691Y1213237D01*
Y1213163D01*
X601682Y1213062D01*
Y1211971D01*
X604520D01*
Y1211120D01*
X598122D01*
Y1214088D01*
X598131Y1214162D01*
Y1214245D01*
X598140Y1214439D01*
X598168Y1214643D01*
X598196Y1214865D01*
X598242Y1215068D01*
X598270Y1215170D01*
X598298Y1215253D01*
Y1215262D01*
X598307Y1215271D01*
X598335Y1215327D01*
X598372Y1215410D01*
X598436Y1215512D01*
X598520Y1215623D01*
X598631Y1215743D01*
X598760Y1215854D01*
X598908Y1215965D01*
X598917D01*
X598926Y1215974D01*
X598982Y1216011D01*
X599074Y1216048D01*
X599194Y1216103D01*
X599333Y1216150D01*
X599500Y1216196D01*
X599675Y1216224D01*
X599869Y1216233D01*
X599879D01*
X599897D01*
X599934D01*
X599980Y1216224D01*
X600045D01*
X600110Y1216214D01*
X600267Y1216177D01*
X600452Y1216122D01*
X600646Y1216048D01*
X600840Y1215937D01*
X600933Y1215863D01*
X601025Y1215789D01*
X601034Y1215780D01*
X601044Y1215770D01*
X601071Y1215743D01*
X601099Y1215706D01*
X601136Y1215660D01*
X601173Y1215604D01*
X601219Y1215530D01*
X601275Y1215456D01*
X601321Y1215364D01*
X601367Y1215262D01*
X601423Y1215151D01*
X601469Y1215031D01*
X601506Y1214892D01*
X601552Y1214753D01*
X601580Y1214596D01*
X601608Y1214430D01*
X601617Y1214448D01*
X601635Y1214485D01*
X601672Y1214541D01*
X601709Y1214615D01*
X601811Y1214781D01*
X601876Y1214865D01*
X601931Y1214938D01*
X601950Y1214957D01*
X601996Y1215003D01*
X602070Y1215077D01*
X602162Y1215170D01*
X602292Y1215271D01*
X602430Y1215391D01*
X602597Y1215512D01*
X602782Y1215641D01*
X604520Y1216741D01*
Y1215687D01*
D02*
G37*
G36*
X511405Y1183742D02*
X511479Y1183733D01*
X511562Y1183723D01*
X511664Y1183714D01*
X511765Y1183686D01*
X511996Y1183631D01*
X512228Y1183548D01*
X512348Y1183492D01*
X512468Y1183427D01*
X512579Y1183353D01*
X512690Y1183270D01*
X512699Y1183261D01*
X512718Y1183252D01*
X512736Y1183215D01*
X512773Y1183178D01*
X512819Y1183131D01*
X512866Y1183076D01*
X512921Y1183002D01*
X512967Y1182919D01*
X513023Y1182836D01*
X513078Y1182734D01*
X513180Y1182512D01*
X513263Y1182253D01*
X513291Y1182114D01*
X513309Y1181966D01*
X512487Y1181902D01*
Y1181911D01*
Y1181930D01*
X512477Y1181957D01*
X512468Y1182003D01*
X512440Y1182105D01*
X512403Y1182244D01*
X512348Y1182383D01*
X512274Y1182540D01*
X512181Y1182679D01*
X512071Y1182808D01*
X512052Y1182817D01*
X512015Y1182854D01*
X511941Y1182900D01*
X511839Y1182956D01*
X511728Y1183011D01*
X511590Y1183057D01*
X511433Y1183094D01*
X511257Y1183104D01*
X511201D01*
X511164Y1183094D01*
X511054Y1183085D01*
X510924Y1183048D01*
X510767Y1183002D01*
X510610Y1182928D01*
X510443Y1182817D01*
X510369Y1182752D01*
X510295Y1182679D01*
X510286Y1182669D01*
X510277Y1182660D01*
X510258Y1182632D01*
X510231Y1182605D01*
X510166Y1182503D01*
X510092Y1182373D01*
X510027Y1182216D01*
X509963Y1182022D01*
X509916Y1181791D01*
X509898Y1181671D01*
Y1181541D01*
Y1181532D01*
Y1181514D01*
Y1181477D01*
X509907Y1181430D01*
Y1181375D01*
X509916Y1181310D01*
X509944Y1181162D01*
X509990Y1180986D01*
X510055Y1180811D01*
X510147Y1180644D01*
X510277Y1180487D01*
Y1180478D01*
X510295Y1180469D01*
X510342Y1180423D01*
X510425Y1180358D01*
X510536Y1180284D01*
X510684Y1180219D01*
X510850Y1180154D01*
X511044Y1180108D01*
X511155Y1180090D01*
X511331D01*
X511405Y1180099D01*
X511497Y1180108D01*
X511608Y1180136D01*
X511719Y1180164D01*
X511839Y1180210D01*
X511960Y1180265D01*
X511969Y1180275D01*
X512006Y1180293D01*
X512061Y1180339D01*
X512135Y1180386D01*
X512209Y1180450D01*
X512283Y1180534D01*
X512366Y1180617D01*
X512431Y1180718D01*
X513171Y1180617D01*
X512551Y1177325D01*
X509371D01*
Y1178074D01*
X511932D01*
X512274Y1179803D01*
X512265Y1179794D01*
X512246Y1179785D01*
X512218Y1179766D01*
X512172Y1179738D01*
X512117Y1179711D01*
X512052Y1179674D01*
X511904Y1179600D01*
X511719Y1179526D01*
X511516Y1179461D01*
X511294Y1179415D01*
X511183Y1179396D01*
X510979D01*
X510924Y1179406D01*
X510850Y1179415D01*
X510767Y1179424D01*
X510674Y1179443D01*
X510573Y1179470D01*
X510351Y1179535D01*
X510231Y1179581D01*
X510110Y1179646D01*
X509990Y1179711D01*
X509870Y1179785D01*
X509759Y1179877D01*
X509648Y1179979D01*
X509639Y1179988D01*
X509620Y1180006D01*
X509593Y1180034D01*
X509556Y1180080D01*
X509510Y1180145D01*
X509463Y1180210D01*
X509408Y1180293D01*
X509352Y1180386D01*
X509306Y1180487D01*
X509251Y1180598D01*
X509204Y1180728D01*
X509158Y1180857D01*
X509121Y1180996D01*
X509093Y1181153D01*
X509075Y1181310D01*
X509066Y1181477D01*
Y1181486D01*
Y1181514D01*
Y1181560D01*
X509075Y1181625D01*
X509084Y1181698D01*
X509093Y1181782D01*
X509112Y1181883D01*
X509130Y1181985D01*
X509186Y1182225D01*
X509278Y1182475D01*
X509334Y1182605D01*
X509408Y1182725D01*
X509482Y1182854D01*
X509574Y1182974D01*
X509583Y1182984D01*
X509602Y1183011D01*
X509639Y1183048D01*
X509685Y1183094D01*
X509750Y1183150D01*
X509824Y1183224D01*
X509916Y1183289D01*
X510018Y1183363D01*
X510129Y1183437D01*
X510258Y1183501D01*
X510397Y1183566D01*
X510545Y1183631D01*
X510702Y1183677D01*
X510878Y1183714D01*
X511063Y1183742D01*
X511257Y1183751D01*
X511340D01*
X511405Y1183742D01*
D02*
G37*
G36*
X519430Y1177242D02*
X516462D01*
X516388Y1177251D01*
X516305D01*
X516111Y1177261D01*
X515907Y1177288D01*
X515686Y1177316D01*
X515482Y1177362D01*
X515380Y1177390D01*
X515297Y1177418D01*
X515288D01*
X515279Y1177427D01*
X515223Y1177455D01*
X515140Y1177492D01*
X515038Y1177556D01*
X514927Y1177640D01*
X514807Y1177751D01*
X514696Y1177880D01*
X514585Y1178028D01*
Y1178037D01*
X514576Y1178046D01*
X514539Y1178102D01*
X514502Y1178194D01*
X514447Y1178315D01*
X514400Y1178453D01*
X514354Y1178620D01*
X514326Y1178795D01*
X514317Y1178989D01*
Y1178999D01*
Y1179017D01*
Y1179054D01*
X514326Y1179100D01*
Y1179165D01*
X514336Y1179230D01*
X514373Y1179387D01*
X514428Y1179572D01*
X514502Y1179766D01*
X514613Y1179960D01*
X514687Y1180053D01*
X514761Y1180145D01*
X514770Y1180154D01*
X514780Y1180164D01*
X514807Y1180191D01*
X514844Y1180219D01*
X514890Y1180256D01*
X514946Y1180293D01*
X515020Y1180339D01*
X515094Y1180395D01*
X515186Y1180441D01*
X515288Y1180487D01*
X515399Y1180543D01*
X515519Y1180589D01*
X515658Y1180626D01*
X515797Y1180672D01*
X515954Y1180700D01*
X516120Y1180728D01*
X516102Y1180737D01*
X516065Y1180755D01*
X516009Y1180792D01*
X515935Y1180829D01*
X515769Y1180931D01*
X515686Y1180996D01*
X515612Y1181051D01*
X515593Y1181070D01*
X515547Y1181116D01*
X515473Y1181190D01*
X515380Y1181282D01*
X515279Y1181412D01*
X515159Y1181551D01*
X515038Y1181717D01*
X514909Y1181902D01*
X513809Y1183640D01*
X514863D01*
X515704Y1182309D01*
Y1182299D01*
X515723Y1182281D01*
X515741Y1182253D01*
X515769Y1182216D01*
X515834Y1182114D01*
X515917Y1181985D01*
X516018Y1181846D01*
X516120Y1181698D01*
X516222Y1181560D01*
X516314Y1181430D01*
X516324Y1181421D01*
X516351Y1181384D01*
X516397Y1181329D01*
X516462Y1181264D01*
X516601Y1181125D01*
X516675Y1181060D01*
X516749Y1181005D01*
X516758Y1180996D01*
X516777Y1180986D01*
X516814Y1180968D01*
X516869Y1180940D01*
X516924Y1180912D01*
X516989Y1180885D01*
X517137Y1180839D01*
X517146D01*
X517165Y1180829D01*
X517202D01*
X517248Y1180820D01*
X517313Y1180811D01*
X517387D01*
X517488Y1180802D01*
X518579D01*
Y1183640D01*
X519430D01*
Y1177242D01*
D02*
G37*
G36*
X410911Y1191326D02*
X411031Y1191308D01*
X411179Y1191280D01*
X411346Y1191234D01*
X411512Y1191179D01*
X411678Y1191105D01*
X411688D01*
X411697Y1191095D01*
X411752Y1191068D01*
X411836Y1191012D01*
X411928Y1190947D01*
X412039Y1190855D01*
X412150Y1190753D01*
X412261Y1190633D01*
X412353Y1190494D01*
X412363Y1190476D01*
X412390Y1190430D01*
X412427Y1190346D01*
X412473Y1190245D01*
X412520Y1190125D01*
X412557Y1189986D01*
X412584Y1189829D01*
X412594Y1189671D01*
Y1189653D01*
Y1189597D01*
X412584Y1189524D01*
X412566Y1189422D01*
X412538Y1189302D01*
X412492Y1189172D01*
X412437Y1189043D01*
X412363Y1188913D01*
X412353Y1188895D01*
X412326Y1188858D01*
X412270Y1188793D01*
X412196Y1188719D01*
X412104Y1188636D01*
X411993Y1188543D01*
X411863Y1188460D01*
X411706Y1188377D01*
X411715D01*
X411734Y1188368D01*
X411762Y1188359D01*
X411799Y1188349D01*
X411900Y1188312D01*
X412030Y1188257D01*
X412178Y1188183D01*
X412326Y1188091D01*
X412464Y1187970D01*
X412594Y1187832D01*
X412603Y1187813D01*
X412640Y1187758D01*
X412695Y1187665D01*
X412751Y1187545D01*
X412806Y1187397D01*
X412862Y1187221D01*
X412899Y1187018D01*
X412908Y1186796D01*
Y1186787D01*
Y1186759D01*
Y1186713D01*
X412899Y1186657D01*
X412890Y1186583D01*
X412871Y1186500D01*
X412853Y1186408D01*
X412834Y1186306D01*
X412760Y1186084D01*
X412705Y1185964D01*
X412649Y1185853D01*
X412575Y1185733D01*
X412492Y1185613D01*
X412400Y1185492D01*
X412289Y1185381D01*
X412279Y1185372D01*
X412261Y1185354D01*
X412224Y1185326D01*
X412178Y1185289D01*
X412122Y1185243D01*
X412048Y1185197D01*
X411965Y1185141D01*
X411863Y1185095D01*
X411762Y1185039D01*
X411641Y1184984D01*
X411521Y1184938D01*
X411383Y1184892D01*
X411235Y1184855D01*
X411077Y1184827D01*
X410920Y1184808D01*
X410745Y1184799D01*
X410661D01*
X410606Y1184808D01*
X410532Y1184818D01*
X410449Y1184827D01*
X410356Y1184845D01*
X410255Y1184864D01*
X410033Y1184919D01*
X409802Y1185012D01*
X409681Y1185067D01*
X409570Y1185132D01*
X409459Y1185215D01*
X409348Y1185298D01*
X409339Y1185308D01*
X409321Y1185326D01*
X409293Y1185354D01*
X409265Y1185391D01*
X409219Y1185437D01*
X409173Y1185502D01*
X409117Y1185566D01*
X409062Y1185650D01*
X409006Y1185742D01*
X408951Y1185835D01*
X408849Y1186057D01*
X408766Y1186315D01*
X408738Y1186454D01*
X408720Y1186602D01*
X409506Y1186704D01*
Y1186694D01*
X409515Y1186676D01*
X409524Y1186639D01*
X409533Y1186593D01*
X409543Y1186537D01*
X409561Y1186472D01*
X409607Y1186334D01*
X409672Y1186167D01*
X409755Y1186010D01*
X409848Y1185862D01*
X409959Y1185733D01*
X409977Y1185724D01*
X410014Y1185687D01*
X410088Y1185640D01*
X410181Y1185594D01*
X410292Y1185539D01*
X410430Y1185492D01*
X410587Y1185455D01*
X410754Y1185446D01*
X410809D01*
X410846Y1185455D01*
X410948Y1185465D01*
X411077Y1185492D01*
X411225Y1185539D01*
X411383Y1185603D01*
X411540Y1185696D01*
X411688Y1185825D01*
X411706Y1185844D01*
X411752Y1185899D01*
X411808Y1185983D01*
X411882Y1186093D01*
X411956Y1186232D01*
X412011Y1186389D01*
X412057Y1186574D01*
X412076Y1186778D01*
Y1186787D01*
Y1186805D01*
Y1186833D01*
X412067Y1186870D01*
X412057Y1186972D01*
X412030Y1187092D01*
X411993Y1187240D01*
X411928Y1187388D01*
X411836Y1187536D01*
X411715Y1187674D01*
X411697Y1187693D01*
X411651Y1187730D01*
X411577Y1187785D01*
X411475Y1187850D01*
X411346Y1187915D01*
X411188Y1187970D01*
X411013Y1188007D01*
X410819Y1188026D01*
X410735D01*
X410671Y1188017D01*
X410587Y1188007D01*
X410495Y1187989D01*
X410384Y1187970D01*
X410264Y1187943D01*
X410356Y1188636D01*
X410402D01*
X410439Y1188627D01*
X410560D01*
X410661Y1188645D01*
X410782Y1188664D01*
X410920Y1188691D01*
X411077Y1188738D01*
X411225Y1188802D01*
X411383Y1188886D01*
X411392D01*
X411401Y1188895D01*
X411447Y1188932D01*
X411512Y1188997D01*
X411586Y1189080D01*
X411660Y1189200D01*
X411725Y1189339D01*
X411771Y1189496D01*
X411789Y1189588D01*
Y1189690D01*
Y1189699D01*
Y1189708D01*
Y1189764D01*
X411771Y1189838D01*
X411752Y1189940D01*
X411715Y1190051D01*
X411669Y1190171D01*
X411595Y1190291D01*
X411493Y1190402D01*
X411484Y1190411D01*
X411438Y1190448D01*
X411373Y1190494D01*
X411290Y1190550D01*
X411179Y1190596D01*
X411050Y1190642D01*
X410902Y1190679D01*
X410735Y1190688D01*
X410661D01*
X410578Y1190670D01*
X410467Y1190651D01*
X410347Y1190614D01*
X410227Y1190568D01*
X410097Y1190494D01*
X409977Y1190402D01*
X409968Y1190393D01*
X409931Y1190346D01*
X409875Y1190282D01*
X409811Y1190189D01*
X409746Y1190069D01*
X409681Y1189921D01*
X409626Y1189745D01*
X409589Y1189542D01*
X408803Y1189681D01*
Y1189690D01*
X408812Y1189718D01*
X408821Y1189755D01*
X408831Y1189810D01*
X408849Y1189875D01*
X408877Y1189949D01*
X408932Y1190125D01*
X409025Y1190328D01*
X409136Y1190531D01*
X409275Y1190725D01*
X409450Y1190901D01*
X409459Y1190910D01*
X409478Y1190920D01*
X409506Y1190938D01*
X409543Y1190966D01*
X409589Y1191003D01*
X409654Y1191040D01*
X409718Y1191077D01*
X409802Y1191123D01*
X409986Y1191197D01*
X410199Y1191271D01*
X410449Y1191317D01*
X410578Y1191336D01*
X410809D01*
X410911Y1191326D01*
D02*
G37*
G36*
X405632Y1191299D02*
X405715D01*
X405909Y1191290D01*
X406113Y1191262D01*
X406334Y1191234D01*
X406538Y1191188D01*
X406640Y1191160D01*
X406723Y1191132D01*
X406732D01*
X406741Y1191123D01*
X406797Y1191095D01*
X406880Y1191058D01*
X406982Y1190994D01*
X407093Y1190910D01*
X407213Y1190799D01*
X407324Y1190670D01*
X407435Y1190522D01*
Y1190513D01*
X407444Y1190504D01*
X407481Y1190448D01*
X407518Y1190356D01*
X407573Y1190236D01*
X407620Y1190097D01*
X407666Y1189930D01*
X407694Y1189755D01*
X407703Y1189560D01*
Y1189551D01*
Y1189533D01*
Y1189496D01*
X407694Y1189450D01*
Y1189385D01*
X407684Y1189320D01*
X407647Y1189163D01*
X407592Y1188978D01*
X407518Y1188784D01*
X407407Y1188590D01*
X407333Y1188497D01*
X407259Y1188405D01*
X407250Y1188396D01*
X407240Y1188386D01*
X407213Y1188359D01*
X407176Y1188331D01*
X407130Y1188294D01*
X407074Y1188257D01*
X407000Y1188211D01*
X406926Y1188155D01*
X406834Y1188109D01*
X406732Y1188063D01*
X406621Y1188007D01*
X406501Y1187961D01*
X406362Y1187924D01*
X406223Y1187878D01*
X406066Y1187850D01*
X405900Y1187822D01*
X405918Y1187813D01*
X405955Y1187795D01*
X406011Y1187758D01*
X406085Y1187721D01*
X406251Y1187619D01*
X406334Y1187554D01*
X406408Y1187499D01*
X406427Y1187480D01*
X406473Y1187434D01*
X406547Y1187360D01*
X406640Y1187268D01*
X406741Y1187138D01*
X406861Y1187000D01*
X406982Y1186833D01*
X407111Y1186648D01*
X408211Y1184910D01*
X407157D01*
X406316Y1186241D01*
Y1186251D01*
X406297Y1186269D01*
X406279Y1186297D01*
X406251Y1186334D01*
X406186Y1186435D01*
X406103Y1186565D01*
X406002Y1186704D01*
X405900Y1186852D01*
X405798Y1186990D01*
X405706Y1187120D01*
X405696Y1187129D01*
X405669Y1187166D01*
X405623Y1187221D01*
X405558Y1187286D01*
X405419Y1187425D01*
X405345Y1187489D01*
X405271Y1187545D01*
X405262Y1187554D01*
X405243Y1187563D01*
X405206Y1187582D01*
X405151Y1187610D01*
X405096Y1187637D01*
X405031Y1187665D01*
X404883Y1187711D01*
X404874D01*
X404855Y1187721D01*
X404818D01*
X404772Y1187730D01*
X404707Y1187739D01*
X404633D01*
X404532Y1187748D01*
X403441D01*
Y1184910D01*
X402590D01*
Y1191308D01*
X405558D01*
X405632Y1191299D01*
D02*
G37*
G36*
X478151Y1253640D02*
X478234Y1253630D01*
X478336Y1253621D01*
X478438Y1253612D01*
X478558Y1253584D01*
X478808Y1253529D01*
X479085Y1253446D01*
X479224Y1253390D01*
X479353Y1253325D01*
X479483Y1253242D01*
X479612Y1253159D01*
X479621Y1253150D01*
X479640Y1253140D01*
X479677Y1253113D01*
X479723Y1253066D01*
X479769Y1253020D01*
X479834Y1252955D01*
X479899Y1252881D01*
X479973Y1252808D01*
X480047Y1252715D01*
X480121Y1252604D01*
X480204Y1252493D01*
X480278Y1252373D01*
X480342Y1252234D01*
X480416Y1252096D01*
X480472Y1251948D01*
X480527Y1251781D01*
X479695Y1251587D01*
Y1251596D01*
X479686Y1251615D01*
X479668Y1251652D01*
X479649Y1251698D01*
X479631Y1251754D01*
X479603Y1251827D01*
X479529Y1251975D01*
X479436Y1252142D01*
X479325Y1252308D01*
X479187Y1252466D01*
X479039Y1252604D01*
X479020Y1252623D01*
X478965Y1252660D01*
X478872Y1252706D01*
X478752Y1252771D01*
X478595Y1252826D01*
X478419Y1252881D01*
X478207Y1252918D01*
X477976Y1252928D01*
X477902D01*
X477855Y1252918D01*
X477791D01*
X477717Y1252909D01*
X477541Y1252881D01*
X477347Y1252844D01*
X477144Y1252780D01*
X476931Y1252687D01*
X476737Y1252567D01*
X476727D01*
X476718Y1252549D01*
X476654Y1252502D01*
X476570Y1252429D01*
X476469Y1252318D01*
X476348Y1252179D01*
X476237Y1252022D01*
X476136Y1251827D01*
X476043Y1251615D01*
Y1251606D01*
X476034Y1251587D01*
X476025Y1251559D01*
X476016Y1251513D01*
X475997Y1251458D01*
X475979Y1251393D01*
X475951Y1251236D01*
X475914Y1251051D01*
X475877Y1250847D01*
X475858Y1250626D01*
X475849Y1250385D01*
Y1250376D01*
Y1250348D01*
Y1250302D01*
Y1250247D01*
X475858Y1250182D01*
Y1250099D01*
X475868Y1250006D01*
X475877Y1249904D01*
X475905Y1249682D01*
X475951Y1249442D01*
X476006Y1249202D01*
X476080Y1248961D01*
Y1248952D01*
X476090Y1248934D01*
X476108Y1248906D01*
X476127Y1248860D01*
X476182Y1248749D01*
X476265Y1248619D01*
X476367Y1248471D01*
X476496Y1248314D01*
X476644Y1248176D01*
X476820Y1248046D01*
X476829D01*
X476848Y1248037D01*
X476875Y1248018D01*
X476912Y1248000D01*
X476959Y1247981D01*
X477014Y1247954D01*
X477144Y1247898D01*
X477310Y1247843D01*
X477495Y1247796D01*
X477698Y1247759D01*
X477911Y1247750D01*
X477976D01*
X478031Y1247759D01*
X478096D01*
X478161Y1247769D01*
X478327Y1247806D01*
X478521Y1247852D01*
X478715Y1247926D01*
X478919Y1248028D01*
X479020Y1248083D01*
X479113Y1248157D01*
X479122Y1248166D01*
X479131Y1248176D01*
X479159Y1248203D01*
X479196Y1248231D01*
X479233Y1248277D01*
X479279Y1248333D01*
X479335Y1248388D01*
X479381Y1248462D01*
X479436Y1248545D01*
X479501Y1248638D01*
X479557Y1248730D01*
X479612Y1248841D01*
X479658Y1248961D01*
X479705Y1249091D01*
X479751Y1249230D01*
X479788Y1249377D01*
X480638Y1249165D01*
Y1249156D01*
X480629Y1249119D01*
X480611Y1249063D01*
X480583Y1248989D01*
X480555Y1248906D01*
X480518Y1248804D01*
X480472Y1248693D01*
X480416Y1248573D01*
X480287Y1248314D01*
X480121Y1248055D01*
X480019Y1247926D01*
X479917Y1247796D01*
X479806Y1247685D01*
X479677Y1247574D01*
X479668Y1247565D01*
X479649Y1247547D01*
X479603Y1247528D01*
X479557Y1247491D01*
X479483Y1247445D01*
X479409Y1247399D01*
X479307Y1247353D01*
X479205Y1247306D01*
X479085Y1247251D01*
X478956Y1247205D01*
X478817Y1247159D01*
X478669Y1247112D01*
X478512Y1247075D01*
X478345Y1247057D01*
X478170Y1247038D01*
X477985Y1247029D01*
X477883D01*
X477809Y1247038D01*
X477726D01*
X477624Y1247048D01*
X477513Y1247066D01*
X477384Y1247085D01*
X477116Y1247131D01*
X476838Y1247205D01*
X476561Y1247306D01*
X476432Y1247371D01*
X476302Y1247445D01*
X476293Y1247454D01*
X476274Y1247464D01*
X476237Y1247491D01*
X476200Y1247528D01*
X476145Y1247565D01*
X476080Y1247621D01*
X476006Y1247685D01*
X475932Y1247759D01*
X475858Y1247843D01*
X475775Y1247926D01*
X475609Y1248139D01*
X475452Y1248388D01*
X475313Y1248665D01*
Y1248675D01*
X475294Y1248702D01*
X475285Y1248749D01*
X475257Y1248804D01*
X475239Y1248878D01*
X475211Y1248971D01*
X475174Y1249072D01*
X475146Y1249183D01*
X475119Y1249304D01*
X475082Y1249442D01*
X475036Y1249729D01*
X474999Y1250052D01*
X474980Y1250385D01*
Y1250395D01*
Y1250431D01*
Y1250487D01*
X474989Y1250552D01*
Y1250644D01*
X474999Y1250736D01*
X475008Y1250857D01*
X475026Y1250977D01*
X475073Y1251245D01*
X475137Y1251541D01*
X475230Y1251837D01*
X475359Y1252123D01*
X475368Y1252133D01*
X475378Y1252160D01*
X475396Y1252197D01*
X475433Y1252244D01*
X475470Y1252308D01*
X475516Y1252382D01*
X475636Y1252549D01*
X475794Y1252734D01*
X475979Y1252918D01*
X476191Y1253103D01*
X476441Y1253261D01*
X476450Y1253270D01*
X476478Y1253279D01*
X476515Y1253298D01*
X476561Y1253325D01*
X476635Y1253353D01*
X476709Y1253381D01*
X476801Y1253418D01*
X476903Y1253455D01*
X477014Y1253492D01*
X477134Y1253529D01*
X477393Y1253584D01*
X477689Y1253630D01*
X477994Y1253649D01*
X478087D01*
X478151Y1253640D01*
D02*
G37*
G36*
X485298Y1252706D02*
X482737D01*
X482395Y1250977D01*
X482404Y1250986D01*
X482423Y1250995D01*
X482450Y1251014D01*
X482497Y1251042D01*
X482552Y1251069D01*
X482617Y1251106D01*
X482765Y1251180D01*
X482950Y1251254D01*
X483153Y1251319D01*
X483375Y1251365D01*
X483486Y1251384D01*
X483689D01*
X483745Y1251375D01*
X483819Y1251365D01*
X483902Y1251356D01*
X483994Y1251338D01*
X484096Y1251310D01*
X484318Y1251245D01*
X484438Y1251199D01*
X484558Y1251134D01*
X484679Y1251069D01*
X484799Y1250995D01*
X484910Y1250903D01*
X485021Y1250801D01*
X485030Y1250792D01*
X485048Y1250773D01*
X485076Y1250746D01*
X485113Y1250700D01*
X485159Y1250635D01*
X485206Y1250570D01*
X485261Y1250487D01*
X485317Y1250395D01*
X485363Y1250293D01*
X485418Y1250182D01*
X485465Y1250052D01*
X485511Y1249923D01*
X485548Y1249784D01*
X485575Y1249627D01*
X485594Y1249470D01*
X485603Y1249304D01*
Y1249294D01*
Y1249267D01*
Y1249220D01*
X485594Y1249156D01*
X485585Y1249082D01*
X485575Y1248998D01*
X485557Y1248897D01*
X485538Y1248795D01*
X485483Y1248555D01*
X485391Y1248305D01*
X485335Y1248176D01*
X485261Y1248055D01*
X485187Y1247926D01*
X485095Y1247806D01*
X485085Y1247796D01*
X485067Y1247769D01*
X485030Y1247732D01*
X484984Y1247685D01*
X484919Y1247630D01*
X484845Y1247556D01*
X484753Y1247491D01*
X484651Y1247417D01*
X484540Y1247343D01*
X484411Y1247279D01*
X484272Y1247214D01*
X484124Y1247149D01*
X483967Y1247103D01*
X483791Y1247066D01*
X483606Y1247038D01*
X483412Y1247029D01*
X483329D01*
X483264Y1247038D01*
X483190Y1247048D01*
X483107Y1247057D01*
X483005Y1247066D01*
X482904Y1247094D01*
X482672Y1247149D01*
X482441Y1247233D01*
X482321Y1247288D01*
X482201Y1247353D01*
X482090Y1247427D01*
X481979Y1247510D01*
X481970Y1247519D01*
X481951Y1247528D01*
X481933Y1247565D01*
X481896Y1247602D01*
X481850Y1247648D01*
X481803Y1247704D01*
X481748Y1247778D01*
X481702Y1247861D01*
X481646Y1247944D01*
X481591Y1248046D01*
X481489Y1248268D01*
X481406Y1248527D01*
X481378Y1248665D01*
X481359Y1248813D01*
X482182Y1248878D01*
Y1248869D01*
Y1248850D01*
X482192Y1248823D01*
X482201Y1248776D01*
X482229Y1248675D01*
X482266Y1248536D01*
X482321Y1248397D01*
X482395Y1248240D01*
X482487Y1248102D01*
X482598Y1247972D01*
X482617Y1247963D01*
X482654Y1247926D01*
X482728Y1247880D01*
X482830Y1247824D01*
X482940Y1247769D01*
X483079Y1247722D01*
X483236Y1247685D01*
X483412Y1247676D01*
X483467D01*
X483504Y1247685D01*
X483615Y1247695D01*
X483745Y1247732D01*
X483902Y1247778D01*
X484059Y1247852D01*
X484226Y1247963D01*
X484300Y1248028D01*
X484374Y1248102D01*
X484383Y1248111D01*
X484392Y1248120D01*
X484411Y1248148D01*
X484438Y1248176D01*
X484503Y1248277D01*
X484577Y1248407D01*
X484642Y1248564D01*
X484706Y1248758D01*
X484753Y1248989D01*
X484771Y1249109D01*
Y1249239D01*
Y1249248D01*
Y1249267D01*
Y1249304D01*
X484762Y1249350D01*
Y1249405D01*
X484753Y1249470D01*
X484725Y1249618D01*
X484679Y1249793D01*
X484614Y1249969D01*
X484521Y1250136D01*
X484392Y1250293D01*
Y1250302D01*
X484374Y1250311D01*
X484327Y1250358D01*
X484244Y1250422D01*
X484133Y1250496D01*
X483985Y1250561D01*
X483819Y1250626D01*
X483625Y1250672D01*
X483514Y1250690D01*
X483338D01*
X483264Y1250681D01*
X483172Y1250672D01*
X483061Y1250644D01*
X482950Y1250616D01*
X482830Y1250570D01*
X482709Y1250515D01*
X482700Y1250505D01*
X482663Y1250487D01*
X482608Y1250441D01*
X482534Y1250395D01*
X482460Y1250330D01*
X482386Y1250247D01*
X482303Y1250163D01*
X482238Y1250062D01*
X481498Y1250163D01*
X482118Y1253455D01*
X485298D01*
Y1252706D01*
D02*
G37*
G36*
X390521Y1253640D02*
X390605Y1253630D01*
X390706Y1253621D01*
X390808Y1253612D01*
X390928Y1253584D01*
X391178Y1253529D01*
X391455Y1253446D01*
X391594Y1253390D01*
X391723Y1253325D01*
X391853Y1253242D01*
X391982Y1253159D01*
X391991Y1253150D01*
X392010Y1253140D01*
X392047Y1253113D01*
X392093Y1253066D01*
X392139Y1253020D01*
X392204Y1252955D01*
X392269Y1252881D01*
X392343Y1252808D01*
X392417Y1252715D01*
X392491Y1252604D01*
X392574Y1252493D01*
X392648Y1252373D01*
X392712Y1252234D01*
X392786Y1252096D01*
X392842Y1251948D01*
X392897Y1251781D01*
X392065Y1251587D01*
Y1251596D01*
X392056Y1251615D01*
X392038Y1251652D01*
X392019Y1251698D01*
X392001Y1251754D01*
X391973Y1251827D01*
X391899Y1251975D01*
X391806Y1252142D01*
X391695Y1252308D01*
X391557Y1252466D01*
X391409Y1252604D01*
X391390Y1252623D01*
X391335Y1252660D01*
X391242Y1252706D01*
X391122Y1252771D01*
X390965Y1252826D01*
X390789Y1252881D01*
X390577Y1252918D01*
X390346Y1252928D01*
X390272D01*
X390225Y1252918D01*
X390161D01*
X390087Y1252909D01*
X389911Y1252881D01*
X389717Y1252844D01*
X389514Y1252780D01*
X389301Y1252687D01*
X389107Y1252567D01*
X389097D01*
X389088Y1252549D01*
X389024Y1252502D01*
X388940Y1252429D01*
X388839Y1252318D01*
X388718Y1252179D01*
X388607Y1252022D01*
X388506Y1251827D01*
X388413Y1251615D01*
Y1251606D01*
X388404Y1251587D01*
X388395Y1251559D01*
X388386Y1251513D01*
X388367Y1251458D01*
X388349Y1251393D01*
X388321Y1251236D01*
X388284Y1251051D01*
X388247Y1250847D01*
X388228Y1250626D01*
X388219Y1250385D01*
Y1250376D01*
Y1250348D01*
Y1250302D01*
Y1250247D01*
X388228Y1250182D01*
Y1250099D01*
X388238Y1250006D01*
X388247Y1249904D01*
X388275Y1249682D01*
X388321Y1249442D01*
X388376Y1249202D01*
X388450Y1248961D01*
Y1248952D01*
X388460Y1248934D01*
X388478Y1248906D01*
X388497Y1248860D01*
X388552Y1248749D01*
X388635Y1248619D01*
X388737Y1248471D01*
X388866Y1248314D01*
X389014Y1248176D01*
X389190Y1248046D01*
X389199D01*
X389218Y1248037D01*
X389245Y1248018D01*
X389282Y1248000D01*
X389329Y1247981D01*
X389384Y1247954D01*
X389514Y1247898D01*
X389680Y1247843D01*
X389865Y1247796D01*
X390068Y1247759D01*
X390281Y1247750D01*
X390346D01*
X390401Y1247759D01*
X390466D01*
X390531Y1247769D01*
X390697Y1247806D01*
X390891Y1247852D01*
X391085Y1247926D01*
X391289Y1248028D01*
X391390Y1248083D01*
X391483Y1248157D01*
X391492Y1248166D01*
X391501Y1248176D01*
X391529Y1248203D01*
X391566Y1248231D01*
X391603Y1248277D01*
X391649Y1248333D01*
X391705Y1248388D01*
X391751Y1248462D01*
X391806Y1248545D01*
X391871Y1248638D01*
X391927Y1248730D01*
X391982Y1248841D01*
X392028Y1248961D01*
X392075Y1249091D01*
X392121Y1249230D01*
X392158Y1249377D01*
X393008Y1249165D01*
Y1249156D01*
X392999Y1249119D01*
X392981Y1249063D01*
X392953Y1248989D01*
X392925Y1248906D01*
X392888Y1248804D01*
X392842Y1248693D01*
X392786Y1248573D01*
X392657Y1248314D01*
X392491Y1248055D01*
X392389Y1247926D01*
X392287Y1247796D01*
X392176Y1247685D01*
X392047Y1247574D01*
X392038Y1247565D01*
X392019Y1247547D01*
X391973Y1247528D01*
X391927Y1247491D01*
X391853Y1247445D01*
X391779Y1247399D01*
X391677Y1247353D01*
X391575Y1247306D01*
X391455Y1247251D01*
X391326Y1247205D01*
X391187Y1247159D01*
X391039Y1247112D01*
X390882Y1247075D01*
X390715Y1247057D01*
X390540Y1247038D01*
X390355Y1247029D01*
X390253D01*
X390179Y1247038D01*
X390096D01*
X389994Y1247048D01*
X389883Y1247066D01*
X389754Y1247085D01*
X389486Y1247131D01*
X389208Y1247205D01*
X388931Y1247306D01*
X388802Y1247371D01*
X388672Y1247445D01*
X388663Y1247454D01*
X388644Y1247464D01*
X388607Y1247491D01*
X388570Y1247528D01*
X388515Y1247565D01*
X388450Y1247621D01*
X388376Y1247685D01*
X388302Y1247759D01*
X388228Y1247843D01*
X388145Y1247926D01*
X387979Y1248139D01*
X387822Y1248388D01*
X387683Y1248665D01*
Y1248675D01*
X387664Y1248702D01*
X387655Y1248749D01*
X387627Y1248804D01*
X387609Y1248878D01*
X387581Y1248971D01*
X387544Y1249072D01*
X387516Y1249183D01*
X387489Y1249304D01*
X387452Y1249442D01*
X387406Y1249729D01*
X387369Y1250052D01*
X387350Y1250385D01*
Y1250395D01*
Y1250431D01*
Y1250487D01*
X387359Y1250552D01*
Y1250644D01*
X387369Y1250736D01*
X387378Y1250857D01*
X387396Y1250977D01*
X387443Y1251245D01*
X387507Y1251541D01*
X387600Y1251837D01*
X387729Y1252123D01*
X387738Y1252133D01*
X387748Y1252160D01*
X387766Y1252197D01*
X387803Y1252244D01*
X387840Y1252308D01*
X387886Y1252382D01*
X388006Y1252549D01*
X388164Y1252734D01*
X388349Y1252918D01*
X388561Y1253103D01*
X388811Y1253261D01*
X388820Y1253270D01*
X388848Y1253279D01*
X388885Y1253298D01*
X388931Y1253325D01*
X389005Y1253353D01*
X389079Y1253381D01*
X389171Y1253418D01*
X389273Y1253455D01*
X389384Y1253492D01*
X389504Y1253529D01*
X389763Y1253584D01*
X390059Y1253630D01*
X390364Y1253649D01*
X390457D01*
X390521Y1253640D01*
D02*
G37*
G36*
X397030Y1249396D02*
X397899D01*
Y1248675D01*
X397030D01*
Y1247140D01*
X396244D01*
Y1248675D01*
X393461D01*
Y1249396D01*
X396392Y1253538D01*
X397030D01*
Y1249396D01*
D02*
G37*
G36*
X569770Y1022302D02*
X566802D01*
X566728Y1022311D01*
X566645D01*
X566451Y1022320D01*
X566247Y1022348D01*
X566026Y1022376D01*
X565822Y1022422D01*
X565720Y1022450D01*
X565637Y1022478D01*
X565628D01*
X565619Y1022487D01*
X565563Y1022515D01*
X565480Y1022552D01*
X565378Y1022616D01*
X565267Y1022700D01*
X565147Y1022811D01*
X565036Y1022940D01*
X564925Y1023088D01*
Y1023097D01*
X564916Y1023106D01*
X564879Y1023162D01*
X564842Y1023254D01*
X564787Y1023374D01*
X564740Y1023513D01*
X564694Y1023680D01*
X564666Y1023855D01*
X564657Y1024050D01*
Y1024059D01*
Y1024077D01*
Y1024114D01*
X564666Y1024160D01*
Y1024225D01*
X564676Y1024290D01*
X564713Y1024447D01*
X564768Y1024632D01*
X564842Y1024826D01*
X564953Y1025020D01*
X565027Y1025113D01*
X565101Y1025205D01*
X565110Y1025214D01*
X565120Y1025224D01*
X565147Y1025251D01*
X565184Y1025279D01*
X565230Y1025316D01*
X565286Y1025353D01*
X565360Y1025399D01*
X565434Y1025455D01*
X565526Y1025501D01*
X565628Y1025547D01*
X565739Y1025603D01*
X565859Y1025649D01*
X565998Y1025686D01*
X566137Y1025732D01*
X566294Y1025760D01*
X566460Y1025788D01*
X566442Y1025797D01*
X566405Y1025815D01*
X566349Y1025852D01*
X566275Y1025889D01*
X566109Y1025991D01*
X566026Y1026056D01*
X565952Y1026111D01*
X565933Y1026130D01*
X565887Y1026176D01*
X565813Y1026250D01*
X565720Y1026342D01*
X565619Y1026472D01*
X565499Y1026610D01*
X565378Y1026777D01*
X565249Y1026962D01*
X564149Y1028700D01*
X565203D01*
X566044Y1027369D01*
Y1027359D01*
X566063Y1027341D01*
X566081Y1027313D01*
X566109Y1027276D01*
X566174Y1027175D01*
X566257Y1027045D01*
X566358Y1026906D01*
X566460Y1026758D01*
X566562Y1026620D01*
X566654Y1026490D01*
X566664Y1026481D01*
X566691Y1026444D01*
X566737Y1026389D01*
X566802Y1026324D01*
X566941Y1026185D01*
X567015Y1026121D01*
X567089Y1026065D01*
X567098Y1026056D01*
X567117Y1026047D01*
X567154Y1026028D01*
X567209Y1026000D01*
X567264Y1025973D01*
X567329Y1025945D01*
X567477Y1025899D01*
X567486D01*
X567505Y1025889D01*
X567542D01*
X567588Y1025880D01*
X567653Y1025871D01*
X567727D01*
X567828Y1025862D01*
X568919D01*
Y1028700D01*
X569770D01*
Y1022302D01*
D02*
G37*
G36*
X561135Y1027165D02*
X563918D01*
Y1026444D01*
X560987Y1022302D01*
X560349D01*
Y1026444D01*
X559480D01*
Y1027165D01*
X560349D01*
Y1028700D01*
X561135D01*
Y1027165D01*
D02*
G37*
G36*
X299094Y1212064D02*
X299085D01*
X299066D01*
X299029D01*
X298974Y1212055D01*
X298918Y1212046D01*
X298853D01*
X298696Y1212018D01*
X298530Y1211990D01*
X298363Y1211935D01*
X298216Y1211879D01*
X298151Y1211842D01*
X298095Y1211796D01*
X298086Y1211787D01*
X298058Y1211750D01*
X298012Y1211694D01*
X297966Y1211620D01*
X297910Y1211519D01*
X297873Y1211408D01*
X297836Y1211269D01*
X297827Y1211121D01*
Y1211066D01*
X297836Y1211010D01*
X297846Y1210927D01*
X297864Y1210844D01*
X297883Y1210751D01*
X297920Y1210659D01*
X297966Y1210566D01*
X297975Y1210557D01*
X297994Y1210529D01*
X298031Y1210492D01*
X298068Y1210437D01*
X298132Y1210391D01*
X298197Y1210335D01*
X298271Y1210289D01*
X298363Y1210252D01*
X298373D01*
X298410Y1210234D01*
X298474Y1210224D01*
X298558Y1210206D01*
X298668Y1210187D01*
X298807Y1210178D01*
X298974Y1210160D01*
X299168D01*
X303578D01*
Y1209309D01*
X299214D01*
X299205D01*
X299177D01*
X299140D01*
X299085D01*
X299011Y1209318D01*
X298937D01*
X298761Y1209337D01*
X298558Y1209355D01*
X298345Y1209392D01*
X298151Y1209448D01*
X297966Y1209512D01*
X297957D01*
X297947Y1209522D01*
X297892Y1209549D01*
X297818Y1209595D01*
X297716Y1209660D01*
X297614Y1209753D01*
X297504Y1209854D01*
X297393Y1209984D01*
X297300Y1210132D01*
X297291Y1210150D01*
X297263Y1210206D01*
X297226Y1210289D01*
X297189Y1210409D01*
X297143Y1210557D01*
X297106Y1210723D01*
X297078Y1210908D01*
X297069Y1211112D01*
Y1211195D01*
X297078Y1211251D01*
X297087Y1211324D01*
X297097Y1211398D01*
X297134Y1211593D01*
X297189Y1211796D01*
X297272Y1212009D01*
X297328Y1212120D01*
X297393Y1212221D01*
X297467Y1212314D01*
X297550Y1212406D01*
X297559Y1212415D01*
X297568Y1212425D01*
X297605Y1212443D01*
X297642Y1212471D01*
X297689Y1212508D01*
X297753Y1212545D01*
X297827Y1212582D01*
X297910Y1212628D01*
X298003Y1212665D01*
X298114Y1212702D01*
X298225Y1212739D01*
X298354Y1212776D01*
X298493Y1212794D01*
X298650Y1212822D01*
X298807Y1212831D01*
X298983D01*
X299094Y1212064D01*
D02*
G37*
G36*
X297356Y1208347D02*
X297439Y1208338D01*
X297531Y1208320D01*
X297624Y1208301D01*
X297726Y1208264D01*
X297735D01*
X297744Y1208255D01*
X297799Y1208236D01*
X297883Y1208199D01*
X297994Y1208144D01*
X298123Y1208070D01*
X298271Y1207978D01*
X298419Y1207876D01*
X298576Y1207746D01*
X298585D01*
X298595Y1207728D01*
X298650Y1207682D01*
X298733Y1207598D01*
X298853Y1207478D01*
X298992Y1207340D01*
X299159Y1207164D01*
X299343Y1206951D01*
X299538Y1206720D01*
X299547Y1206711D01*
X299575Y1206674D01*
X299621Y1206618D01*
X299676Y1206554D01*
X299750Y1206470D01*
X299834Y1206369D01*
X299926Y1206267D01*
X300028Y1206147D01*
X300250Y1205916D01*
X300471Y1205685D01*
X300582Y1205574D01*
X300693Y1205472D01*
X300795Y1205380D01*
X300897Y1205306D01*
X300906D01*
X300915Y1205287D01*
X300943Y1205269D01*
X300980Y1205250D01*
X301082Y1205185D01*
X301202Y1205111D01*
X301350Y1205047D01*
X301507Y1204982D01*
X301683Y1204945D01*
X301849Y1204927D01*
X301858D01*
X301868D01*
X301923Y1204936D01*
X302015Y1204945D01*
X302117Y1204973D01*
X302247Y1205010D01*
X302376Y1205074D01*
X302505Y1205158D01*
X302635Y1205269D01*
X302653Y1205287D01*
X302690Y1205333D01*
X302737Y1205398D01*
X302801Y1205500D01*
X302857Y1205629D01*
X302912Y1205777D01*
X302949Y1205953D01*
X302959Y1206147D01*
Y1206202D01*
X302949Y1206239D01*
X302940Y1206350D01*
X302912Y1206480D01*
X302875Y1206618D01*
X302811Y1206776D01*
X302727Y1206924D01*
X302616Y1207062D01*
X302598Y1207081D01*
X302552Y1207118D01*
X302478Y1207173D01*
X302367Y1207229D01*
X302237Y1207293D01*
X302071Y1207349D01*
X301886Y1207386D01*
X301673Y1207404D01*
X301757Y1208209D01*
X301766D01*
X301794Y1208199D01*
X301840D01*
X301905Y1208190D01*
X301978Y1208172D01*
X302062Y1208153D01*
X302163Y1208126D01*
X302265Y1208098D01*
X302487Y1208024D01*
X302709Y1207913D01*
X302820Y1207848D01*
X302931Y1207765D01*
X303032Y1207682D01*
X303125Y1207589D01*
X303134Y1207580D01*
X303143Y1207561D01*
X303171Y1207534D01*
X303199Y1207488D01*
X303236Y1207432D01*
X303273Y1207367D01*
X303319Y1207293D01*
X303365Y1207201D01*
X303412Y1207099D01*
X303458Y1206988D01*
X303495Y1206868D01*
X303532Y1206739D01*
X303559Y1206600D01*
X303587Y1206452D01*
X303596Y1206295D01*
X303606Y1206128D01*
Y1206036D01*
X303596Y1205971D01*
X303587Y1205897D01*
X303578Y1205805D01*
X303559Y1205703D01*
X303541Y1205601D01*
X303476Y1205361D01*
X303384Y1205121D01*
X303328Y1205001D01*
X303264Y1204880D01*
X303180Y1204769D01*
X303088Y1204668D01*
X303079Y1204658D01*
X303069Y1204640D01*
X303032Y1204621D01*
X302995Y1204584D01*
X302949Y1204538D01*
X302885Y1204492D01*
X302820Y1204446D01*
X302737Y1204390D01*
X302561Y1204298D01*
X302339Y1204205D01*
X302228Y1204168D01*
X302099Y1204150D01*
X301969Y1204131D01*
X301831Y1204122D01*
X301812D01*
X301766D01*
X301692Y1204131D01*
X301590Y1204141D01*
X301479Y1204159D01*
X301350Y1204196D01*
X301211Y1204233D01*
X301072Y1204289D01*
X301054Y1204298D01*
X301008Y1204316D01*
X300934Y1204353D01*
X300832Y1204409D01*
X300721Y1204483D01*
X300582Y1204575D01*
X300444Y1204686D01*
X300287Y1204816D01*
X300268Y1204834D01*
X300213Y1204880D01*
X300166Y1204927D01*
X300120Y1204973D01*
X300065Y1205028D01*
X299991Y1205102D01*
X299917Y1205176D01*
X299834Y1205269D01*
X299741Y1205361D01*
X299639Y1205472D01*
X299538Y1205592D01*
X299417Y1205722D01*
X299297Y1205870D01*
X299168Y1206018D01*
X299159Y1206027D01*
X299140Y1206045D01*
X299112Y1206082D01*
X299075Y1206128D01*
X299020Y1206184D01*
X298964Y1206249D01*
X298844Y1206397D01*
X298706Y1206554D01*
X298567Y1206702D01*
X298447Y1206831D01*
X298400Y1206887D01*
X298354Y1206933D01*
X298345Y1206942D01*
X298317Y1206970D01*
X298280Y1207007D01*
X298225Y1207053D01*
X298160Y1207099D01*
X298095Y1207155D01*
X297938Y1207266D01*
Y1204113D01*
X297180D01*
Y1208357D01*
X297189D01*
X297226D01*
X297282D01*
X297356Y1208347D01*
D02*
G37*
G36*
X1083310Y1214802D02*
X1078308D01*
X1078317Y1214793D01*
X1078354Y1214747D01*
X1078410Y1214692D01*
X1078475Y1214599D01*
X1078558Y1214497D01*
X1078650Y1214368D01*
X1078752Y1214220D01*
X1078854Y1214054D01*
Y1214044D01*
X1078863Y1214035D01*
X1078900Y1213980D01*
X1078946Y1213887D01*
X1079002Y1213776D01*
X1079066Y1213647D01*
X1079131Y1213508D01*
X1079196Y1213370D01*
X1079251Y1213231D01*
X1078493D01*
Y1213240D01*
X1078475Y1213259D01*
X1078465Y1213296D01*
X1078438Y1213342D01*
X1078410Y1213397D01*
X1078373Y1213462D01*
X1078280Y1213619D01*
X1078179Y1213804D01*
X1078049Y1213989D01*
X1077901Y1214183D01*
X1077744Y1214377D01*
X1077735Y1214387D01*
X1077726Y1214396D01*
X1077698Y1214424D01*
X1077670Y1214461D01*
X1077578Y1214544D01*
X1077467Y1214655D01*
X1077337Y1214766D01*
X1077189Y1214886D01*
X1077041Y1214987D01*
X1076884Y1215080D01*
Y1215588D01*
X1083310D01*
Y1214802D01*
D02*
G37*
G36*
X1080268Y1211779D02*
X1080342D01*
X1080518Y1211770D01*
X1080721Y1211742D01*
X1080934Y1211714D01*
X1081156Y1211668D01*
X1081378Y1211613D01*
X1081387D01*
X1081405Y1211604D01*
X1081433Y1211594D01*
X1081470Y1211585D01*
X1081572Y1211548D01*
X1081701Y1211493D01*
X1081849Y1211437D01*
X1081997Y1211363D01*
X1082154Y1211271D01*
X1082302Y1211178D01*
X1082321Y1211169D01*
X1082367Y1211132D01*
X1082432Y1211077D01*
X1082515Y1211003D01*
X1082607Y1210919D01*
X1082700Y1210818D01*
X1082802Y1210716D01*
X1082885Y1210596D01*
X1082894Y1210577D01*
X1082922Y1210540D01*
X1082959Y1210476D01*
X1083005Y1210383D01*
X1083060Y1210272D01*
X1083107Y1210143D01*
X1083162Y1209995D01*
X1083208Y1209828D01*
Y1209810D01*
X1083217Y1209782D01*
X1083227Y1209754D01*
X1083236Y1209662D01*
X1083254Y1209533D01*
X1083273Y1209385D01*
X1083291Y1209209D01*
X1083301Y1209015D01*
X1083310Y1208802D01*
Y1206500D01*
X1076912D01*
Y1208959D01*
X1076921Y1209126D01*
X1076930Y1209311D01*
X1076949Y1209496D01*
X1076977Y1209680D01*
X1077004Y1209838D01*
Y1209847D01*
X1077014Y1209865D01*
Y1209893D01*
X1077032Y1209930D01*
X1077060Y1210032D01*
X1077106Y1210161D01*
X1077171Y1210309D01*
X1077254Y1210466D01*
X1077347Y1210623D01*
X1077467Y1210771D01*
X1077476Y1210781D01*
X1077485Y1210790D01*
X1077513Y1210818D01*
X1077541Y1210855D01*
X1077633Y1210947D01*
X1077763Y1211058D01*
X1077920Y1211178D01*
X1078105Y1211308D01*
X1078317Y1211428D01*
X1078558Y1211530D01*
X1078567D01*
X1078586Y1211539D01*
X1078623Y1211557D01*
X1078678Y1211567D01*
X1078743Y1211594D01*
X1078817Y1211613D01*
X1078900Y1211631D01*
X1079002Y1211659D01*
X1079103Y1211687D01*
X1079223Y1211705D01*
X1079482Y1211751D01*
X1079769Y1211779D01*
X1080083Y1211788D01*
X1080092D01*
X1080111D01*
X1080157D01*
X1080203D01*
X1080268Y1211779D01*
D02*
G37*
%LPC*%
G36*
X1240126Y1206919D02*
X1238009D01*
Y1205015D01*
X1238018Y1204904D01*
X1238027Y1204774D01*
X1238036Y1204626D01*
X1238055Y1204479D01*
X1238083Y1204331D01*
X1238120Y1204201D01*
X1238129Y1204183D01*
X1238148Y1204146D01*
X1238175Y1204090D01*
X1238212Y1204016D01*
X1238268Y1203933D01*
X1238332Y1203850D01*
X1238416Y1203767D01*
X1238508Y1203702D01*
X1238517Y1203693D01*
X1238554Y1203674D01*
X1238610Y1203646D01*
X1238684Y1203609D01*
X1238767Y1203582D01*
X1238859Y1203554D01*
X1238970Y1203536D01*
X1239081Y1203526D01*
X1239090D01*
X1239100D01*
X1239155Y1203536D01*
X1239239Y1203545D01*
X1239349Y1203563D01*
X1239460Y1203609D01*
X1239590Y1203665D01*
X1239710Y1203748D01*
X1239830Y1203859D01*
X1239839Y1203878D01*
X1239876Y1203924D01*
X1239923Y1203998D01*
X1239978Y1204118D01*
X1240034Y1204257D01*
X1240080Y1204442D01*
X1240117Y1204654D01*
X1240126Y1204904D01*
Y1206919D01*
D02*
G37*
G36*
X944216Y1212809D02*
X942099D01*
Y1210905D01*
X942108Y1210794D01*
X942117Y1210664D01*
X942126Y1210517D01*
X942145Y1210369D01*
X942173Y1210221D01*
X942210Y1210091D01*
X942219Y1210073D01*
X942237Y1210036D01*
X942265Y1209980D01*
X942302Y1209906D01*
X942358Y1209823D01*
X942422Y1209740D01*
X942506Y1209657D01*
X942598Y1209592D01*
X942607Y1209583D01*
X942644Y1209564D01*
X942700Y1209537D01*
X942774Y1209500D01*
X942857Y1209472D01*
X942949Y1209444D01*
X943060Y1209426D01*
X943171Y1209416D01*
X943180D01*
X943190D01*
X943245Y1209426D01*
X943328Y1209435D01*
X943439Y1209453D01*
X943550Y1209500D01*
X943680Y1209555D01*
X943800Y1209638D01*
X943920Y1209749D01*
X943929Y1209768D01*
X943966Y1209814D01*
X944013Y1209888D01*
X944068Y1210008D01*
X944124Y1210147D01*
X944170Y1210332D01*
X944207Y1210544D01*
X944216Y1210794D01*
Y1212809D01*
D02*
G37*
G36*
X899675Y1222364D02*
X899666D01*
X899648D01*
X899611D01*
X899564Y1222355D01*
X899509D01*
X899444Y1222345D01*
X899296Y1222318D01*
X899130Y1222281D01*
X898954Y1222216D01*
X898788Y1222123D01*
X898631Y1222003D01*
X898612Y1221985D01*
X898566Y1221938D01*
X898510Y1221864D01*
X898436Y1221763D01*
X898362Y1221633D01*
X898307Y1221485D01*
X898261Y1221310D01*
X898242Y1221116D01*
Y1221060D01*
X898251Y1221023D01*
X898261Y1220931D01*
X898288Y1220801D01*
X898335Y1220663D01*
X898409Y1220505D01*
X898501Y1220357D01*
X898631Y1220210D01*
X898649Y1220191D01*
X898695Y1220154D01*
X898778Y1220089D01*
X898899Y1220025D01*
X899037Y1219960D01*
X899213Y1219895D01*
X899407Y1219858D01*
X899629Y1219840D01*
X899648D01*
X899694D01*
X899777Y1219849D01*
X899879Y1219858D01*
X899999Y1219877D01*
X900128Y1219914D01*
X900267Y1219951D01*
X900406Y1220006D01*
X900424Y1220015D01*
X900470Y1220043D01*
X900535Y1220080D01*
X900618Y1220135D01*
X900702Y1220200D01*
X900803Y1220284D01*
X900886Y1220376D01*
X900970Y1220487D01*
X900979Y1220505D01*
X900997Y1220542D01*
X901034Y1220607D01*
X901062Y1220690D01*
X901099Y1220783D01*
X901136Y1220894D01*
X901154Y1221014D01*
X901164Y1221143D01*
Y1221189D01*
X901154Y1221227D01*
X901145Y1221319D01*
X901117Y1221439D01*
X901062Y1221569D01*
X900997Y1221717D01*
X900896Y1221864D01*
X900840Y1221938D01*
X900766Y1222003D01*
X900757D01*
X900748Y1222022D01*
X900692Y1222059D01*
X900600Y1222114D01*
X900480Y1222188D01*
X900322Y1222253D01*
X900137Y1222308D01*
X899925Y1222345D01*
X899675Y1222364D01*
D02*
G37*
G36*
X897059Y1217094D02*
X897049D01*
X897040D01*
X896985Y1217085D01*
X896901Y1217075D01*
X896791Y1217057D01*
X896680Y1217010D01*
X896550Y1216955D01*
X896430Y1216872D01*
X896310Y1216761D01*
X896301Y1216742D01*
X896264Y1216696D01*
X896217Y1216622D01*
X896162Y1216502D01*
X896106Y1216363D01*
X896060Y1216178D01*
X896023Y1215966D01*
X896014Y1215716D01*
Y1213701D01*
X898131D01*
Y1215605D01*
X898122Y1215716D01*
X898113Y1215846D01*
X898103Y1215993D01*
X898085Y1216141D01*
X898057Y1216289D01*
X898020Y1216419D01*
X898011Y1216437D01*
X897992Y1216474D01*
X897965Y1216530D01*
X897928Y1216604D01*
X897872Y1216687D01*
X897808Y1216770D01*
X897724Y1216853D01*
X897632Y1216918D01*
X897623Y1216927D01*
X897586Y1216946D01*
X897530Y1216973D01*
X897456Y1217010D01*
X897373Y1217038D01*
X897281Y1217066D01*
X897170Y1217085D01*
X897059Y1217094D01*
D02*
G37*
G36*
X599879Y1215364D02*
X599869D01*
X599860D01*
X599805Y1215355D01*
X599721Y1215345D01*
X599611Y1215327D01*
X599500Y1215281D01*
X599370Y1215225D01*
X599250Y1215142D01*
X599130Y1215031D01*
X599121Y1215012D01*
X599084Y1214966D01*
X599037Y1214892D01*
X598982Y1214772D01*
X598926Y1214633D01*
X598880Y1214448D01*
X598843Y1214236D01*
X598834Y1213986D01*
Y1211971D01*
X600951D01*
Y1213875D01*
X600942Y1213986D01*
X600933Y1214116D01*
X600924Y1214264D01*
X600905Y1214411D01*
X600877Y1214559D01*
X600840Y1214689D01*
X600831Y1214707D01*
X600812Y1214744D01*
X600785Y1214800D01*
X600748Y1214874D01*
X600692Y1214957D01*
X600628Y1215040D01*
X600544Y1215123D01*
X600452Y1215188D01*
X600443Y1215197D01*
X600406Y1215216D01*
X600350Y1215244D01*
X600276Y1215281D01*
X600193Y1215308D01*
X600101Y1215336D01*
X599990Y1215355D01*
X599879Y1215364D01*
D02*
G37*
G36*
X518579Y1180071D02*
X516675D01*
X516564Y1180062D01*
X516434Y1180053D01*
X516287Y1180043D01*
X516139Y1180025D01*
X515991Y1179997D01*
X515861Y1179960D01*
X515843Y1179951D01*
X515806Y1179932D01*
X515750Y1179905D01*
X515676Y1179868D01*
X515593Y1179812D01*
X515510Y1179748D01*
X515427Y1179664D01*
X515362Y1179572D01*
X515353Y1179563D01*
X515334Y1179526D01*
X515307Y1179470D01*
X515270Y1179396D01*
X515242Y1179313D01*
X515214Y1179221D01*
X515196Y1179110D01*
X515186Y1178999D01*
Y1178989D01*
Y1178980D01*
X515196Y1178925D01*
X515205Y1178841D01*
X515223Y1178731D01*
X515270Y1178620D01*
X515325Y1178490D01*
X515408Y1178370D01*
X515519Y1178250D01*
X515538Y1178241D01*
X515584Y1178204D01*
X515658Y1178157D01*
X515778Y1178102D01*
X515917Y1178046D01*
X516102Y1178000D01*
X516314Y1177963D01*
X516564Y1177954D01*
X518579D01*
Y1180071D01*
D02*
G37*
G36*
X405456Y1190596D02*
X403441D01*
Y1188479D01*
X405345D01*
X405456Y1188488D01*
X405586Y1188497D01*
X405733Y1188506D01*
X405881Y1188525D01*
X406029Y1188553D01*
X406159Y1188590D01*
X406177Y1188599D01*
X406214Y1188617D01*
X406270Y1188645D01*
X406344Y1188682D01*
X406427Y1188738D01*
X406510Y1188802D01*
X406593Y1188886D01*
X406658Y1188978D01*
X406667Y1188987D01*
X406686Y1189024D01*
X406713Y1189080D01*
X406750Y1189154D01*
X406778Y1189237D01*
X406806Y1189329D01*
X406824Y1189440D01*
X406834Y1189551D01*
Y1189560D01*
Y1189570D01*
X406824Y1189625D01*
X406815Y1189708D01*
X406797Y1189819D01*
X406750Y1189930D01*
X406695Y1190060D01*
X406612Y1190180D01*
X406501Y1190300D01*
X406482Y1190309D01*
X406436Y1190346D01*
X406362Y1190393D01*
X406242Y1190448D01*
X406103Y1190504D01*
X405918Y1190550D01*
X405706Y1190587D01*
X405456Y1190596D01*
D02*
G37*
G36*
X396244Y1252262D02*
X394229Y1249396D01*
X396244D01*
Y1252262D01*
D02*
G37*
G36*
X568919Y1025131D02*
X567015D01*
X566904Y1025122D01*
X566774Y1025113D01*
X566627Y1025104D01*
X566479Y1025085D01*
X566331Y1025057D01*
X566201Y1025020D01*
X566183Y1025011D01*
X566146Y1024993D01*
X566090Y1024965D01*
X566016Y1024928D01*
X565933Y1024872D01*
X565850Y1024808D01*
X565767Y1024724D01*
X565702Y1024632D01*
X565693Y1024623D01*
X565674Y1024586D01*
X565647Y1024530D01*
X565610Y1024456D01*
X565582Y1024373D01*
X565554Y1024281D01*
X565536Y1024170D01*
X565526Y1024059D01*
Y1024050D01*
Y1024040D01*
X565536Y1023985D01*
X565545Y1023902D01*
X565563Y1023791D01*
X565610Y1023680D01*
X565665Y1023550D01*
X565748Y1023430D01*
X565859Y1023310D01*
X565878Y1023301D01*
X565924Y1023264D01*
X565998Y1023217D01*
X566118Y1023162D01*
X566257Y1023106D01*
X566442Y1023060D01*
X566654Y1023023D01*
X566904Y1023014D01*
X568919D01*
Y1025131D01*
D02*
G37*
G36*
X563150Y1026444D02*
X561135D01*
Y1023578D01*
X563150Y1026444D01*
D02*
G37*
G36*
X1080065Y1210919D02*
X1080055D01*
X1080019D01*
X1079972D01*
X1079898Y1210910D01*
X1079815D01*
X1079723Y1210901D01*
X1079612Y1210892D01*
X1079501Y1210882D01*
X1079251Y1210836D01*
X1078992Y1210781D01*
X1078752Y1210697D01*
X1078632Y1210642D01*
X1078530Y1210587D01*
X1078521D01*
X1078502Y1210568D01*
X1078475Y1210550D01*
X1078438Y1210531D01*
X1078345Y1210457D01*
X1078234Y1210365D01*
X1078114Y1210245D01*
X1077994Y1210106D01*
X1077892Y1209949D01*
X1077809Y1209782D01*
X1077800Y1209764D01*
X1077790Y1209717D01*
X1077763Y1209634D01*
X1077735Y1209514D01*
X1077716Y1209366D01*
X1077689Y1209181D01*
X1077679Y1209070D01*
Y1208950D01*
X1077670Y1208830D01*
Y1207351D01*
X1082552D01*
Y1208867D01*
X1082543Y1208932D01*
X1082533Y1209070D01*
X1082524Y1209228D01*
X1082506Y1209394D01*
X1082478Y1209560D01*
X1082441Y1209699D01*
X1082432Y1209717D01*
X1082422Y1209764D01*
X1082395Y1209828D01*
X1082358Y1209912D01*
X1082302Y1210004D01*
X1082247Y1210097D01*
X1082182Y1210189D01*
X1082108Y1210282D01*
X1082090Y1210291D01*
X1082053Y1210328D01*
X1081988Y1210383D01*
X1081895Y1210448D01*
X1081775Y1210522D01*
X1081637Y1210605D01*
X1081479Y1210679D01*
X1081304Y1210744D01*
X1081294D01*
X1081276Y1210753D01*
X1081248Y1210762D01*
X1081211Y1210771D01*
X1081165Y1210781D01*
X1081100Y1210799D01*
X1081036Y1210818D01*
X1080962Y1210836D01*
X1080777Y1210864D01*
X1080564Y1210892D01*
X1080324Y1210910D01*
X1080065Y1210919D01*
D02*
G37*
%LPD*%
D12*
X1253170Y1150200D02*
Y1262800D01*
X1340170D01*
Y1150200D02*
Y1262800D01*
X1253170Y1150200D02*
X1340170D01*
X1248440Y1152470D02*
Y1263070D01*
X1220440Y1152470D02*
X1248440D01*
X1220440D02*
Y1263070D01*
X1248440D01*
X1253170Y1028280D02*
Y1140880D01*
X1340170D01*
Y1028280D02*
Y1140880D01*
X1253170Y1028280D02*
X1340170D01*
X952530Y1158360D02*
Y1268960D01*
X924530Y1158360D02*
X952530D01*
X924530D02*
Y1268960D01*
X952530D01*
X887700Y1157550D02*
Y1268150D01*
X915700D01*
Y1157550D02*
Y1268150D01*
X887700Y1157550D02*
X915700D01*
X590520Y1155820D02*
Y1266420D01*
X618520D01*
Y1155820D02*
Y1266420D01*
X590520Y1155820D02*
X618520D01*
X464130Y1169640D02*
X574730D01*
X464130D02*
Y1197640D01*
X574730D01*
Y1169640D02*
Y1197640D01*
X347290Y1198910D02*
X457890D01*
Y1170910D02*
Y1198910D01*
X347290Y1170910D02*
X457890D01*
X347290D02*
Y1198910D01*
X435980Y1226140D02*
Y1268140D01*
Y1226140D02*
X513980D01*
Y1268140D01*
X435980D02*
X513980D01*
X348350Y1226140D02*
Y1268140D01*
Y1226140D02*
X426350D01*
Y1268140D01*
X348350D02*
X426350D01*
X625070Y1014700D02*
Y1042700D01*
X514470D02*
X625070D01*
X514470Y1014700D02*
Y1042700D01*
Y1014700D02*
X625070D01*
X253680Y1269150D02*
X340680D01*
X253680Y1156550D02*
Y1269150D01*
Y1156550D02*
X340680D01*
Y1269150D01*
X1072660Y1185000D02*
X1093960D01*
Y1228000D01*
X1072660D02*
X1093960D01*
X1072660Y1185000D02*
Y1228000D01*
M02*
